%TF.GenerationSoftware,KiCad,Pcbnew,8.0.8*%
%TF.CreationDate,2025-02-21T18:26:26+02:00*%
%TF.ProjectId,iis22183,69697332-3231-4383-932e-6b696361645f,0*%
%TF.SameCoordinates,Original*%
%TF.FileFunction,Drillmap*%
%TF.FilePolarity,Positive*%
%FSLAX45Y45*%
G04 Gerber Fmt 4.5, Leading zero omitted, Abs format (unit mm)*
G04 Created by KiCad (PCBNEW 8.0.8) date 2025-02-21 18:26:26*
%MOMM*%
%LPD*%
G01*
G04 APERTURE LIST*
%ADD10C,0.050000*%
%ADD11C,0.200000*%
G04 APERTURE END LIST*
D10*
X9950000Y-12500000D02*
X9950000Y-7500000D01*
X9950000Y-7500000D02*
G75*
G02*
X10150000Y-7300000I200000J0D01*
G01*
X10150000Y-12700000D02*
G75*
G02*
X9950000Y-12500000I0J200000D01*
G01*
X20350000Y-12500000D02*
G75*
G02*
X20150000Y-12700000I-200000J0D01*
G01*
X20150000Y-7300000D02*
G75*
G02*
X20350000Y-7500000I0J-200000D01*
G01*
X20350000Y-7500000D02*
X20350000Y-12500000D01*
X20150000Y-12700000D02*
X10150000Y-12700000D01*
X10150000Y-7300000D02*
X20150000Y-7300000D01*
D11*
X10208277Y-13013984D02*
X10208277Y-12813984D01*
X10208277Y-12813984D02*
X10255896Y-12813984D01*
X10255896Y-12813984D02*
X10284467Y-12823508D01*
X10284467Y-12823508D02*
X10303515Y-12842555D01*
X10303515Y-12842555D02*
X10313039Y-12861603D01*
X10313039Y-12861603D02*
X10322563Y-12899698D01*
X10322563Y-12899698D02*
X10322563Y-12928269D01*
X10322563Y-12928269D02*
X10313039Y-12966365D01*
X10313039Y-12966365D02*
X10303515Y-12985412D01*
X10303515Y-12985412D02*
X10284467Y-13004460D01*
X10284467Y-13004460D02*
X10255896Y-13013984D01*
X10255896Y-13013984D02*
X10208277Y-13013984D01*
X10408277Y-13013984D02*
X10408277Y-12880650D01*
X10408277Y-12918746D02*
X10417801Y-12899698D01*
X10417801Y-12899698D02*
X10427324Y-12890174D01*
X10427324Y-12890174D02*
X10446372Y-12880650D01*
X10446372Y-12880650D02*
X10465420Y-12880650D01*
X10532086Y-13013984D02*
X10532086Y-12880650D01*
X10532086Y-12813984D02*
X10522563Y-12823508D01*
X10522563Y-12823508D02*
X10532086Y-12833031D01*
X10532086Y-12833031D02*
X10541610Y-12823508D01*
X10541610Y-12823508D02*
X10532086Y-12813984D01*
X10532086Y-12813984D02*
X10532086Y-12833031D01*
X10655896Y-13013984D02*
X10636848Y-13004460D01*
X10636848Y-13004460D02*
X10627324Y-12985412D01*
X10627324Y-12985412D02*
X10627324Y-12813984D01*
X10760658Y-13013984D02*
X10741610Y-13004460D01*
X10741610Y-13004460D02*
X10732086Y-12985412D01*
X10732086Y-12985412D02*
X10732086Y-12813984D01*
X10989229Y-13013984D02*
X10989229Y-12813984D01*
X10989229Y-12813984D02*
X11055896Y-12956841D01*
X11055896Y-12956841D02*
X11122563Y-12813984D01*
X11122563Y-12813984D02*
X11122563Y-13013984D01*
X11303515Y-13013984D02*
X11303515Y-12909222D01*
X11303515Y-12909222D02*
X11293991Y-12890174D01*
X11293991Y-12890174D02*
X11274943Y-12880650D01*
X11274943Y-12880650D02*
X11236848Y-12880650D01*
X11236848Y-12880650D02*
X11217801Y-12890174D01*
X11303515Y-13004460D02*
X11284467Y-13013984D01*
X11284467Y-13013984D02*
X11236848Y-13013984D01*
X11236848Y-13013984D02*
X11217801Y-13004460D01*
X11217801Y-13004460D02*
X11208277Y-12985412D01*
X11208277Y-12985412D02*
X11208277Y-12966365D01*
X11208277Y-12966365D02*
X11217801Y-12947317D01*
X11217801Y-12947317D02*
X11236848Y-12937793D01*
X11236848Y-12937793D02*
X11284467Y-12937793D01*
X11284467Y-12937793D02*
X11303515Y-12928269D01*
X11398753Y-12880650D02*
X11398753Y-13080650D01*
X11398753Y-12890174D02*
X11417801Y-12880650D01*
X11417801Y-12880650D02*
X11455896Y-12880650D01*
X11455896Y-12880650D02*
X11474943Y-12890174D01*
X11474943Y-12890174D02*
X11484467Y-12899698D01*
X11484467Y-12899698D02*
X11493991Y-12918746D01*
X11493991Y-12918746D02*
X11493991Y-12975888D01*
X11493991Y-12975888D02*
X11484467Y-12994936D01*
X11484467Y-12994936D02*
X11474943Y-13004460D01*
X11474943Y-13004460D02*
X11455896Y-13013984D01*
X11455896Y-13013984D02*
X11417801Y-13013984D01*
X11417801Y-13013984D02*
X11398753Y-13004460D01*
X11579705Y-12994936D02*
X11589229Y-13004460D01*
X11589229Y-13004460D02*
X11579705Y-13013984D01*
X11579705Y-13013984D02*
X11570182Y-13004460D01*
X11570182Y-13004460D02*
X11579705Y-12994936D01*
X11579705Y-12994936D02*
X11579705Y-13013984D01*
X11579705Y-12890174D02*
X11589229Y-12899698D01*
X11589229Y-12899698D02*
X11579705Y-12909222D01*
X11579705Y-12909222D02*
X11570182Y-12899698D01*
X11570182Y-12899698D02*
X11579705Y-12890174D01*
X11579705Y-12890174D02*
X11579705Y-12909222D01*
M02*
