%TF.GenerationSoftware,KiCad,Pcbnew,8.0.8*%
%TF.CreationDate,2025-02-21T18:26:29+02:00*%
%TF.ProjectId,iis22183,69697332-3231-4383-932e-6b696361645f,0*%
%TF.SameCoordinates,Original*%
%TF.FileFunction,Soldermask,Top*%
%TF.FilePolarity,Negative*%
%FSLAX46Y46*%
G04 Gerber Fmt 4.6, Leading zero omitted, Abs format (unit mm)*
G04 Created by KiCad (PCBNEW 8.0.8) date 2025-02-21 18:26:29*
%MOMM*%
%LPD*%
G01*
G04 APERTURE LIST*
G04 Aperture macros list*
%AMRoundRect*
0 Rectangle with rounded corners*
0 $1 Rounding radius*
0 $2 $3 $4 $5 $6 $7 $8 $9 X,Y pos of 4 corners*
0 Add a 4 corners polygon primitive as box body*
4,1,4,$2,$3,$4,$5,$6,$7,$8,$9,$2,$3,0*
0 Add four circle primitives for the rounded corners*
1,1,$1+$1,$2,$3*
1,1,$1+$1,$4,$5*
1,1,$1+$1,$6,$7*
1,1,$1+$1,$8,$9*
0 Add four rect primitives between the rounded corners*
20,1,$1+$1,$2,$3,$4,$5,0*
20,1,$1+$1,$4,$5,$6,$7,0*
20,1,$1+$1,$6,$7,$8,$9,0*
20,1,$1+$1,$8,$9,$2,$3,0*%
%AMHorizOval*
0 Thick line with rounded ends*
0 $1 width*
0 $2 $3 position (X,Y) of the first rounded end (center of the circle)*
0 $4 $5 position (X,Y) of the second rounded end (center of the circle)*
0 Add line between two ends*
20,1,$1,$2,$3,$4,$5,0*
0 Add two circle primitives to create the rounded ends*
1,1,$1,$2,$3*
1,1,$1,$4,$5*%
%AMRotRect*
0 Rectangle, with rotation*
0 The origin of the aperture is its center*
0 $1 length*
0 $2 width*
0 $3 Rotation angle, in degrees counterclockwise*
0 Add horizontal line*
21,1,$1,$2,0,0,$3*%
G04 Aperture macros list end*
%ADD10RoundRect,0.250000X-0.262500X-0.450000X0.262500X-0.450000X0.262500X0.450000X-0.262500X0.450000X0*%
%ADD11C,0.800000*%
%ADD12C,5.400000*%
%ADD13RoundRect,0.135000X0.135000X0.185000X-0.135000X0.185000X-0.135000X-0.185000X0.135000X-0.185000X0*%
%ADD14RoundRect,0.250000X0.450000X0.425000X-0.450000X0.425000X-0.450000X-0.425000X0.450000X-0.425000X0*%
%ADD15R,1.700000X1.700000*%
%ADD16RoundRect,0.250000X0.262500X0.450000X-0.262500X0.450000X-0.262500X-0.450000X0.262500X-0.450000X0*%
%ADD17RoundRect,0.250000X-0.650000X1.000000X-0.650000X-1.000000X0.650000X-1.000000X0.650000X1.000000X0*%
%ADD18R,3.500000X3.500000*%
%ADD19RoundRect,0.750000X0.750000X1.000000X-0.750000X1.000000X-0.750000X-1.000000X0.750000X-1.000000X0*%
%ADD20RoundRect,0.875000X0.875000X0.875000X-0.875000X0.875000X-0.875000X-0.875000X0.875000X-0.875000X0*%
%ADD21R,1.800000X1.800000*%
%ADD22C,1.800000*%
%ADD23RoundRect,0.140000X0.140000X0.170000X-0.140000X0.170000X-0.140000X-0.170000X0.140000X-0.170000X0*%
%ADD24RotRect,1.050000X1.500000X45.000000*%
%ADD25HorizOval,1.050000X-0.159099X0.159099X0.159099X-0.159099X0*%
%ADD26RoundRect,0.375000X-0.625000X-0.375000X0.625000X-0.375000X0.625000X0.375000X-0.625000X0.375000X0*%
%ADD27RoundRect,0.500000X-0.500000X-1.400000X0.500000X-1.400000X0.500000X1.400000X-0.500000X1.400000X0*%
%ADD28RoundRect,0.225000X0.225000X0.250000X-0.225000X0.250000X-0.225000X-0.250000X0.225000X-0.250000X0*%
%ADD29RoundRect,0.243750X0.456250X-0.243750X0.456250X0.243750X-0.456250X0.243750X-0.456250X-0.243750X0*%
%ADD30R,1.600000X1.600000*%
%ADD31O,1.600000X1.600000*%
%ADD32RoundRect,0.250000X-0.250000X-0.475000X0.250000X-0.475000X0.250000X0.475000X-0.250000X0.475000X0*%
%ADD33RotRect,1.800000X1.800000X45.000000*%
%ADD34O,1.700000X1.700000*%
%ADD35RoundRect,0.250000X0.450000X-0.262500X0.450000X0.262500X-0.450000X0.262500X-0.450000X-0.262500X0*%
%ADD36R,4.500000X2.000000*%
G04 APERTURE END LIST*
D10*
%TO.C,R4*%
X132425000Y-92750000D03*
X134250000Y-92750000D03*
%TD*%
D11*
%TO.C,H1*%
X102543109Y-78068109D03*
X103136218Y-76636218D03*
X103136218Y-79500000D03*
X104568109Y-76043109D03*
D12*
X104568109Y-78068109D03*
D11*
X104568109Y-80093109D03*
X106000000Y-76636218D03*
X106000000Y-79500000D03*
X106593109Y-78068109D03*
%TD*%
%TO.C,H3*%
X196406891Y-78068109D03*
X197000000Y-76636218D03*
X197000000Y-79500000D03*
X198431891Y-76043109D03*
D12*
X198431891Y-78068109D03*
D11*
X198431891Y-80093109D03*
X199863782Y-76636218D03*
X199863782Y-79500000D03*
X200456891Y-78068109D03*
%TD*%
D13*
%TO.C,R2*%
X134500000Y-95250000D03*
X133480000Y-95250000D03*
%TD*%
D14*
%TO.C,C1*%
X178250000Y-90500000D03*
X175550000Y-90500000D03*
%TD*%
D15*
%TO.C,J3*%
X124750000Y-83900000D03*
%TD*%
D16*
%TO.C,R5*%
X150325000Y-97750000D03*
X148500000Y-97750000D03*
%TD*%
D17*
%TO.C,D1*%
X183500000Y-96000000D03*
X183500000Y-100000000D03*
%TD*%
D18*
%TO.C,J2*%
X189500000Y-100457500D03*
D19*
X195500000Y-100457500D03*
D20*
X192500000Y-95757500D03*
%TD*%
D13*
%TO.C,R3*%
X134500000Y-97750000D03*
X133480000Y-97750000D03*
%TD*%
D21*
%TO.C,D3*%
X120750000Y-99250000D03*
D22*
X123290000Y-99250000D03*
%TD*%
D23*
%TO.C,C4*%
X134960000Y-108250000D03*
X134000000Y-108250000D03*
%TD*%
D11*
%TO.C,H4*%
X196406891Y-122500000D03*
X197000000Y-121068109D03*
X197000000Y-123931891D03*
X198431891Y-120475000D03*
D12*
X198431891Y-122500000D03*
D11*
X198431891Y-124525000D03*
X199863782Y-121068109D03*
X199863782Y-123931891D03*
X200456891Y-122500000D03*
%TD*%
D24*
%TO.C,U2*%
X167101974Y-80547073D03*
D25*
X168000000Y-79649047D03*
X168898025Y-78751022D03*
%TD*%
D26*
%TO.C,U3*%
X181200000Y-82700000D03*
X181200000Y-85000000D03*
D27*
X187500000Y-85000000D03*
D26*
X181200000Y-87300000D03*
%TD*%
D28*
%TO.C,C5*%
X177050000Y-84500000D03*
X175500000Y-84500000D03*
%TD*%
D29*
%TO.C,F1*%
X184250000Y-105000000D03*
X184250000Y-103125000D03*
%TD*%
D30*
%TO.C,U1*%
X137380000Y-85140000D03*
D31*
X137380000Y-87680000D03*
X137380000Y-90220000D03*
X137380000Y-92760000D03*
X137380000Y-95300000D03*
X137380000Y-97840000D03*
X137380000Y-100380000D03*
X137380000Y-102920000D03*
X137380000Y-105460000D03*
X137380000Y-108000000D03*
X137380000Y-110540000D03*
X137380000Y-113080000D03*
X137380000Y-115620000D03*
X137380000Y-118160000D03*
X145000000Y-118160000D03*
X145000000Y-115620000D03*
X145000000Y-113080000D03*
X145000000Y-110540000D03*
X145000000Y-108000000D03*
X145000000Y-105460000D03*
X145000000Y-102920000D03*
X145000000Y-100380000D03*
X145000000Y-97840000D03*
X145000000Y-95300000D03*
X145000000Y-92760000D03*
X145000000Y-90220000D03*
X145000000Y-87680000D03*
X145000000Y-85140000D03*
%TD*%
D32*
%TO.C,C2*%
X148600000Y-105500000D03*
X150500000Y-105500000D03*
%TD*%
D23*
%TO.C,C3*%
X135000000Y-105250000D03*
X134040000Y-105250000D03*
%TD*%
D33*
%TO.C,D4*%
X152203949Y-80296051D03*
D22*
X154000000Y-78500000D03*
%TD*%
D28*
%TO.C,C6*%
X177000000Y-87250000D03*
X175450000Y-87250000D03*
%TD*%
D21*
%TO.C,D2*%
X108460000Y-99250000D03*
D22*
X111000000Y-99250000D03*
%TD*%
D11*
%TO.C,H2*%
X102450000Y-122500000D03*
X103043109Y-121068109D03*
X103043109Y-123931891D03*
X104475000Y-120475000D03*
D12*
X104475000Y-122500000D03*
D11*
X104475000Y-124525000D03*
X105906891Y-121068109D03*
X105906891Y-123931891D03*
X106500000Y-122500000D03*
%TD*%
D15*
%TO.C,J1*%
X154920000Y-125000000D03*
D34*
X154920000Y-122460000D03*
X157460000Y-125000000D03*
X157460000Y-122460000D03*
X160000000Y-125000000D03*
X160000000Y-122460000D03*
%TD*%
D35*
%TO.C,R1*%
X134000000Y-86075000D03*
X134000000Y-84250000D03*
%TD*%
D36*
%TO.C,Y1*%
X132000000Y-117250000D03*
X123500000Y-117250000D03*
%TD*%
M02*
