%TF.GenerationSoftware,KiCad,Pcbnew,8.0.8*%
%TF.CreationDate,2025-02-21T18:26:26+02:00*%
%TF.ProjectId,iis22183,69697332-3231-4383-932e-6b696361645f,0*%
%TF.SameCoordinates,Original*%
%TF.FileFunction,Drillmap*%
%TF.FilePolarity,Positive*%
%FSLAX45Y45*%
G04 Gerber Fmt 4.5, Leading zero omitted, Abs format (unit mm)*
G04 Created by KiCad (PCBNEW 8.0.8) date 2025-02-21 18:26:26*
%MOMM*%
%LPD*%
G01*
G04 APERTURE LIST*
%ADD10C,0.050000*%
%ADD11C,0.200000*%
%ADD12C,0.100000*%
%ADD13C,0.270000*%
G04 APERTURE END LIST*
D10*
X9950000Y-12500000D02*
X9950000Y-7500000D01*
X9950000Y-7500000D02*
G75*
G02*
X10150000Y-7300000I200000J0D01*
G01*
X10150000Y-12700000D02*
G75*
G02*
X9950000Y-12500000I0J200000D01*
G01*
X20350000Y-12500000D02*
G75*
G02*
X20150000Y-12700000I-200000J0D01*
G01*
X20150000Y-7300000D02*
G75*
G02*
X20350000Y-7500000I0J-200000D01*
G01*
X20350000Y-7500000D02*
X20350000Y-12500000D01*
X20150000Y-12700000D02*
X10150000Y-12700000D01*
X10150000Y-7300000D02*
X20150000Y-7300000D01*
D11*
D12*
X14835000Y-9435000D02*
X14865000Y-9465000D01*
X14865000Y-9435000D02*
X14835000Y-9465000D01*
X15185000Y-9285000D02*
X15215000Y-9315000D01*
X15215000Y-9285000D02*
X15185000Y-9315000D01*
X10270000Y-12250000D02*
G75*
G02*
X10220000Y-12250000I-25000J0D01*
G01*
X10220000Y-12250000D02*
G75*
G02*
X10270000Y-12250000I25000J0D01*
G01*
X10279311Y-7806811D02*
G75*
G02*
X10229311Y-7806811I-25000J0D01*
G01*
X10229311Y-7806811D02*
G75*
G02*
X10279311Y-7806811I25000J0D01*
G01*
X10329311Y-12106811D02*
G75*
G02*
X10279311Y-12106811I-25000J0D01*
G01*
X10279311Y-12106811D02*
G75*
G02*
X10329311Y-12106811I25000J0D01*
G01*
X10329311Y-12393189D02*
G75*
G02*
X10279311Y-12393189I-25000J0D01*
G01*
X10279311Y-12393189D02*
G75*
G02*
X10329311Y-12393189I25000J0D01*
G01*
X10338622Y-7663622D02*
G75*
G02*
X10288622Y-7663622I-25000J0D01*
G01*
X10288622Y-7663622D02*
G75*
G02*
X10338622Y-7663622I25000J0D01*
G01*
X10338622Y-7950000D02*
G75*
G02*
X10288622Y-7950000I-25000J0D01*
G01*
X10288622Y-7950000D02*
G75*
G02*
X10338622Y-7950000I25000J0D01*
G01*
X10472500Y-12047500D02*
G75*
G02*
X10422500Y-12047500I-25000J0D01*
G01*
X10422500Y-12047500D02*
G75*
G02*
X10472500Y-12047500I25000J0D01*
G01*
X10472500Y-12452500D02*
G75*
G02*
X10422500Y-12452500I-25000J0D01*
G01*
X10422500Y-12452500D02*
G75*
G02*
X10472500Y-12452500I25000J0D01*
G01*
X10481811Y-7604311D02*
G75*
G02*
X10431811Y-7604311I-25000J0D01*
G01*
X10431811Y-7604311D02*
G75*
G02*
X10481811Y-7604311I25000J0D01*
G01*
X10481811Y-8009311D02*
G75*
G02*
X10431811Y-8009311I-25000J0D01*
G01*
X10431811Y-8009311D02*
G75*
G02*
X10481811Y-8009311I25000J0D01*
G01*
X10615689Y-12106811D02*
G75*
G02*
X10565689Y-12106811I-25000J0D01*
G01*
X10565689Y-12106811D02*
G75*
G02*
X10615689Y-12106811I25000J0D01*
G01*
X10615689Y-12393189D02*
G75*
G02*
X10565689Y-12393189I-25000J0D01*
G01*
X10565689Y-12393189D02*
G75*
G02*
X10615689Y-12393189I25000J0D01*
G01*
X10625000Y-7663622D02*
G75*
G02*
X10575000Y-7663622I-25000J0D01*
G01*
X10575000Y-7663622D02*
G75*
G02*
X10625000Y-7663622I25000J0D01*
G01*
X10625000Y-7950000D02*
G75*
G02*
X10575000Y-7950000I-25000J0D01*
G01*
X10575000Y-7950000D02*
G75*
G02*
X10625000Y-7950000I25000J0D01*
G01*
X10675000Y-12250000D02*
G75*
G02*
X10625000Y-12250000I-25000J0D01*
G01*
X10625000Y-12250000D02*
G75*
G02*
X10675000Y-12250000I25000J0D01*
G01*
X10684311Y-7806811D02*
G75*
G02*
X10634311Y-7806811I-25000J0D01*
G01*
X10634311Y-7806811D02*
G75*
G02*
X10684311Y-7806811I25000J0D01*
G01*
X19665689Y-7806811D02*
G75*
G02*
X19615689Y-7806811I-25000J0D01*
G01*
X19615689Y-7806811D02*
G75*
G02*
X19665689Y-7806811I25000J0D01*
G01*
X19665689Y-12250000D02*
G75*
G02*
X19615689Y-12250000I-25000J0D01*
G01*
X19615689Y-12250000D02*
G75*
G02*
X19665689Y-12250000I25000J0D01*
G01*
X19725000Y-7663622D02*
G75*
G02*
X19675000Y-7663622I-25000J0D01*
G01*
X19675000Y-7663622D02*
G75*
G02*
X19725000Y-7663622I25000J0D01*
G01*
X19725000Y-7950000D02*
G75*
G02*
X19675000Y-7950000I-25000J0D01*
G01*
X19675000Y-7950000D02*
G75*
G02*
X19725000Y-7950000I25000J0D01*
G01*
X19725000Y-12106811D02*
G75*
G02*
X19675000Y-12106811I-25000J0D01*
G01*
X19675000Y-12106811D02*
G75*
G02*
X19725000Y-12106811I25000J0D01*
G01*
X19725000Y-12393189D02*
G75*
G02*
X19675000Y-12393189I-25000J0D01*
G01*
X19675000Y-12393189D02*
G75*
G02*
X19725000Y-12393189I25000J0D01*
G01*
X19868189Y-7604311D02*
G75*
G02*
X19818189Y-7604311I-25000J0D01*
G01*
X19818189Y-7604311D02*
G75*
G02*
X19868189Y-7604311I25000J0D01*
G01*
X19868189Y-8009311D02*
G75*
G02*
X19818189Y-8009311I-25000J0D01*
G01*
X19818189Y-8009311D02*
G75*
G02*
X19868189Y-8009311I25000J0D01*
G01*
X19868189Y-12047500D02*
G75*
G02*
X19818189Y-12047500I-25000J0D01*
G01*
X19818189Y-12047500D02*
G75*
G02*
X19868189Y-12047500I25000J0D01*
G01*
X19868189Y-12452500D02*
G75*
G02*
X19818189Y-12452500I-25000J0D01*
G01*
X19818189Y-12452500D02*
G75*
G02*
X19868189Y-12452500I25000J0D01*
G01*
X20011378Y-7663622D02*
G75*
G02*
X19961378Y-7663622I-25000J0D01*
G01*
X19961378Y-7663622D02*
G75*
G02*
X20011378Y-7663622I25000J0D01*
G01*
X20011378Y-7950000D02*
G75*
G02*
X19961378Y-7950000I-25000J0D01*
G01*
X19961378Y-7950000D02*
G75*
G02*
X20011378Y-7950000I25000J0D01*
G01*
X20011378Y-12106811D02*
G75*
G02*
X19961378Y-12106811I-25000J0D01*
G01*
X19961378Y-12106811D02*
G75*
G02*
X20011378Y-12106811I25000J0D01*
G01*
X20011378Y-12393189D02*
G75*
G02*
X19961378Y-12393189I-25000J0D01*
G01*
X19961378Y-12393189D02*
G75*
G02*
X20011378Y-12393189I25000J0D01*
G01*
X20070689Y-7806811D02*
G75*
G02*
X20020689Y-7806811I-25000J0D01*
G01*
X20020689Y-7806811D02*
G75*
G02*
X20070689Y-7806811I25000J0D01*
G01*
X20070689Y-12250000D02*
G75*
G02*
X20020689Y-12250000I-25000J0D01*
G01*
X20020689Y-12250000D02*
G75*
G02*
X20070689Y-12250000I25000J0D01*
G01*
X13125000Y-8370000D02*
X13125000Y-8430000D01*
X13095000Y-8400000D02*
X13155000Y-8400000D01*
X16736714Y-8081224D02*
X16736714Y-8028190D01*
X16683681Y-8028190D01*
X16683681Y-8081224D01*
X16736714Y-8081224D01*
X16826517Y-7991421D02*
X16826517Y-7938388D01*
X16773483Y-7938388D01*
X16773483Y-7991421D01*
X16826517Y-7991421D01*
X16916319Y-7901619D02*
X16916319Y-7848585D01*
X16863286Y-7848585D01*
X16863286Y-7901619D01*
X16916319Y-7901619D01*
X13738000Y-8554000D02*
X13778000Y-8514000D01*
X13738000Y-8474000D01*
X13698000Y-8514000D01*
X13738000Y-8554000D01*
X13738000Y-8808000D02*
X13778000Y-8768000D01*
X13738000Y-8728000D01*
X13698000Y-8768000D01*
X13738000Y-8808000D01*
X13738000Y-9062000D02*
X13778000Y-9022000D01*
X13738000Y-8982000D01*
X13698000Y-9022000D01*
X13738000Y-9062000D01*
X13738000Y-9316000D02*
X13778000Y-9276000D01*
X13738000Y-9236000D01*
X13698000Y-9276000D01*
X13738000Y-9316000D01*
X13738000Y-9570000D02*
X13778000Y-9530000D01*
X13738000Y-9490000D01*
X13698000Y-9530000D01*
X13738000Y-9570000D01*
X13738000Y-9824000D02*
X13778000Y-9784000D01*
X13738000Y-9744000D01*
X13698000Y-9784000D01*
X13738000Y-9824000D01*
X13738000Y-10078000D02*
X13778000Y-10038000D01*
X13738000Y-9998000D01*
X13698000Y-10038000D01*
X13738000Y-10078000D01*
X13738000Y-10332000D02*
X13778000Y-10292000D01*
X13738000Y-10252000D01*
X13698000Y-10292000D01*
X13738000Y-10332000D01*
X13738000Y-10586000D02*
X13778000Y-10546000D01*
X13738000Y-10506000D01*
X13698000Y-10546000D01*
X13738000Y-10586000D01*
X13738000Y-10840000D02*
X13778000Y-10800000D01*
X13738000Y-10760000D01*
X13698000Y-10800000D01*
X13738000Y-10840000D01*
X13738000Y-11094000D02*
X13778000Y-11054000D01*
X13738000Y-11014000D01*
X13698000Y-11054000D01*
X13738000Y-11094000D01*
X13738000Y-11348000D02*
X13778000Y-11308000D01*
X13738000Y-11268000D01*
X13698000Y-11308000D01*
X13738000Y-11348000D01*
X13738000Y-11602000D02*
X13778000Y-11562000D01*
X13738000Y-11522000D01*
X13698000Y-11562000D01*
X13738000Y-11602000D01*
X13738000Y-11856000D02*
X13778000Y-11816000D01*
X13738000Y-11776000D01*
X13698000Y-11816000D01*
X13738000Y-11856000D01*
X14500000Y-8554000D02*
X14540000Y-8514000D01*
X14500000Y-8474000D01*
X14460000Y-8514000D01*
X14500000Y-8554000D01*
X14500000Y-8808000D02*
X14540000Y-8768000D01*
X14500000Y-8728000D01*
X14460000Y-8768000D01*
X14500000Y-8808000D01*
X14500000Y-9062000D02*
X14540000Y-9022000D01*
X14500000Y-8982000D01*
X14460000Y-9022000D01*
X14500000Y-9062000D01*
X14500000Y-9316000D02*
X14540000Y-9276000D01*
X14500000Y-9236000D01*
X14460000Y-9276000D01*
X14500000Y-9316000D01*
X14500000Y-9570000D02*
X14540000Y-9530000D01*
X14500000Y-9490000D01*
X14460000Y-9530000D01*
X14500000Y-9570000D01*
X14500000Y-9824000D02*
X14540000Y-9784000D01*
X14500000Y-9744000D01*
X14460000Y-9784000D01*
X14500000Y-9824000D01*
X14500000Y-10078000D02*
X14540000Y-10038000D01*
X14500000Y-9998000D01*
X14460000Y-10038000D01*
X14500000Y-10078000D01*
X14500000Y-10332000D02*
X14540000Y-10292000D01*
X14500000Y-10252000D01*
X14460000Y-10292000D01*
X14500000Y-10332000D01*
X14500000Y-10586000D02*
X14540000Y-10546000D01*
X14500000Y-10506000D01*
X14460000Y-10546000D01*
X14500000Y-10586000D01*
X14500000Y-10840000D02*
X14540000Y-10800000D01*
X14500000Y-10760000D01*
X14460000Y-10800000D01*
X14500000Y-10840000D01*
X14500000Y-11094000D02*
X14540000Y-11054000D01*
X14500000Y-11014000D01*
X14460000Y-11054000D01*
X14500000Y-11094000D01*
X14500000Y-11348000D02*
X14540000Y-11308000D01*
X14500000Y-11268000D01*
X14460000Y-11308000D01*
X14500000Y-11348000D01*
X14500000Y-11602000D02*
X14540000Y-11562000D01*
X14500000Y-11522000D01*
X14460000Y-11562000D01*
X14500000Y-11602000D01*
X14500000Y-11856000D02*
X14540000Y-11816000D01*
X14500000Y-11776000D01*
X14460000Y-11816000D01*
X14500000Y-11856000D01*
X10801000Y-9880000D02*
X10891000Y-9970000D01*
X10891000Y-9880000D02*
X10801000Y-9970000D01*
X10891000Y-9925000D02*
G75*
G02*
X10801000Y-9925000I-45000J0D01*
G01*
X10801000Y-9925000D02*
G75*
G02*
X10891000Y-9925000I45000J0D01*
G01*
X11055000Y-9880000D02*
X11145000Y-9970000D01*
X11145000Y-9880000D02*
X11055000Y-9970000D01*
X11145000Y-9925000D02*
G75*
G02*
X11055000Y-9925000I-45000J0D01*
G01*
X11055000Y-9925000D02*
G75*
G02*
X11145000Y-9925000I45000J0D01*
G01*
X12030000Y-9880000D02*
X12120000Y-9970000D01*
X12120000Y-9880000D02*
X12030000Y-9970000D01*
X12120000Y-9925000D02*
G75*
G02*
X12030000Y-9925000I-45000J0D01*
G01*
X12030000Y-9925000D02*
G75*
G02*
X12120000Y-9925000I45000J0D01*
G01*
X12284000Y-9880000D02*
X12374000Y-9970000D01*
X12374000Y-9880000D02*
X12284000Y-9970000D01*
X12374000Y-9925000D02*
G75*
G02*
X12284000Y-9925000I-45000J0D01*
G01*
X12284000Y-9925000D02*
G75*
G02*
X12374000Y-9925000I45000J0D01*
G01*
X15175395Y-7984605D02*
X15265395Y-8074605D01*
X15265395Y-7984605D02*
X15175395Y-8074605D01*
X15265395Y-8029605D02*
G75*
G02*
X15175395Y-8029605I-45000J0D01*
G01*
X15175395Y-8029605D02*
G75*
G02*
X15265395Y-8029605I45000J0D01*
G01*
X15355000Y-7805000D02*
X15445000Y-7895000D01*
X15445000Y-7805000D02*
X15355000Y-7895000D01*
X15445000Y-7850000D02*
G75*
G02*
X15355000Y-7850000I-45000J0D01*
G01*
X15355000Y-7850000D02*
G75*
G02*
X15445000Y-7850000I45000J0D01*
G01*
X12425000Y-8340000D02*
X12525000Y-8440000D01*
X12525000Y-8340000D02*
X12425000Y-8440000D01*
X12475000Y-8340000D02*
X12475000Y-8440000D01*
X12425000Y-8390000D02*
X12525000Y-8390000D01*
X15442000Y-12196000D02*
X15542000Y-12296000D01*
X15542000Y-12196000D02*
X15442000Y-12296000D01*
X15492000Y-12196000D02*
X15492000Y-12296000D01*
X15442000Y-12246000D02*
X15542000Y-12246000D01*
X15442000Y-12450000D02*
X15542000Y-12550000D01*
X15542000Y-12450000D02*
X15442000Y-12550000D01*
X15492000Y-12450000D02*
X15492000Y-12550000D01*
X15442000Y-12500000D02*
X15542000Y-12500000D01*
X15696000Y-12196000D02*
X15796000Y-12296000D01*
X15796000Y-12196000D02*
X15696000Y-12296000D01*
X15746000Y-12196000D02*
X15746000Y-12296000D01*
X15696000Y-12246000D02*
X15796000Y-12246000D01*
X15696000Y-12450000D02*
X15796000Y-12550000D01*
X15796000Y-12450000D02*
X15696000Y-12550000D01*
X15746000Y-12450000D02*
X15746000Y-12550000D01*
X15696000Y-12500000D02*
X15796000Y-12500000D01*
X15950000Y-12196000D02*
X16050000Y-12296000D01*
X16050000Y-12196000D02*
X15950000Y-12296000D01*
X16000000Y-12196000D02*
X16000000Y-12296000D01*
X15950000Y-12246000D02*
X16050000Y-12246000D01*
X15950000Y-12450000D02*
X16050000Y-12550000D01*
X16050000Y-12450000D02*
X15950000Y-12550000D01*
X16000000Y-12450000D02*
X16000000Y-12550000D01*
X15950000Y-12500000D02*
X16050000Y-12500000D01*
X18900000Y-9995750D02*
X19000000Y-10095750D01*
X19000000Y-9995750D02*
X18900000Y-10095750D01*
X18950000Y-9995750D02*
X18950000Y-10095750D01*
X18900000Y-10045750D02*
X19000000Y-10045750D01*
X19000000Y-10145750D02*
X19000000Y-9945750D01*
X18900000Y-9945750D02*
G75*
G02*
X19000000Y-9945750I50000J0D01*
G01*
X18900000Y-9945750D02*
X18900000Y-10145750D01*
X18900000Y-10145750D02*
G75*
G03*
X19000000Y-10145750I50000J0D01*
G01*
X19200000Y-9525750D02*
X19300000Y-9625750D01*
X19300000Y-9525750D02*
X19200000Y-9625750D01*
X19250000Y-9525750D02*
X19250000Y-9625750D01*
X19200000Y-9575750D02*
X19300000Y-9575750D01*
X19350000Y-9525750D02*
X19150000Y-9525750D01*
X19150000Y-9625750D02*
G75*
G02*
X19150000Y-9525750I0J50000D01*
G01*
X19150000Y-9625750D02*
X19350000Y-9625750D01*
X19350000Y-9625750D02*
G75*
G03*
X19350000Y-9525750I0J50000D01*
G01*
X19500000Y-9995750D02*
X19600000Y-10095750D01*
X19600000Y-9995750D02*
X19500000Y-10095750D01*
X19550000Y-9995750D02*
X19550000Y-10095750D01*
X19500000Y-10045750D02*
X19600000Y-10045750D01*
X19600000Y-10145750D02*
X19600000Y-9945750D01*
X19500000Y-9945750D02*
G75*
G02*
X19600000Y-9945750I50000J0D01*
G01*
X19500000Y-9945750D02*
X19500000Y-10145750D01*
X19500000Y-10145750D02*
G75*
G03*
X19600000Y-10145750I50000J0D01*
G01*
D13*
X10312500Y-12115000D02*
X10582500Y-12385000D01*
X10582500Y-12115000D02*
X10312500Y-12385000D01*
X10542960Y-12345460D02*
X10542960Y-12154540D01*
X10352040Y-12154540D01*
X10352040Y-12345460D01*
X10542960Y-12345460D01*
X10321811Y-7671811D02*
X10591811Y-7941811D01*
X10591811Y-7671811D02*
X10321811Y-7941811D01*
X10552271Y-7902271D02*
X10552271Y-7711351D01*
X10361351Y-7711351D01*
X10361351Y-7902271D01*
X10552271Y-7902271D01*
X19708189Y-7671811D02*
X19978189Y-7941811D01*
X19978189Y-7671811D02*
X19708189Y-7941811D01*
X19938649Y-7902271D02*
X19938649Y-7711351D01*
X19747729Y-7711351D01*
X19747729Y-7902271D01*
X19938649Y-7902271D01*
X19708189Y-12115000D02*
X19978189Y-12385000D01*
X19978189Y-12115000D02*
X19708189Y-12385000D01*
X19938649Y-12345460D02*
X19938649Y-12154540D01*
X19747729Y-12154540D01*
X19747729Y-12345460D01*
X19938649Y-12345460D01*
D11*
X10208277Y-13013984D02*
X10208277Y-12813984D01*
X10208277Y-12813984D02*
X10255896Y-12813984D01*
X10255896Y-12813984D02*
X10284467Y-12823508D01*
X10284467Y-12823508D02*
X10303515Y-12842555D01*
X10303515Y-12842555D02*
X10313039Y-12861603D01*
X10313039Y-12861603D02*
X10322563Y-12899698D01*
X10322563Y-12899698D02*
X10322563Y-12928269D01*
X10322563Y-12928269D02*
X10313039Y-12966365D01*
X10313039Y-12966365D02*
X10303515Y-12985412D01*
X10303515Y-12985412D02*
X10284467Y-13004460D01*
X10284467Y-13004460D02*
X10255896Y-13013984D01*
X10255896Y-13013984D02*
X10208277Y-13013984D01*
X10408277Y-13013984D02*
X10408277Y-12880650D01*
X10408277Y-12918746D02*
X10417801Y-12899698D01*
X10417801Y-12899698D02*
X10427324Y-12890174D01*
X10427324Y-12890174D02*
X10446372Y-12880650D01*
X10446372Y-12880650D02*
X10465420Y-12880650D01*
X10532086Y-13013984D02*
X10532086Y-12880650D01*
X10532086Y-12813984D02*
X10522563Y-12823508D01*
X10522563Y-12823508D02*
X10532086Y-12833031D01*
X10532086Y-12833031D02*
X10541610Y-12823508D01*
X10541610Y-12823508D02*
X10532086Y-12813984D01*
X10532086Y-12813984D02*
X10532086Y-12833031D01*
X10655896Y-13013984D02*
X10636848Y-13004460D01*
X10636848Y-13004460D02*
X10627324Y-12985412D01*
X10627324Y-12985412D02*
X10627324Y-12813984D01*
X10760658Y-13013984D02*
X10741610Y-13004460D01*
X10741610Y-13004460D02*
X10732086Y-12985412D01*
X10732086Y-12985412D02*
X10732086Y-12813984D01*
X10989229Y-13013984D02*
X10989229Y-12813984D01*
X10989229Y-12813984D02*
X11055896Y-12956841D01*
X11055896Y-12956841D02*
X11122563Y-12813984D01*
X11122563Y-12813984D02*
X11122563Y-13013984D01*
X11303515Y-13013984D02*
X11303515Y-12909222D01*
X11303515Y-12909222D02*
X11293991Y-12890174D01*
X11293991Y-12890174D02*
X11274943Y-12880650D01*
X11274943Y-12880650D02*
X11236848Y-12880650D01*
X11236848Y-12880650D02*
X11217801Y-12890174D01*
X11303515Y-13004460D02*
X11284467Y-13013984D01*
X11284467Y-13013984D02*
X11236848Y-13013984D01*
X11236848Y-13013984D02*
X11217801Y-13004460D01*
X11217801Y-13004460D02*
X11208277Y-12985412D01*
X11208277Y-12985412D02*
X11208277Y-12966365D01*
X11208277Y-12966365D02*
X11217801Y-12947317D01*
X11217801Y-12947317D02*
X11236848Y-12937793D01*
X11236848Y-12937793D02*
X11284467Y-12937793D01*
X11284467Y-12937793D02*
X11303515Y-12928269D01*
X11398753Y-12880650D02*
X11398753Y-13080650D01*
X11398753Y-12890174D02*
X11417801Y-12880650D01*
X11417801Y-12880650D02*
X11455896Y-12880650D01*
X11455896Y-12880650D02*
X11474943Y-12890174D01*
X11474943Y-12890174D02*
X11484467Y-12899698D01*
X11484467Y-12899698D02*
X11493991Y-12918746D01*
X11493991Y-12918746D02*
X11493991Y-12975888D01*
X11493991Y-12975888D02*
X11484467Y-12994936D01*
X11484467Y-12994936D02*
X11474943Y-13004460D01*
X11474943Y-13004460D02*
X11455896Y-13013984D01*
X11455896Y-13013984D02*
X11417801Y-13013984D01*
X11417801Y-13013984D02*
X11398753Y-13004460D01*
X11579705Y-12994936D02*
X11589229Y-13004460D01*
X11589229Y-13004460D02*
X11579705Y-13013984D01*
X11579705Y-13013984D02*
X11570182Y-13004460D01*
X11570182Y-13004460D02*
X11579705Y-12994936D01*
X11579705Y-12994936D02*
X11579705Y-13013984D01*
X11579705Y-12890174D02*
X11589229Y-12899698D01*
X11589229Y-12899698D02*
X11579705Y-12909222D01*
X11579705Y-12909222D02*
X11570182Y-12899698D01*
X11570182Y-12899698D02*
X11579705Y-12890174D01*
X11579705Y-12890174D02*
X11579705Y-12909222D01*
D12*
X9917500Y-13327500D02*
X9947500Y-13357500D01*
X9947500Y-13327500D02*
X9917500Y-13357500D01*
D11*
X10246372Y-13233984D02*
X10265420Y-13233984D01*
X10265420Y-13233984D02*
X10284467Y-13243508D01*
X10284467Y-13243508D02*
X10293991Y-13253031D01*
X10293991Y-13253031D02*
X10303515Y-13272079D01*
X10303515Y-13272079D02*
X10313039Y-13310174D01*
X10313039Y-13310174D02*
X10313039Y-13357793D01*
X10313039Y-13357793D02*
X10303515Y-13395888D01*
X10303515Y-13395888D02*
X10293991Y-13414936D01*
X10293991Y-13414936D02*
X10284467Y-13424460D01*
X10284467Y-13424460D02*
X10265420Y-13433984D01*
X10265420Y-13433984D02*
X10246372Y-13433984D01*
X10246372Y-13433984D02*
X10227324Y-13424460D01*
X10227324Y-13424460D02*
X10217801Y-13414936D01*
X10217801Y-13414936D02*
X10208277Y-13395888D01*
X10208277Y-13395888D02*
X10198753Y-13357793D01*
X10198753Y-13357793D02*
X10198753Y-13310174D01*
X10198753Y-13310174D02*
X10208277Y-13272079D01*
X10208277Y-13272079D02*
X10217801Y-13253031D01*
X10217801Y-13253031D02*
X10227324Y-13243508D01*
X10227324Y-13243508D02*
X10246372Y-13233984D01*
X10398753Y-13414936D02*
X10408277Y-13424460D01*
X10408277Y-13424460D02*
X10398753Y-13433984D01*
X10398753Y-13433984D02*
X10389229Y-13424460D01*
X10389229Y-13424460D02*
X10398753Y-13414936D01*
X10398753Y-13414936D02*
X10398753Y-13433984D01*
X10474944Y-13233984D02*
X10598753Y-13233984D01*
X10598753Y-13233984D02*
X10532086Y-13310174D01*
X10532086Y-13310174D02*
X10560658Y-13310174D01*
X10560658Y-13310174D02*
X10579705Y-13319698D01*
X10579705Y-13319698D02*
X10589229Y-13329222D01*
X10589229Y-13329222D02*
X10598753Y-13348269D01*
X10598753Y-13348269D02*
X10598753Y-13395888D01*
X10598753Y-13395888D02*
X10589229Y-13414936D01*
X10589229Y-13414936D02*
X10579705Y-13424460D01*
X10579705Y-13424460D02*
X10560658Y-13433984D01*
X10560658Y-13433984D02*
X10503515Y-13433984D01*
X10503515Y-13433984D02*
X10484467Y-13424460D01*
X10484467Y-13424460D02*
X10474944Y-13414936D01*
X10722563Y-13233984D02*
X10741610Y-13233984D01*
X10741610Y-13233984D02*
X10760658Y-13243508D01*
X10760658Y-13243508D02*
X10770182Y-13253031D01*
X10770182Y-13253031D02*
X10779705Y-13272079D01*
X10779705Y-13272079D02*
X10789229Y-13310174D01*
X10789229Y-13310174D02*
X10789229Y-13357793D01*
X10789229Y-13357793D02*
X10779705Y-13395888D01*
X10779705Y-13395888D02*
X10770182Y-13414936D01*
X10770182Y-13414936D02*
X10760658Y-13424460D01*
X10760658Y-13424460D02*
X10741610Y-13433984D01*
X10741610Y-13433984D02*
X10722563Y-13433984D01*
X10722563Y-13433984D02*
X10703515Y-13424460D01*
X10703515Y-13424460D02*
X10693991Y-13414936D01*
X10693991Y-13414936D02*
X10684467Y-13395888D01*
X10684467Y-13395888D02*
X10674944Y-13357793D01*
X10674944Y-13357793D02*
X10674944Y-13310174D01*
X10674944Y-13310174D02*
X10684467Y-13272079D01*
X10684467Y-13272079D02*
X10693991Y-13253031D01*
X10693991Y-13253031D02*
X10703515Y-13243508D01*
X10703515Y-13243508D02*
X10722563Y-13233984D01*
X10913039Y-13233984D02*
X10932086Y-13233984D01*
X10932086Y-13233984D02*
X10951134Y-13243508D01*
X10951134Y-13243508D02*
X10960658Y-13253031D01*
X10960658Y-13253031D02*
X10970182Y-13272079D01*
X10970182Y-13272079D02*
X10979705Y-13310174D01*
X10979705Y-13310174D02*
X10979705Y-13357793D01*
X10979705Y-13357793D02*
X10970182Y-13395888D01*
X10970182Y-13395888D02*
X10960658Y-13414936D01*
X10960658Y-13414936D02*
X10951134Y-13424460D01*
X10951134Y-13424460D02*
X10932086Y-13433984D01*
X10932086Y-13433984D02*
X10913039Y-13433984D01*
X10913039Y-13433984D02*
X10893991Y-13424460D01*
X10893991Y-13424460D02*
X10884467Y-13414936D01*
X10884467Y-13414936D02*
X10874944Y-13395888D01*
X10874944Y-13395888D02*
X10865420Y-13357793D01*
X10865420Y-13357793D02*
X10865420Y-13310174D01*
X10865420Y-13310174D02*
X10874944Y-13272079D01*
X10874944Y-13272079D02*
X10884467Y-13253031D01*
X10884467Y-13253031D02*
X10893991Y-13243508D01*
X10893991Y-13243508D02*
X10913039Y-13233984D01*
X11065420Y-13433984D02*
X11065420Y-13300650D01*
X11065420Y-13319698D02*
X11074944Y-13310174D01*
X11074944Y-13310174D02*
X11093991Y-13300650D01*
X11093991Y-13300650D02*
X11122563Y-13300650D01*
X11122563Y-13300650D02*
X11141610Y-13310174D01*
X11141610Y-13310174D02*
X11151134Y-13329222D01*
X11151134Y-13329222D02*
X11151134Y-13433984D01*
X11151134Y-13329222D02*
X11160658Y-13310174D01*
X11160658Y-13310174D02*
X11179705Y-13300650D01*
X11179705Y-13300650D02*
X11208277Y-13300650D01*
X11208277Y-13300650D02*
X11227324Y-13310174D01*
X11227324Y-13310174D02*
X11236848Y-13329222D01*
X11236848Y-13329222D02*
X11236848Y-13433984D01*
X11332086Y-13433984D02*
X11332086Y-13300650D01*
X11332086Y-13319698D02*
X11341610Y-13310174D01*
X11341610Y-13310174D02*
X11360658Y-13300650D01*
X11360658Y-13300650D02*
X11389229Y-13300650D01*
X11389229Y-13300650D02*
X11408277Y-13310174D01*
X11408277Y-13310174D02*
X11417801Y-13329222D01*
X11417801Y-13329222D02*
X11417801Y-13433984D01*
X11417801Y-13329222D02*
X11427324Y-13310174D01*
X11427324Y-13310174D02*
X11446372Y-13300650D01*
X11446372Y-13300650D02*
X11474943Y-13300650D01*
X11474943Y-13300650D02*
X11493991Y-13310174D01*
X11493991Y-13310174D02*
X11503515Y-13329222D01*
X11503515Y-13329222D02*
X11503515Y-13433984D01*
X11893991Y-13224460D02*
X11722563Y-13481603D01*
X12151134Y-13233984D02*
X12170182Y-13233984D01*
X12170182Y-13233984D02*
X12189229Y-13243508D01*
X12189229Y-13243508D02*
X12198753Y-13253031D01*
X12198753Y-13253031D02*
X12208277Y-13272079D01*
X12208277Y-13272079D02*
X12217801Y-13310174D01*
X12217801Y-13310174D02*
X12217801Y-13357793D01*
X12217801Y-13357793D02*
X12208277Y-13395888D01*
X12208277Y-13395888D02*
X12198753Y-13414936D01*
X12198753Y-13414936D02*
X12189229Y-13424460D01*
X12189229Y-13424460D02*
X12170182Y-13433984D01*
X12170182Y-13433984D02*
X12151134Y-13433984D01*
X12151134Y-13433984D02*
X12132086Y-13424460D01*
X12132086Y-13424460D02*
X12122563Y-13414936D01*
X12122563Y-13414936D02*
X12113039Y-13395888D01*
X12113039Y-13395888D02*
X12103515Y-13357793D01*
X12103515Y-13357793D02*
X12103515Y-13310174D01*
X12103515Y-13310174D02*
X12113039Y-13272079D01*
X12113039Y-13272079D02*
X12122563Y-13253031D01*
X12122563Y-13253031D02*
X12132086Y-13243508D01*
X12132086Y-13243508D02*
X12151134Y-13233984D01*
X12303515Y-13414936D02*
X12313039Y-13424460D01*
X12313039Y-13424460D02*
X12303515Y-13433984D01*
X12303515Y-13433984D02*
X12293991Y-13424460D01*
X12293991Y-13424460D02*
X12303515Y-13414936D01*
X12303515Y-13414936D02*
X12303515Y-13433984D01*
X12436848Y-13233984D02*
X12455896Y-13233984D01*
X12455896Y-13233984D02*
X12474944Y-13243508D01*
X12474944Y-13243508D02*
X12484467Y-13253031D01*
X12484467Y-13253031D02*
X12493991Y-13272079D01*
X12493991Y-13272079D02*
X12503515Y-13310174D01*
X12503515Y-13310174D02*
X12503515Y-13357793D01*
X12503515Y-13357793D02*
X12493991Y-13395888D01*
X12493991Y-13395888D02*
X12484467Y-13414936D01*
X12484467Y-13414936D02*
X12474944Y-13424460D01*
X12474944Y-13424460D02*
X12455896Y-13433984D01*
X12455896Y-13433984D02*
X12436848Y-13433984D01*
X12436848Y-13433984D02*
X12417801Y-13424460D01*
X12417801Y-13424460D02*
X12408277Y-13414936D01*
X12408277Y-13414936D02*
X12398753Y-13395888D01*
X12398753Y-13395888D02*
X12389229Y-13357793D01*
X12389229Y-13357793D02*
X12389229Y-13310174D01*
X12389229Y-13310174D02*
X12398753Y-13272079D01*
X12398753Y-13272079D02*
X12408277Y-13253031D01*
X12408277Y-13253031D02*
X12417801Y-13243508D01*
X12417801Y-13243508D02*
X12436848Y-13233984D01*
X12693991Y-13433984D02*
X12579706Y-13433984D01*
X12636848Y-13433984D02*
X12636848Y-13233984D01*
X12636848Y-13233984D02*
X12617801Y-13262555D01*
X12617801Y-13262555D02*
X12598753Y-13281603D01*
X12598753Y-13281603D02*
X12579706Y-13291127D01*
X12884467Y-13433984D02*
X12770182Y-13433984D01*
X12827325Y-13433984D02*
X12827325Y-13233984D01*
X12827325Y-13233984D02*
X12808277Y-13262555D01*
X12808277Y-13262555D02*
X12789229Y-13281603D01*
X12789229Y-13281603D02*
X12770182Y-13291127D01*
X12998753Y-13319698D02*
X12979706Y-13310174D01*
X12979706Y-13310174D02*
X12970182Y-13300650D01*
X12970182Y-13300650D02*
X12960658Y-13281603D01*
X12960658Y-13281603D02*
X12960658Y-13272079D01*
X12960658Y-13272079D02*
X12970182Y-13253031D01*
X12970182Y-13253031D02*
X12979706Y-13243508D01*
X12979706Y-13243508D02*
X12998753Y-13233984D01*
X12998753Y-13233984D02*
X13036848Y-13233984D01*
X13036848Y-13233984D02*
X13055896Y-13243508D01*
X13055896Y-13243508D02*
X13065420Y-13253031D01*
X13065420Y-13253031D02*
X13074944Y-13272079D01*
X13074944Y-13272079D02*
X13074944Y-13281603D01*
X13074944Y-13281603D02*
X13065420Y-13300650D01*
X13065420Y-13300650D02*
X13055896Y-13310174D01*
X13055896Y-13310174D02*
X13036848Y-13319698D01*
X13036848Y-13319698D02*
X12998753Y-13319698D01*
X12998753Y-13319698D02*
X12979706Y-13329222D01*
X12979706Y-13329222D02*
X12970182Y-13338746D01*
X12970182Y-13338746D02*
X12960658Y-13357793D01*
X12960658Y-13357793D02*
X12960658Y-13395888D01*
X12960658Y-13395888D02*
X12970182Y-13414936D01*
X12970182Y-13414936D02*
X12979706Y-13424460D01*
X12979706Y-13424460D02*
X12998753Y-13433984D01*
X12998753Y-13433984D02*
X13036848Y-13433984D01*
X13036848Y-13433984D02*
X13055896Y-13424460D01*
X13055896Y-13424460D02*
X13065420Y-13414936D01*
X13065420Y-13414936D02*
X13074944Y-13395888D01*
X13074944Y-13395888D02*
X13074944Y-13357793D01*
X13074944Y-13357793D02*
X13065420Y-13338746D01*
X13065420Y-13338746D02*
X13055896Y-13329222D01*
X13055896Y-13329222D02*
X13036848Y-13319698D01*
X13151134Y-13233984D02*
X13151134Y-13272079D01*
X13227325Y-13233984D02*
X13227325Y-13272079D01*
X13522563Y-13510174D02*
X13513039Y-13500650D01*
X13513039Y-13500650D02*
X13493991Y-13472079D01*
X13493991Y-13472079D02*
X13484468Y-13453031D01*
X13484468Y-13453031D02*
X13474944Y-13424460D01*
X13474944Y-13424460D02*
X13465420Y-13376841D01*
X13465420Y-13376841D02*
X13465420Y-13338746D01*
X13465420Y-13338746D02*
X13474944Y-13291127D01*
X13474944Y-13291127D02*
X13484468Y-13262555D01*
X13484468Y-13262555D02*
X13493991Y-13243508D01*
X13493991Y-13243508D02*
X13513039Y-13214936D01*
X13513039Y-13214936D02*
X13522563Y-13205412D01*
X13589229Y-13253031D02*
X13598753Y-13243508D01*
X13598753Y-13243508D02*
X13617801Y-13233984D01*
X13617801Y-13233984D02*
X13665420Y-13233984D01*
X13665420Y-13233984D02*
X13684468Y-13243508D01*
X13684468Y-13243508D02*
X13693991Y-13253031D01*
X13693991Y-13253031D02*
X13703515Y-13272079D01*
X13703515Y-13272079D02*
X13703515Y-13291127D01*
X13703515Y-13291127D02*
X13693991Y-13319698D01*
X13693991Y-13319698D02*
X13579706Y-13433984D01*
X13579706Y-13433984D02*
X13703515Y-13433984D01*
X13941610Y-13433984D02*
X13941610Y-13233984D01*
X14027325Y-13433984D02*
X14027325Y-13329222D01*
X14027325Y-13329222D02*
X14017801Y-13310174D01*
X14017801Y-13310174D02*
X13998753Y-13300650D01*
X13998753Y-13300650D02*
X13970182Y-13300650D01*
X13970182Y-13300650D02*
X13951134Y-13310174D01*
X13951134Y-13310174D02*
X13941610Y-13319698D01*
X14151134Y-13433984D02*
X14132087Y-13424460D01*
X14132087Y-13424460D02*
X14122563Y-13414936D01*
X14122563Y-13414936D02*
X14113039Y-13395888D01*
X14113039Y-13395888D02*
X14113039Y-13338746D01*
X14113039Y-13338746D02*
X14122563Y-13319698D01*
X14122563Y-13319698D02*
X14132087Y-13310174D01*
X14132087Y-13310174D02*
X14151134Y-13300650D01*
X14151134Y-13300650D02*
X14179706Y-13300650D01*
X14179706Y-13300650D02*
X14198753Y-13310174D01*
X14198753Y-13310174D02*
X14208277Y-13319698D01*
X14208277Y-13319698D02*
X14217801Y-13338746D01*
X14217801Y-13338746D02*
X14217801Y-13395888D01*
X14217801Y-13395888D02*
X14208277Y-13414936D01*
X14208277Y-13414936D02*
X14198753Y-13424460D01*
X14198753Y-13424460D02*
X14179706Y-13433984D01*
X14179706Y-13433984D02*
X14151134Y-13433984D01*
X14332087Y-13433984D02*
X14313039Y-13424460D01*
X14313039Y-13424460D02*
X14303515Y-13405412D01*
X14303515Y-13405412D02*
X14303515Y-13233984D01*
X14484468Y-13424460D02*
X14465420Y-13433984D01*
X14465420Y-13433984D02*
X14427325Y-13433984D01*
X14427325Y-13433984D02*
X14408277Y-13424460D01*
X14408277Y-13424460D02*
X14398753Y-13405412D01*
X14398753Y-13405412D02*
X14398753Y-13329222D01*
X14398753Y-13329222D02*
X14408277Y-13310174D01*
X14408277Y-13310174D02*
X14427325Y-13300650D01*
X14427325Y-13300650D02*
X14465420Y-13300650D01*
X14465420Y-13300650D02*
X14484468Y-13310174D01*
X14484468Y-13310174D02*
X14493991Y-13329222D01*
X14493991Y-13329222D02*
X14493991Y-13348269D01*
X14493991Y-13348269D02*
X14398753Y-13367317D01*
X14570182Y-13424460D02*
X14589230Y-13433984D01*
X14589230Y-13433984D02*
X14627325Y-13433984D01*
X14627325Y-13433984D02*
X14646372Y-13424460D01*
X14646372Y-13424460D02*
X14655896Y-13405412D01*
X14655896Y-13405412D02*
X14655896Y-13395888D01*
X14655896Y-13395888D02*
X14646372Y-13376841D01*
X14646372Y-13376841D02*
X14627325Y-13367317D01*
X14627325Y-13367317D02*
X14598753Y-13367317D01*
X14598753Y-13367317D02*
X14579706Y-13357793D01*
X14579706Y-13357793D02*
X14570182Y-13338746D01*
X14570182Y-13338746D02*
X14570182Y-13329222D01*
X14570182Y-13329222D02*
X14579706Y-13310174D01*
X14579706Y-13310174D02*
X14598753Y-13300650D01*
X14598753Y-13300650D02*
X14627325Y-13300650D01*
X14627325Y-13300650D02*
X14646372Y-13310174D01*
X14722563Y-13510174D02*
X14732087Y-13500650D01*
X14732087Y-13500650D02*
X14751134Y-13472079D01*
X14751134Y-13472079D02*
X14760658Y-13453031D01*
X14760658Y-13453031D02*
X14770182Y-13424460D01*
X14770182Y-13424460D02*
X14779706Y-13376841D01*
X14779706Y-13376841D02*
X14779706Y-13338746D01*
X14779706Y-13338746D02*
X14770182Y-13291127D01*
X14770182Y-13291127D02*
X14760658Y-13262555D01*
X14760658Y-13262555D02*
X14751134Y-13243508D01*
X14751134Y-13243508D02*
X14732087Y-13214936D01*
X14732087Y-13214936D02*
X14722563Y-13205412D01*
D12*
X9947500Y-13606500D02*
G75*
G02*
X9897500Y-13606500I-25000J0D01*
G01*
X9897500Y-13606500D02*
G75*
G02*
X9947500Y-13606500I25000J0D01*
G01*
D11*
X10246372Y-13497984D02*
X10265420Y-13497984D01*
X10265420Y-13497984D02*
X10284467Y-13507508D01*
X10284467Y-13507508D02*
X10293991Y-13517031D01*
X10293991Y-13517031D02*
X10303515Y-13536079D01*
X10303515Y-13536079D02*
X10313039Y-13574174D01*
X10313039Y-13574174D02*
X10313039Y-13621793D01*
X10313039Y-13621793D02*
X10303515Y-13659888D01*
X10303515Y-13659888D02*
X10293991Y-13678936D01*
X10293991Y-13678936D02*
X10284467Y-13688460D01*
X10284467Y-13688460D02*
X10265420Y-13697984D01*
X10265420Y-13697984D02*
X10246372Y-13697984D01*
X10246372Y-13697984D02*
X10227324Y-13688460D01*
X10227324Y-13688460D02*
X10217801Y-13678936D01*
X10217801Y-13678936D02*
X10208277Y-13659888D01*
X10208277Y-13659888D02*
X10198753Y-13621793D01*
X10198753Y-13621793D02*
X10198753Y-13574174D01*
X10198753Y-13574174D02*
X10208277Y-13536079D01*
X10208277Y-13536079D02*
X10217801Y-13517031D01*
X10217801Y-13517031D02*
X10227324Y-13507508D01*
X10227324Y-13507508D02*
X10246372Y-13497984D01*
X10398753Y-13678936D02*
X10408277Y-13688460D01*
X10408277Y-13688460D02*
X10398753Y-13697984D01*
X10398753Y-13697984D02*
X10389229Y-13688460D01*
X10389229Y-13688460D02*
X10398753Y-13678936D01*
X10398753Y-13678936D02*
X10398753Y-13697984D01*
X10589229Y-13497984D02*
X10493991Y-13497984D01*
X10493991Y-13497984D02*
X10484467Y-13593222D01*
X10484467Y-13593222D02*
X10493991Y-13583698D01*
X10493991Y-13583698D02*
X10513039Y-13574174D01*
X10513039Y-13574174D02*
X10560658Y-13574174D01*
X10560658Y-13574174D02*
X10579705Y-13583698D01*
X10579705Y-13583698D02*
X10589229Y-13593222D01*
X10589229Y-13593222D02*
X10598753Y-13612269D01*
X10598753Y-13612269D02*
X10598753Y-13659888D01*
X10598753Y-13659888D02*
X10589229Y-13678936D01*
X10589229Y-13678936D02*
X10579705Y-13688460D01*
X10579705Y-13688460D02*
X10560658Y-13697984D01*
X10560658Y-13697984D02*
X10513039Y-13697984D01*
X10513039Y-13697984D02*
X10493991Y-13688460D01*
X10493991Y-13688460D02*
X10484467Y-13678936D01*
X10722563Y-13497984D02*
X10741610Y-13497984D01*
X10741610Y-13497984D02*
X10760658Y-13507508D01*
X10760658Y-13507508D02*
X10770182Y-13517031D01*
X10770182Y-13517031D02*
X10779705Y-13536079D01*
X10779705Y-13536079D02*
X10789229Y-13574174D01*
X10789229Y-13574174D02*
X10789229Y-13621793D01*
X10789229Y-13621793D02*
X10779705Y-13659888D01*
X10779705Y-13659888D02*
X10770182Y-13678936D01*
X10770182Y-13678936D02*
X10760658Y-13688460D01*
X10760658Y-13688460D02*
X10741610Y-13697984D01*
X10741610Y-13697984D02*
X10722563Y-13697984D01*
X10722563Y-13697984D02*
X10703515Y-13688460D01*
X10703515Y-13688460D02*
X10693991Y-13678936D01*
X10693991Y-13678936D02*
X10684467Y-13659888D01*
X10684467Y-13659888D02*
X10674944Y-13621793D01*
X10674944Y-13621793D02*
X10674944Y-13574174D01*
X10674944Y-13574174D02*
X10684467Y-13536079D01*
X10684467Y-13536079D02*
X10693991Y-13517031D01*
X10693991Y-13517031D02*
X10703515Y-13507508D01*
X10703515Y-13507508D02*
X10722563Y-13497984D01*
X10913039Y-13497984D02*
X10932086Y-13497984D01*
X10932086Y-13497984D02*
X10951134Y-13507508D01*
X10951134Y-13507508D02*
X10960658Y-13517031D01*
X10960658Y-13517031D02*
X10970182Y-13536079D01*
X10970182Y-13536079D02*
X10979705Y-13574174D01*
X10979705Y-13574174D02*
X10979705Y-13621793D01*
X10979705Y-13621793D02*
X10970182Y-13659888D01*
X10970182Y-13659888D02*
X10960658Y-13678936D01*
X10960658Y-13678936D02*
X10951134Y-13688460D01*
X10951134Y-13688460D02*
X10932086Y-13697984D01*
X10932086Y-13697984D02*
X10913039Y-13697984D01*
X10913039Y-13697984D02*
X10893991Y-13688460D01*
X10893991Y-13688460D02*
X10884467Y-13678936D01*
X10884467Y-13678936D02*
X10874944Y-13659888D01*
X10874944Y-13659888D02*
X10865420Y-13621793D01*
X10865420Y-13621793D02*
X10865420Y-13574174D01*
X10865420Y-13574174D02*
X10874944Y-13536079D01*
X10874944Y-13536079D02*
X10884467Y-13517031D01*
X10884467Y-13517031D02*
X10893991Y-13507508D01*
X10893991Y-13507508D02*
X10913039Y-13497984D01*
X11065420Y-13697984D02*
X11065420Y-13564650D01*
X11065420Y-13583698D02*
X11074944Y-13574174D01*
X11074944Y-13574174D02*
X11093991Y-13564650D01*
X11093991Y-13564650D02*
X11122563Y-13564650D01*
X11122563Y-13564650D02*
X11141610Y-13574174D01*
X11141610Y-13574174D02*
X11151134Y-13593222D01*
X11151134Y-13593222D02*
X11151134Y-13697984D01*
X11151134Y-13593222D02*
X11160658Y-13574174D01*
X11160658Y-13574174D02*
X11179705Y-13564650D01*
X11179705Y-13564650D02*
X11208277Y-13564650D01*
X11208277Y-13564650D02*
X11227324Y-13574174D01*
X11227324Y-13574174D02*
X11236848Y-13593222D01*
X11236848Y-13593222D02*
X11236848Y-13697984D01*
X11332086Y-13697984D02*
X11332086Y-13564650D01*
X11332086Y-13583698D02*
X11341610Y-13574174D01*
X11341610Y-13574174D02*
X11360658Y-13564650D01*
X11360658Y-13564650D02*
X11389229Y-13564650D01*
X11389229Y-13564650D02*
X11408277Y-13574174D01*
X11408277Y-13574174D02*
X11417801Y-13593222D01*
X11417801Y-13593222D02*
X11417801Y-13697984D01*
X11417801Y-13593222D02*
X11427324Y-13574174D01*
X11427324Y-13574174D02*
X11446372Y-13564650D01*
X11446372Y-13564650D02*
X11474943Y-13564650D01*
X11474943Y-13564650D02*
X11493991Y-13574174D01*
X11493991Y-13574174D02*
X11503515Y-13593222D01*
X11503515Y-13593222D02*
X11503515Y-13697984D01*
X11893991Y-13488460D02*
X11722563Y-13745603D01*
X12151134Y-13497984D02*
X12170182Y-13497984D01*
X12170182Y-13497984D02*
X12189229Y-13507508D01*
X12189229Y-13507508D02*
X12198753Y-13517031D01*
X12198753Y-13517031D02*
X12208277Y-13536079D01*
X12208277Y-13536079D02*
X12217801Y-13574174D01*
X12217801Y-13574174D02*
X12217801Y-13621793D01*
X12217801Y-13621793D02*
X12208277Y-13659888D01*
X12208277Y-13659888D02*
X12198753Y-13678936D01*
X12198753Y-13678936D02*
X12189229Y-13688460D01*
X12189229Y-13688460D02*
X12170182Y-13697984D01*
X12170182Y-13697984D02*
X12151134Y-13697984D01*
X12151134Y-13697984D02*
X12132086Y-13688460D01*
X12132086Y-13688460D02*
X12122563Y-13678936D01*
X12122563Y-13678936D02*
X12113039Y-13659888D01*
X12113039Y-13659888D02*
X12103515Y-13621793D01*
X12103515Y-13621793D02*
X12103515Y-13574174D01*
X12103515Y-13574174D02*
X12113039Y-13536079D01*
X12113039Y-13536079D02*
X12122563Y-13517031D01*
X12122563Y-13517031D02*
X12132086Y-13507508D01*
X12132086Y-13507508D02*
X12151134Y-13497984D01*
X12303515Y-13678936D02*
X12313039Y-13688460D01*
X12313039Y-13688460D02*
X12303515Y-13697984D01*
X12303515Y-13697984D02*
X12293991Y-13688460D01*
X12293991Y-13688460D02*
X12303515Y-13678936D01*
X12303515Y-13678936D02*
X12303515Y-13697984D01*
X12436848Y-13497984D02*
X12455896Y-13497984D01*
X12455896Y-13497984D02*
X12474944Y-13507508D01*
X12474944Y-13507508D02*
X12484467Y-13517031D01*
X12484467Y-13517031D02*
X12493991Y-13536079D01*
X12493991Y-13536079D02*
X12503515Y-13574174D01*
X12503515Y-13574174D02*
X12503515Y-13621793D01*
X12503515Y-13621793D02*
X12493991Y-13659888D01*
X12493991Y-13659888D02*
X12484467Y-13678936D01*
X12484467Y-13678936D02*
X12474944Y-13688460D01*
X12474944Y-13688460D02*
X12455896Y-13697984D01*
X12455896Y-13697984D02*
X12436848Y-13697984D01*
X12436848Y-13697984D02*
X12417801Y-13688460D01*
X12417801Y-13688460D02*
X12408277Y-13678936D01*
X12408277Y-13678936D02*
X12398753Y-13659888D01*
X12398753Y-13659888D02*
X12389229Y-13621793D01*
X12389229Y-13621793D02*
X12389229Y-13574174D01*
X12389229Y-13574174D02*
X12398753Y-13536079D01*
X12398753Y-13536079D02*
X12408277Y-13517031D01*
X12408277Y-13517031D02*
X12417801Y-13507508D01*
X12417801Y-13507508D02*
X12436848Y-13497984D01*
X12693991Y-13697984D02*
X12579706Y-13697984D01*
X12636848Y-13697984D02*
X12636848Y-13497984D01*
X12636848Y-13497984D02*
X12617801Y-13526555D01*
X12617801Y-13526555D02*
X12598753Y-13545603D01*
X12598753Y-13545603D02*
X12579706Y-13555127D01*
X12789229Y-13697984D02*
X12827325Y-13697984D01*
X12827325Y-13697984D02*
X12846372Y-13688460D01*
X12846372Y-13688460D02*
X12855896Y-13678936D01*
X12855896Y-13678936D02*
X12874944Y-13650365D01*
X12874944Y-13650365D02*
X12884467Y-13612269D01*
X12884467Y-13612269D02*
X12884467Y-13536079D01*
X12884467Y-13536079D02*
X12874944Y-13517031D01*
X12874944Y-13517031D02*
X12865420Y-13507508D01*
X12865420Y-13507508D02*
X12846372Y-13497984D01*
X12846372Y-13497984D02*
X12808277Y-13497984D01*
X12808277Y-13497984D02*
X12789229Y-13507508D01*
X12789229Y-13507508D02*
X12779706Y-13517031D01*
X12779706Y-13517031D02*
X12770182Y-13536079D01*
X12770182Y-13536079D02*
X12770182Y-13583698D01*
X12770182Y-13583698D02*
X12779706Y-13602746D01*
X12779706Y-13602746D02*
X12789229Y-13612269D01*
X12789229Y-13612269D02*
X12808277Y-13621793D01*
X12808277Y-13621793D02*
X12846372Y-13621793D01*
X12846372Y-13621793D02*
X12865420Y-13612269D01*
X12865420Y-13612269D02*
X12874944Y-13602746D01*
X12874944Y-13602746D02*
X12884467Y-13583698D01*
X12951134Y-13497984D02*
X13084467Y-13497984D01*
X13084467Y-13497984D02*
X12998753Y-13697984D01*
X13151134Y-13497984D02*
X13151134Y-13536079D01*
X13227325Y-13497984D02*
X13227325Y-13536079D01*
X13522563Y-13774174D02*
X13513039Y-13764650D01*
X13513039Y-13764650D02*
X13493991Y-13736079D01*
X13493991Y-13736079D02*
X13484468Y-13717031D01*
X13484468Y-13717031D02*
X13474944Y-13688460D01*
X13474944Y-13688460D02*
X13465420Y-13640841D01*
X13465420Y-13640841D02*
X13465420Y-13602746D01*
X13465420Y-13602746D02*
X13474944Y-13555127D01*
X13474944Y-13555127D02*
X13484468Y-13526555D01*
X13484468Y-13526555D02*
X13493991Y-13507508D01*
X13493991Y-13507508D02*
X13513039Y-13478936D01*
X13513039Y-13478936D02*
X13522563Y-13469412D01*
X13579706Y-13497984D02*
X13703515Y-13497984D01*
X13703515Y-13497984D02*
X13636848Y-13574174D01*
X13636848Y-13574174D02*
X13665420Y-13574174D01*
X13665420Y-13574174D02*
X13684468Y-13583698D01*
X13684468Y-13583698D02*
X13693991Y-13593222D01*
X13693991Y-13593222D02*
X13703515Y-13612269D01*
X13703515Y-13612269D02*
X13703515Y-13659888D01*
X13703515Y-13659888D02*
X13693991Y-13678936D01*
X13693991Y-13678936D02*
X13684468Y-13688460D01*
X13684468Y-13688460D02*
X13665420Y-13697984D01*
X13665420Y-13697984D02*
X13608277Y-13697984D01*
X13608277Y-13697984D02*
X13589229Y-13688460D01*
X13589229Y-13688460D02*
X13579706Y-13678936D01*
X13779706Y-13517031D02*
X13789229Y-13507508D01*
X13789229Y-13507508D02*
X13808277Y-13497984D01*
X13808277Y-13497984D02*
X13855896Y-13497984D01*
X13855896Y-13497984D02*
X13874944Y-13507508D01*
X13874944Y-13507508D02*
X13884468Y-13517031D01*
X13884468Y-13517031D02*
X13893991Y-13536079D01*
X13893991Y-13536079D02*
X13893991Y-13555127D01*
X13893991Y-13555127D02*
X13884468Y-13583698D01*
X13884468Y-13583698D02*
X13770182Y-13697984D01*
X13770182Y-13697984D02*
X13893991Y-13697984D01*
X14132087Y-13697984D02*
X14132087Y-13497984D01*
X14217801Y-13697984D02*
X14217801Y-13593222D01*
X14217801Y-13593222D02*
X14208277Y-13574174D01*
X14208277Y-13574174D02*
X14189230Y-13564650D01*
X14189230Y-13564650D02*
X14160658Y-13564650D01*
X14160658Y-13564650D02*
X14141610Y-13574174D01*
X14141610Y-13574174D02*
X14132087Y-13583698D01*
X14341610Y-13697984D02*
X14322563Y-13688460D01*
X14322563Y-13688460D02*
X14313039Y-13678936D01*
X14313039Y-13678936D02*
X14303515Y-13659888D01*
X14303515Y-13659888D02*
X14303515Y-13602746D01*
X14303515Y-13602746D02*
X14313039Y-13583698D01*
X14313039Y-13583698D02*
X14322563Y-13574174D01*
X14322563Y-13574174D02*
X14341610Y-13564650D01*
X14341610Y-13564650D02*
X14370182Y-13564650D01*
X14370182Y-13564650D02*
X14389230Y-13574174D01*
X14389230Y-13574174D02*
X14398753Y-13583698D01*
X14398753Y-13583698D02*
X14408277Y-13602746D01*
X14408277Y-13602746D02*
X14408277Y-13659888D01*
X14408277Y-13659888D02*
X14398753Y-13678936D01*
X14398753Y-13678936D02*
X14389230Y-13688460D01*
X14389230Y-13688460D02*
X14370182Y-13697984D01*
X14370182Y-13697984D02*
X14341610Y-13697984D01*
X14522563Y-13697984D02*
X14503515Y-13688460D01*
X14503515Y-13688460D02*
X14493991Y-13669412D01*
X14493991Y-13669412D02*
X14493991Y-13497984D01*
X14674944Y-13688460D02*
X14655896Y-13697984D01*
X14655896Y-13697984D02*
X14617801Y-13697984D01*
X14617801Y-13697984D02*
X14598753Y-13688460D01*
X14598753Y-13688460D02*
X14589230Y-13669412D01*
X14589230Y-13669412D02*
X14589230Y-13593222D01*
X14589230Y-13593222D02*
X14598753Y-13574174D01*
X14598753Y-13574174D02*
X14617801Y-13564650D01*
X14617801Y-13564650D02*
X14655896Y-13564650D01*
X14655896Y-13564650D02*
X14674944Y-13574174D01*
X14674944Y-13574174D02*
X14684468Y-13593222D01*
X14684468Y-13593222D02*
X14684468Y-13612269D01*
X14684468Y-13612269D02*
X14589230Y-13631317D01*
X14760658Y-13688460D02*
X14779706Y-13697984D01*
X14779706Y-13697984D02*
X14817801Y-13697984D01*
X14817801Y-13697984D02*
X14836849Y-13688460D01*
X14836849Y-13688460D02*
X14846372Y-13669412D01*
X14846372Y-13669412D02*
X14846372Y-13659888D01*
X14846372Y-13659888D02*
X14836849Y-13640841D01*
X14836849Y-13640841D02*
X14817801Y-13631317D01*
X14817801Y-13631317D02*
X14789230Y-13631317D01*
X14789230Y-13631317D02*
X14770182Y-13621793D01*
X14770182Y-13621793D02*
X14760658Y-13602746D01*
X14760658Y-13602746D02*
X14760658Y-13593222D01*
X14760658Y-13593222D02*
X14770182Y-13574174D01*
X14770182Y-13574174D02*
X14789230Y-13564650D01*
X14789230Y-13564650D02*
X14817801Y-13564650D01*
X14817801Y-13564650D02*
X14836849Y-13574174D01*
X14913039Y-13774174D02*
X14922563Y-13764650D01*
X14922563Y-13764650D02*
X14941611Y-13736079D01*
X14941611Y-13736079D02*
X14951134Y-13717031D01*
X14951134Y-13717031D02*
X14960658Y-13688460D01*
X14960658Y-13688460D02*
X14970182Y-13640841D01*
X14970182Y-13640841D02*
X14970182Y-13602746D01*
X14970182Y-13602746D02*
X14960658Y-13555127D01*
X14960658Y-13555127D02*
X14951134Y-13526555D01*
X14951134Y-13526555D02*
X14941611Y-13507508D01*
X14941611Y-13507508D02*
X14922563Y-13478936D01*
X14922563Y-13478936D02*
X14913039Y-13469412D01*
D12*
X9917500Y-13840500D02*
X9917500Y-13900500D01*
X9887500Y-13870500D02*
X9947500Y-13870500D01*
D11*
X10246372Y-13761984D02*
X10265420Y-13761984D01*
X10265420Y-13761984D02*
X10284467Y-13771508D01*
X10284467Y-13771508D02*
X10293991Y-13781031D01*
X10293991Y-13781031D02*
X10303515Y-13800079D01*
X10303515Y-13800079D02*
X10313039Y-13838174D01*
X10313039Y-13838174D02*
X10313039Y-13885793D01*
X10313039Y-13885793D02*
X10303515Y-13923888D01*
X10303515Y-13923888D02*
X10293991Y-13942936D01*
X10293991Y-13942936D02*
X10284467Y-13952460D01*
X10284467Y-13952460D02*
X10265420Y-13961984D01*
X10265420Y-13961984D02*
X10246372Y-13961984D01*
X10246372Y-13961984D02*
X10227324Y-13952460D01*
X10227324Y-13952460D02*
X10217801Y-13942936D01*
X10217801Y-13942936D02*
X10208277Y-13923888D01*
X10208277Y-13923888D02*
X10198753Y-13885793D01*
X10198753Y-13885793D02*
X10198753Y-13838174D01*
X10198753Y-13838174D02*
X10208277Y-13800079D01*
X10208277Y-13800079D02*
X10217801Y-13781031D01*
X10217801Y-13781031D02*
X10227324Y-13771508D01*
X10227324Y-13771508D02*
X10246372Y-13761984D01*
X10398753Y-13942936D02*
X10408277Y-13952460D01*
X10408277Y-13952460D02*
X10398753Y-13961984D01*
X10398753Y-13961984D02*
X10389229Y-13952460D01*
X10389229Y-13952460D02*
X10398753Y-13942936D01*
X10398753Y-13942936D02*
X10398753Y-13961984D01*
X10579705Y-13761984D02*
X10541610Y-13761984D01*
X10541610Y-13761984D02*
X10522563Y-13771508D01*
X10522563Y-13771508D02*
X10513039Y-13781031D01*
X10513039Y-13781031D02*
X10493991Y-13809603D01*
X10493991Y-13809603D02*
X10484467Y-13847698D01*
X10484467Y-13847698D02*
X10484467Y-13923888D01*
X10484467Y-13923888D02*
X10493991Y-13942936D01*
X10493991Y-13942936D02*
X10503515Y-13952460D01*
X10503515Y-13952460D02*
X10522563Y-13961984D01*
X10522563Y-13961984D02*
X10560658Y-13961984D01*
X10560658Y-13961984D02*
X10579705Y-13952460D01*
X10579705Y-13952460D02*
X10589229Y-13942936D01*
X10589229Y-13942936D02*
X10598753Y-13923888D01*
X10598753Y-13923888D02*
X10598753Y-13876269D01*
X10598753Y-13876269D02*
X10589229Y-13857222D01*
X10589229Y-13857222D02*
X10579705Y-13847698D01*
X10579705Y-13847698D02*
X10560658Y-13838174D01*
X10560658Y-13838174D02*
X10522563Y-13838174D01*
X10522563Y-13838174D02*
X10503515Y-13847698D01*
X10503515Y-13847698D02*
X10493991Y-13857222D01*
X10493991Y-13857222D02*
X10484467Y-13876269D01*
X10722563Y-13761984D02*
X10741610Y-13761984D01*
X10741610Y-13761984D02*
X10760658Y-13771508D01*
X10760658Y-13771508D02*
X10770182Y-13781031D01*
X10770182Y-13781031D02*
X10779705Y-13800079D01*
X10779705Y-13800079D02*
X10789229Y-13838174D01*
X10789229Y-13838174D02*
X10789229Y-13885793D01*
X10789229Y-13885793D02*
X10779705Y-13923888D01*
X10779705Y-13923888D02*
X10770182Y-13942936D01*
X10770182Y-13942936D02*
X10760658Y-13952460D01*
X10760658Y-13952460D02*
X10741610Y-13961984D01*
X10741610Y-13961984D02*
X10722563Y-13961984D01*
X10722563Y-13961984D02*
X10703515Y-13952460D01*
X10703515Y-13952460D02*
X10693991Y-13942936D01*
X10693991Y-13942936D02*
X10684467Y-13923888D01*
X10684467Y-13923888D02*
X10674944Y-13885793D01*
X10674944Y-13885793D02*
X10674944Y-13838174D01*
X10674944Y-13838174D02*
X10684467Y-13800079D01*
X10684467Y-13800079D02*
X10693991Y-13781031D01*
X10693991Y-13781031D02*
X10703515Y-13771508D01*
X10703515Y-13771508D02*
X10722563Y-13761984D01*
X10913039Y-13761984D02*
X10932086Y-13761984D01*
X10932086Y-13761984D02*
X10951134Y-13771508D01*
X10951134Y-13771508D02*
X10960658Y-13781031D01*
X10960658Y-13781031D02*
X10970182Y-13800079D01*
X10970182Y-13800079D02*
X10979705Y-13838174D01*
X10979705Y-13838174D02*
X10979705Y-13885793D01*
X10979705Y-13885793D02*
X10970182Y-13923888D01*
X10970182Y-13923888D02*
X10960658Y-13942936D01*
X10960658Y-13942936D02*
X10951134Y-13952460D01*
X10951134Y-13952460D02*
X10932086Y-13961984D01*
X10932086Y-13961984D02*
X10913039Y-13961984D01*
X10913039Y-13961984D02*
X10893991Y-13952460D01*
X10893991Y-13952460D02*
X10884467Y-13942936D01*
X10884467Y-13942936D02*
X10874944Y-13923888D01*
X10874944Y-13923888D02*
X10865420Y-13885793D01*
X10865420Y-13885793D02*
X10865420Y-13838174D01*
X10865420Y-13838174D02*
X10874944Y-13800079D01*
X10874944Y-13800079D02*
X10884467Y-13781031D01*
X10884467Y-13781031D02*
X10893991Y-13771508D01*
X10893991Y-13771508D02*
X10913039Y-13761984D01*
X11065420Y-13961984D02*
X11065420Y-13828650D01*
X11065420Y-13847698D02*
X11074944Y-13838174D01*
X11074944Y-13838174D02*
X11093991Y-13828650D01*
X11093991Y-13828650D02*
X11122563Y-13828650D01*
X11122563Y-13828650D02*
X11141610Y-13838174D01*
X11141610Y-13838174D02*
X11151134Y-13857222D01*
X11151134Y-13857222D02*
X11151134Y-13961984D01*
X11151134Y-13857222D02*
X11160658Y-13838174D01*
X11160658Y-13838174D02*
X11179705Y-13828650D01*
X11179705Y-13828650D02*
X11208277Y-13828650D01*
X11208277Y-13828650D02*
X11227324Y-13838174D01*
X11227324Y-13838174D02*
X11236848Y-13857222D01*
X11236848Y-13857222D02*
X11236848Y-13961984D01*
X11332086Y-13961984D02*
X11332086Y-13828650D01*
X11332086Y-13847698D02*
X11341610Y-13838174D01*
X11341610Y-13838174D02*
X11360658Y-13828650D01*
X11360658Y-13828650D02*
X11389229Y-13828650D01*
X11389229Y-13828650D02*
X11408277Y-13838174D01*
X11408277Y-13838174D02*
X11417801Y-13857222D01*
X11417801Y-13857222D02*
X11417801Y-13961984D01*
X11417801Y-13857222D02*
X11427324Y-13838174D01*
X11427324Y-13838174D02*
X11446372Y-13828650D01*
X11446372Y-13828650D02*
X11474943Y-13828650D01*
X11474943Y-13828650D02*
X11493991Y-13838174D01*
X11493991Y-13838174D02*
X11503515Y-13857222D01*
X11503515Y-13857222D02*
X11503515Y-13961984D01*
X11893991Y-13752460D02*
X11722563Y-14009603D01*
X12151134Y-13761984D02*
X12170182Y-13761984D01*
X12170182Y-13761984D02*
X12189229Y-13771508D01*
X12189229Y-13771508D02*
X12198753Y-13781031D01*
X12198753Y-13781031D02*
X12208277Y-13800079D01*
X12208277Y-13800079D02*
X12217801Y-13838174D01*
X12217801Y-13838174D02*
X12217801Y-13885793D01*
X12217801Y-13885793D02*
X12208277Y-13923888D01*
X12208277Y-13923888D02*
X12198753Y-13942936D01*
X12198753Y-13942936D02*
X12189229Y-13952460D01*
X12189229Y-13952460D02*
X12170182Y-13961984D01*
X12170182Y-13961984D02*
X12151134Y-13961984D01*
X12151134Y-13961984D02*
X12132086Y-13952460D01*
X12132086Y-13952460D02*
X12122563Y-13942936D01*
X12122563Y-13942936D02*
X12113039Y-13923888D01*
X12113039Y-13923888D02*
X12103515Y-13885793D01*
X12103515Y-13885793D02*
X12103515Y-13838174D01*
X12103515Y-13838174D02*
X12113039Y-13800079D01*
X12113039Y-13800079D02*
X12122563Y-13781031D01*
X12122563Y-13781031D02*
X12132086Y-13771508D01*
X12132086Y-13771508D02*
X12151134Y-13761984D01*
X12303515Y-13942936D02*
X12313039Y-13952460D01*
X12313039Y-13952460D02*
X12303515Y-13961984D01*
X12303515Y-13961984D02*
X12293991Y-13952460D01*
X12293991Y-13952460D02*
X12303515Y-13942936D01*
X12303515Y-13942936D02*
X12303515Y-13961984D01*
X12436848Y-13761984D02*
X12455896Y-13761984D01*
X12455896Y-13761984D02*
X12474944Y-13771508D01*
X12474944Y-13771508D02*
X12484467Y-13781031D01*
X12484467Y-13781031D02*
X12493991Y-13800079D01*
X12493991Y-13800079D02*
X12503515Y-13838174D01*
X12503515Y-13838174D02*
X12503515Y-13885793D01*
X12503515Y-13885793D02*
X12493991Y-13923888D01*
X12493991Y-13923888D02*
X12484467Y-13942936D01*
X12484467Y-13942936D02*
X12474944Y-13952460D01*
X12474944Y-13952460D02*
X12455896Y-13961984D01*
X12455896Y-13961984D02*
X12436848Y-13961984D01*
X12436848Y-13961984D02*
X12417801Y-13952460D01*
X12417801Y-13952460D02*
X12408277Y-13942936D01*
X12408277Y-13942936D02*
X12398753Y-13923888D01*
X12398753Y-13923888D02*
X12389229Y-13885793D01*
X12389229Y-13885793D02*
X12389229Y-13838174D01*
X12389229Y-13838174D02*
X12398753Y-13800079D01*
X12398753Y-13800079D02*
X12408277Y-13781031D01*
X12408277Y-13781031D02*
X12417801Y-13771508D01*
X12417801Y-13771508D02*
X12436848Y-13761984D01*
X12579706Y-13781031D02*
X12589229Y-13771508D01*
X12589229Y-13771508D02*
X12608277Y-13761984D01*
X12608277Y-13761984D02*
X12655896Y-13761984D01*
X12655896Y-13761984D02*
X12674944Y-13771508D01*
X12674944Y-13771508D02*
X12684467Y-13781031D01*
X12684467Y-13781031D02*
X12693991Y-13800079D01*
X12693991Y-13800079D02*
X12693991Y-13819127D01*
X12693991Y-13819127D02*
X12684467Y-13847698D01*
X12684467Y-13847698D02*
X12570182Y-13961984D01*
X12570182Y-13961984D02*
X12693991Y-13961984D01*
X12760658Y-13761984D02*
X12884467Y-13761984D01*
X12884467Y-13761984D02*
X12817801Y-13838174D01*
X12817801Y-13838174D02*
X12846372Y-13838174D01*
X12846372Y-13838174D02*
X12865420Y-13847698D01*
X12865420Y-13847698D02*
X12874944Y-13857222D01*
X12874944Y-13857222D02*
X12884467Y-13876269D01*
X12884467Y-13876269D02*
X12884467Y-13923888D01*
X12884467Y-13923888D02*
X12874944Y-13942936D01*
X12874944Y-13942936D02*
X12865420Y-13952460D01*
X12865420Y-13952460D02*
X12846372Y-13961984D01*
X12846372Y-13961984D02*
X12789229Y-13961984D01*
X12789229Y-13961984D02*
X12770182Y-13952460D01*
X12770182Y-13952460D02*
X12760658Y-13942936D01*
X13055896Y-13761984D02*
X13017801Y-13761984D01*
X13017801Y-13761984D02*
X12998753Y-13771508D01*
X12998753Y-13771508D02*
X12989229Y-13781031D01*
X12989229Y-13781031D02*
X12970182Y-13809603D01*
X12970182Y-13809603D02*
X12960658Y-13847698D01*
X12960658Y-13847698D02*
X12960658Y-13923888D01*
X12960658Y-13923888D02*
X12970182Y-13942936D01*
X12970182Y-13942936D02*
X12979706Y-13952460D01*
X12979706Y-13952460D02*
X12998753Y-13961984D01*
X12998753Y-13961984D02*
X13036848Y-13961984D01*
X13036848Y-13961984D02*
X13055896Y-13952460D01*
X13055896Y-13952460D02*
X13065420Y-13942936D01*
X13065420Y-13942936D02*
X13074944Y-13923888D01*
X13074944Y-13923888D02*
X13074944Y-13876269D01*
X13074944Y-13876269D02*
X13065420Y-13857222D01*
X13065420Y-13857222D02*
X13055896Y-13847698D01*
X13055896Y-13847698D02*
X13036848Y-13838174D01*
X13036848Y-13838174D02*
X12998753Y-13838174D01*
X12998753Y-13838174D02*
X12979706Y-13847698D01*
X12979706Y-13847698D02*
X12970182Y-13857222D01*
X12970182Y-13857222D02*
X12960658Y-13876269D01*
X13151134Y-13761984D02*
X13151134Y-13800079D01*
X13227325Y-13761984D02*
X13227325Y-13800079D01*
X13522563Y-14038174D02*
X13513039Y-14028650D01*
X13513039Y-14028650D02*
X13493991Y-14000079D01*
X13493991Y-14000079D02*
X13484468Y-13981031D01*
X13484468Y-13981031D02*
X13474944Y-13952460D01*
X13474944Y-13952460D02*
X13465420Y-13904841D01*
X13465420Y-13904841D02*
X13465420Y-13866746D01*
X13465420Y-13866746D02*
X13474944Y-13819127D01*
X13474944Y-13819127D02*
X13484468Y-13790555D01*
X13484468Y-13790555D02*
X13493991Y-13771508D01*
X13493991Y-13771508D02*
X13513039Y-13742936D01*
X13513039Y-13742936D02*
X13522563Y-13733412D01*
X13703515Y-13961984D02*
X13589229Y-13961984D01*
X13646372Y-13961984D02*
X13646372Y-13761984D01*
X13646372Y-13761984D02*
X13627325Y-13790555D01*
X13627325Y-13790555D02*
X13608277Y-13809603D01*
X13608277Y-13809603D02*
X13589229Y-13819127D01*
X13941610Y-13961984D02*
X13941610Y-13761984D01*
X14027325Y-13961984D02*
X14027325Y-13857222D01*
X14027325Y-13857222D02*
X14017801Y-13838174D01*
X14017801Y-13838174D02*
X13998753Y-13828650D01*
X13998753Y-13828650D02*
X13970182Y-13828650D01*
X13970182Y-13828650D02*
X13951134Y-13838174D01*
X13951134Y-13838174D02*
X13941610Y-13847698D01*
X14151134Y-13961984D02*
X14132087Y-13952460D01*
X14132087Y-13952460D02*
X14122563Y-13942936D01*
X14122563Y-13942936D02*
X14113039Y-13923888D01*
X14113039Y-13923888D02*
X14113039Y-13866746D01*
X14113039Y-13866746D02*
X14122563Y-13847698D01*
X14122563Y-13847698D02*
X14132087Y-13838174D01*
X14132087Y-13838174D02*
X14151134Y-13828650D01*
X14151134Y-13828650D02*
X14179706Y-13828650D01*
X14179706Y-13828650D02*
X14198753Y-13838174D01*
X14198753Y-13838174D02*
X14208277Y-13847698D01*
X14208277Y-13847698D02*
X14217801Y-13866746D01*
X14217801Y-13866746D02*
X14217801Y-13923888D01*
X14217801Y-13923888D02*
X14208277Y-13942936D01*
X14208277Y-13942936D02*
X14198753Y-13952460D01*
X14198753Y-13952460D02*
X14179706Y-13961984D01*
X14179706Y-13961984D02*
X14151134Y-13961984D01*
X14332087Y-13961984D02*
X14313039Y-13952460D01*
X14313039Y-13952460D02*
X14303515Y-13933412D01*
X14303515Y-13933412D02*
X14303515Y-13761984D01*
X14484468Y-13952460D02*
X14465420Y-13961984D01*
X14465420Y-13961984D02*
X14427325Y-13961984D01*
X14427325Y-13961984D02*
X14408277Y-13952460D01*
X14408277Y-13952460D02*
X14398753Y-13933412D01*
X14398753Y-13933412D02*
X14398753Y-13857222D01*
X14398753Y-13857222D02*
X14408277Y-13838174D01*
X14408277Y-13838174D02*
X14427325Y-13828650D01*
X14427325Y-13828650D02*
X14465420Y-13828650D01*
X14465420Y-13828650D02*
X14484468Y-13838174D01*
X14484468Y-13838174D02*
X14493991Y-13857222D01*
X14493991Y-13857222D02*
X14493991Y-13876269D01*
X14493991Y-13876269D02*
X14398753Y-13895317D01*
X14560658Y-14038174D02*
X14570182Y-14028650D01*
X14570182Y-14028650D02*
X14589230Y-14000079D01*
X14589230Y-14000079D02*
X14598753Y-13981031D01*
X14598753Y-13981031D02*
X14608277Y-13952460D01*
X14608277Y-13952460D02*
X14617801Y-13904841D01*
X14617801Y-13904841D02*
X14617801Y-13866746D01*
X14617801Y-13866746D02*
X14608277Y-13819127D01*
X14608277Y-13819127D02*
X14598753Y-13790555D01*
X14598753Y-13790555D02*
X14589230Y-13771508D01*
X14589230Y-13771508D02*
X14570182Y-13742936D01*
X14570182Y-13742936D02*
X14560658Y-13733412D01*
D12*
X9936517Y-14161017D02*
X9936517Y-14107983D01*
X9883483Y-14107983D01*
X9883483Y-14161017D01*
X9936517Y-14161017D01*
D11*
X10246372Y-14025984D02*
X10265420Y-14025984D01*
X10265420Y-14025984D02*
X10284467Y-14035508D01*
X10284467Y-14035508D02*
X10293991Y-14045031D01*
X10293991Y-14045031D02*
X10303515Y-14064079D01*
X10303515Y-14064079D02*
X10313039Y-14102174D01*
X10313039Y-14102174D02*
X10313039Y-14149793D01*
X10313039Y-14149793D02*
X10303515Y-14187888D01*
X10303515Y-14187888D02*
X10293991Y-14206936D01*
X10293991Y-14206936D02*
X10284467Y-14216460D01*
X10284467Y-14216460D02*
X10265420Y-14225984D01*
X10265420Y-14225984D02*
X10246372Y-14225984D01*
X10246372Y-14225984D02*
X10227324Y-14216460D01*
X10227324Y-14216460D02*
X10217801Y-14206936D01*
X10217801Y-14206936D02*
X10208277Y-14187888D01*
X10208277Y-14187888D02*
X10198753Y-14149793D01*
X10198753Y-14149793D02*
X10198753Y-14102174D01*
X10198753Y-14102174D02*
X10208277Y-14064079D01*
X10208277Y-14064079D02*
X10217801Y-14045031D01*
X10217801Y-14045031D02*
X10227324Y-14035508D01*
X10227324Y-14035508D02*
X10246372Y-14025984D01*
X10398753Y-14206936D02*
X10408277Y-14216460D01*
X10408277Y-14216460D02*
X10398753Y-14225984D01*
X10398753Y-14225984D02*
X10389229Y-14216460D01*
X10389229Y-14216460D02*
X10398753Y-14206936D01*
X10398753Y-14206936D02*
X10398753Y-14225984D01*
X10474944Y-14025984D02*
X10608277Y-14025984D01*
X10608277Y-14025984D02*
X10522563Y-14225984D01*
X10779705Y-14025984D02*
X10684467Y-14025984D01*
X10684467Y-14025984D02*
X10674944Y-14121222D01*
X10674944Y-14121222D02*
X10684467Y-14111698D01*
X10684467Y-14111698D02*
X10703515Y-14102174D01*
X10703515Y-14102174D02*
X10751134Y-14102174D01*
X10751134Y-14102174D02*
X10770182Y-14111698D01*
X10770182Y-14111698D02*
X10779705Y-14121222D01*
X10779705Y-14121222D02*
X10789229Y-14140269D01*
X10789229Y-14140269D02*
X10789229Y-14187888D01*
X10789229Y-14187888D02*
X10779705Y-14206936D01*
X10779705Y-14206936D02*
X10770182Y-14216460D01*
X10770182Y-14216460D02*
X10751134Y-14225984D01*
X10751134Y-14225984D02*
X10703515Y-14225984D01*
X10703515Y-14225984D02*
X10684467Y-14216460D01*
X10684467Y-14216460D02*
X10674944Y-14206936D01*
X10913039Y-14025984D02*
X10932086Y-14025984D01*
X10932086Y-14025984D02*
X10951134Y-14035508D01*
X10951134Y-14035508D02*
X10960658Y-14045031D01*
X10960658Y-14045031D02*
X10970182Y-14064079D01*
X10970182Y-14064079D02*
X10979705Y-14102174D01*
X10979705Y-14102174D02*
X10979705Y-14149793D01*
X10979705Y-14149793D02*
X10970182Y-14187888D01*
X10970182Y-14187888D02*
X10960658Y-14206936D01*
X10960658Y-14206936D02*
X10951134Y-14216460D01*
X10951134Y-14216460D02*
X10932086Y-14225984D01*
X10932086Y-14225984D02*
X10913039Y-14225984D01*
X10913039Y-14225984D02*
X10893991Y-14216460D01*
X10893991Y-14216460D02*
X10884467Y-14206936D01*
X10884467Y-14206936D02*
X10874944Y-14187888D01*
X10874944Y-14187888D02*
X10865420Y-14149793D01*
X10865420Y-14149793D02*
X10865420Y-14102174D01*
X10865420Y-14102174D02*
X10874944Y-14064079D01*
X10874944Y-14064079D02*
X10884467Y-14045031D01*
X10884467Y-14045031D02*
X10893991Y-14035508D01*
X10893991Y-14035508D02*
X10913039Y-14025984D01*
X11065420Y-14225984D02*
X11065420Y-14092650D01*
X11065420Y-14111698D02*
X11074944Y-14102174D01*
X11074944Y-14102174D02*
X11093991Y-14092650D01*
X11093991Y-14092650D02*
X11122563Y-14092650D01*
X11122563Y-14092650D02*
X11141610Y-14102174D01*
X11141610Y-14102174D02*
X11151134Y-14121222D01*
X11151134Y-14121222D02*
X11151134Y-14225984D01*
X11151134Y-14121222D02*
X11160658Y-14102174D01*
X11160658Y-14102174D02*
X11179705Y-14092650D01*
X11179705Y-14092650D02*
X11208277Y-14092650D01*
X11208277Y-14092650D02*
X11227324Y-14102174D01*
X11227324Y-14102174D02*
X11236848Y-14121222D01*
X11236848Y-14121222D02*
X11236848Y-14225984D01*
X11332086Y-14225984D02*
X11332086Y-14092650D01*
X11332086Y-14111698D02*
X11341610Y-14102174D01*
X11341610Y-14102174D02*
X11360658Y-14092650D01*
X11360658Y-14092650D02*
X11389229Y-14092650D01*
X11389229Y-14092650D02*
X11408277Y-14102174D01*
X11408277Y-14102174D02*
X11417801Y-14121222D01*
X11417801Y-14121222D02*
X11417801Y-14225984D01*
X11417801Y-14121222D02*
X11427324Y-14102174D01*
X11427324Y-14102174D02*
X11446372Y-14092650D01*
X11446372Y-14092650D02*
X11474943Y-14092650D01*
X11474943Y-14092650D02*
X11493991Y-14102174D01*
X11493991Y-14102174D02*
X11503515Y-14121222D01*
X11503515Y-14121222D02*
X11503515Y-14225984D01*
X11893991Y-14016460D02*
X11722563Y-14273603D01*
X12151134Y-14025984D02*
X12170182Y-14025984D01*
X12170182Y-14025984D02*
X12189229Y-14035508D01*
X12189229Y-14035508D02*
X12198753Y-14045031D01*
X12198753Y-14045031D02*
X12208277Y-14064079D01*
X12208277Y-14064079D02*
X12217801Y-14102174D01*
X12217801Y-14102174D02*
X12217801Y-14149793D01*
X12217801Y-14149793D02*
X12208277Y-14187888D01*
X12208277Y-14187888D02*
X12198753Y-14206936D01*
X12198753Y-14206936D02*
X12189229Y-14216460D01*
X12189229Y-14216460D02*
X12170182Y-14225984D01*
X12170182Y-14225984D02*
X12151134Y-14225984D01*
X12151134Y-14225984D02*
X12132086Y-14216460D01*
X12132086Y-14216460D02*
X12122563Y-14206936D01*
X12122563Y-14206936D02*
X12113039Y-14187888D01*
X12113039Y-14187888D02*
X12103515Y-14149793D01*
X12103515Y-14149793D02*
X12103515Y-14102174D01*
X12103515Y-14102174D02*
X12113039Y-14064079D01*
X12113039Y-14064079D02*
X12122563Y-14045031D01*
X12122563Y-14045031D02*
X12132086Y-14035508D01*
X12132086Y-14035508D02*
X12151134Y-14025984D01*
X12303515Y-14206936D02*
X12313039Y-14216460D01*
X12313039Y-14216460D02*
X12303515Y-14225984D01*
X12303515Y-14225984D02*
X12293991Y-14216460D01*
X12293991Y-14216460D02*
X12303515Y-14206936D01*
X12303515Y-14206936D02*
X12303515Y-14225984D01*
X12436848Y-14025984D02*
X12455896Y-14025984D01*
X12455896Y-14025984D02*
X12474944Y-14035508D01*
X12474944Y-14035508D02*
X12484467Y-14045031D01*
X12484467Y-14045031D02*
X12493991Y-14064079D01*
X12493991Y-14064079D02*
X12503515Y-14102174D01*
X12503515Y-14102174D02*
X12503515Y-14149793D01*
X12503515Y-14149793D02*
X12493991Y-14187888D01*
X12493991Y-14187888D02*
X12484467Y-14206936D01*
X12484467Y-14206936D02*
X12474944Y-14216460D01*
X12474944Y-14216460D02*
X12455896Y-14225984D01*
X12455896Y-14225984D02*
X12436848Y-14225984D01*
X12436848Y-14225984D02*
X12417801Y-14216460D01*
X12417801Y-14216460D02*
X12408277Y-14206936D01*
X12408277Y-14206936D02*
X12398753Y-14187888D01*
X12398753Y-14187888D02*
X12389229Y-14149793D01*
X12389229Y-14149793D02*
X12389229Y-14102174D01*
X12389229Y-14102174D02*
X12398753Y-14064079D01*
X12398753Y-14064079D02*
X12408277Y-14045031D01*
X12408277Y-14045031D02*
X12417801Y-14035508D01*
X12417801Y-14035508D02*
X12436848Y-14025984D01*
X12579706Y-14045031D02*
X12589229Y-14035508D01*
X12589229Y-14035508D02*
X12608277Y-14025984D01*
X12608277Y-14025984D02*
X12655896Y-14025984D01*
X12655896Y-14025984D02*
X12674944Y-14035508D01*
X12674944Y-14035508D02*
X12684467Y-14045031D01*
X12684467Y-14045031D02*
X12693991Y-14064079D01*
X12693991Y-14064079D02*
X12693991Y-14083127D01*
X12693991Y-14083127D02*
X12684467Y-14111698D01*
X12684467Y-14111698D02*
X12570182Y-14225984D01*
X12570182Y-14225984D02*
X12693991Y-14225984D01*
X12789229Y-14225984D02*
X12827325Y-14225984D01*
X12827325Y-14225984D02*
X12846372Y-14216460D01*
X12846372Y-14216460D02*
X12855896Y-14206936D01*
X12855896Y-14206936D02*
X12874944Y-14178365D01*
X12874944Y-14178365D02*
X12884467Y-14140269D01*
X12884467Y-14140269D02*
X12884467Y-14064079D01*
X12884467Y-14064079D02*
X12874944Y-14045031D01*
X12874944Y-14045031D02*
X12865420Y-14035508D01*
X12865420Y-14035508D02*
X12846372Y-14025984D01*
X12846372Y-14025984D02*
X12808277Y-14025984D01*
X12808277Y-14025984D02*
X12789229Y-14035508D01*
X12789229Y-14035508D02*
X12779706Y-14045031D01*
X12779706Y-14045031D02*
X12770182Y-14064079D01*
X12770182Y-14064079D02*
X12770182Y-14111698D01*
X12770182Y-14111698D02*
X12779706Y-14130746D01*
X12779706Y-14130746D02*
X12789229Y-14140269D01*
X12789229Y-14140269D02*
X12808277Y-14149793D01*
X12808277Y-14149793D02*
X12846372Y-14149793D01*
X12846372Y-14149793D02*
X12865420Y-14140269D01*
X12865420Y-14140269D02*
X12874944Y-14130746D01*
X12874944Y-14130746D02*
X12884467Y-14111698D01*
X13065420Y-14025984D02*
X12970182Y-14025984D01*
X12970182Y-14025984D02*
X12960658Y-14121222D01*
X12960658Y-14121222D02*
X12970182Y-14111698D01*
X12970182Y-14111698D02*
X12989229Y-14102174D01*
X12989229Y-14102174D02*
X13036848Y-14102174D01*
X13036848Y-14102174D02*
X13055896Y-14111698D01*
X13055896Y-14111698D02*
X13065420Y-14121222D01*
X13065420Y-14121222D02*
X13074944Y-14140269D01*
X13074944Y-14140269D02*
X13074944Y-14187888D01*
X13074944Y-14187888D02*
X13065420Y-14206936D01*
X13065420Y-14206936D02*
X13055896Y-14216460D01*
X13055896Y-14216460D02*
X13036848Y-14225984D01*
X13036848Y-14225984D02*
X12989229Y-14225984D01*
X12989229Y-14225984D02*
X12970182Y-14216460D01*
X12970182Y-14216460D02*
X12960658Y-14206936D01*
X13151134Y-14025984D02*
X13151134Y-14064079D01*
X13227325Y-14025984D02*
X13227325Y-14064079D01*
X13522563Y-14302174D02*
X13513039Y-14292650D01*
X13513039Y-14292650D02*
X13493991Y-14264079D01*
X13493991Y-14264079D02*
X13484468Y-14245031D01*
X13484468Y-14245031D02*
X13474944Y-14216460D01*
X13474944Y-14216460D02*
X13465420Y-14168841D01*
X13465420Y-14168841D02*
X13465420Y-14130746D01*
X13465420Y-14130746D02*
X13474944Y-14083127D01*
X13474944Y-14083127D02*
X13484468Y-14054555D01*
X13484468Y-14054555D02*
X13493991Y-14035508D01*
X13493991Y-14035508D02*
X13513039Y-14006936D01*
X13513039Y-14006936D02*
X13522563Y-13997412D01*
X13579706Y-14025984D02*
X13703515Y-14025984D01*
X13703515Y-14025984D02*
X13636848Y-14102174D01*
X13636848Y-14102174D02*
X13665420Y-14102174D01*
X13665420Y-14102174D02*
X13684468Y-14111698D01*
X13684468Y-14111698D02*
X13693991Y-14121222D01*
X13693991Y-14121222D02*
X13703515Y-14140269D01*
X13703515Y-14140269D02*
X13703515Y-14187888D01*
X13703515Y-14187888D02*
X13693991Y-14206936D01*
X13693991Y-14206936D02*
X13684468Y-14216460D01*
X13684468Y-14216460D02*
X13665420Y-14225984D01*
X13665420Y-14225984D02*
X13608277Y-14225984D01*
X13608277Y-14225984D02*
X13589229Y-14216460D01*
X13589229Y-14216460D02*
X13579706Y-14206936D01*
X13941610Y-14225984D02*
X13941610Y-14025984D01*
X14027325Y-14225984D02*
X14027325Y-14121222D01*
X14027325Y-14121222D02*
X14017801Y-14102174D01*
X14017801Y-14102174D02*
X13998753Y-14092650D01*
X13998753Y-14092650D02*
X13970182Y-14092650D01*
X13970182Y-14092650D02*
X13951134Y-14102174D01*
X13951134Y-14102174D02*
X13941610Y-14111698D01*
X14151134Y-14225984D02*
X14132087Y-14216460D01*
X14132087Y-14216460D02*
X14122563Y-14206936D01*
X14122563Y-14206936D02*
X14113039Y-14187888D01*
X14113039Y-14187888D02*
X14113039Y-14130746D01*
X14113039Y-14130746D02*
X14122563Y-14111698D01*
X14122563Y-14111698D02*
X14132087Y-14102174D01*
X14132087Y-14102174D02*
X14151134Y-14092650D01*
X14151134Y-14092650D02*
X14179706Y-14092650D01*
X14179706Y-14092650D02*
X14198753Y-14102174D01*
X14198753Y-14102174D02*
X14208277Y-14111698D01*
X14208277Y-14111698D02*
X14217801Y-14130746D01*
X14217801Y-14130746D02*
X14217801Y-14187888D01*
X14217801Y-14187888D02*
X14208277Y-14206936D01*
X14208277Y-14206936D02*
X14198753Y-14216460D01*
X14198753Y-14216460D02*
X14179706Y-14225984D01*
X14179706Y-14225984D02*
X14151134Y-14225984D01*
X14332087Y-14225984D02*
X14313039Y-14216460D01*
X14313039Y-14216460D02*
X14303515Y-14197412D01*
X14303515Y-14197412D02*
X14303515Y-14025984D01*
X14484468Y-14216460D02*
X14465420Y-14225984D01*
X14465420Y-14225984D02*
X14427325Y-14225984D01*
X14427325Y-14225984D02*
X14408277Y-14216460D01*
X14408277Y-14216460D02*
X14398753Y-14197412D01*
X14398753Y-14197412D02*
X14398753Y-14121222D01*
X14398753Y-14121222D02*
X14408277Y-14102174D01*
X14408277Y-14102174D02*
X14427325Y-14092650D01*
X14427325Y-14092650D02*
X14465420Y-14092650D01*
X14465420Y-14092650D02*
X14484468Y-14102174D01*
X14484468Y-14102174D02*
X14493991Y-14121222D01*
X14493991Y-14121222D02*
X14493991Y-14140269D01*
X14493991Y-14140269D02*
X14398753Y-14159317D01*
X14570182Y-14216460D02*
X14589230Y-14225984D01*
X14589230Y-14225984D02*
X14627325Y-14225984D01*
X14627325Y-14225984D02*
X14646372Y-14216460D01*
X14646372Y-14216460D02*
X14655896Y-14197412D01*
X14655896Y-14197412D02*
X14655896Y-14187888D01*
X14655896Y-14187888D02*
X14646372Y-14168841D01*
X14646372Y-14168841D02*
X14627325Y-14159317D01*
X14627325Y-14159317D02*
X14598753Y-14159317D01*
X14598753Y-14159317D02*
X14579706Y-14149793D01*
X14579706Y-14149793D02*
X14570182Y-14130746D01*
X14570182Y-14130746D02*
X14570182Y-14121222D01*
X14570182Y-14121222D02*
X14579706Y-14102174D01*
X14579706Y-14102174D02*
X14598753Y-14092650D01*
X14598753Y-14092650D02*
X14627325Y-14092650D01*
X14627325Y-14092650D02*
X14646372Y-14102174D01*
X14722563Y-14302174D02*
X14732087Y-14292650D01*
X14732087Y-14292650D02*
X14751134Y-14264079D01*
X14751134Y-14264079D02*
X14760658Y-14245031D01*
X14760658Y-14245031D02*
X14770182Y-14216460D01*
X14770182Y-14216460D02*
X14779706Y-14168841D01*
X14779706Y-14168841D02*
X14779706Y-14130746D01*
X14779706Y-14130746D02*
X14770182Y-14083127D01*
X14770182Y-14083127D02*
X14760658Y-14054555D01*
X14760658Y-14054555D02*
X14751134Y-14035508D01*
X14751134Y-14035508D02*
X14732087Y-14006936D01*
X14732087Y-14006936D02*
X14722563Y-13997412D01*
D12*
X9907500Y-14438500D02*
X9947500Y-14398500D01*
X9907500Y-14358500D01*
X9867500Y-14398500D01*
X9907500Y-14438500D01*
D11*
X10246372Y-14289984D02*
X10265420Y-14289984D01*
X10265420Y-14289984D02*
X10284467Y-14299508D01*
X10284467Y-14299508D02*
X10293991Y-14309031D01*
X10293991Y-14309031D02*
X10303515Y-14328079D01*
X10303515Y-14328079D02*
X10313039Y-14366174D01*
X10313039Y-14366174D02*
X10313039Y-14413793D01*
X10313039Y-14413793D02*
X10303515Y-14451888D01*
X10303515Y-14451888D02*
X10293991Y-14470936D01*
X10293991Y-14470936D02*
X10284467Y-14480460D01*
X10284467Y-14480460D02*
X10265420Y-14489984D01*
X10265420Y-14489984D02*
X10246372Y-14489984D01*
X10246372Y-14489984D02*
X10227324Y-14480460D01*
X10227324Y-14480460D02*
X10217801Y-14470936D01*
X10217801Y-14470936D02*
X10208277Y-14451888D01*
X10208277Y-14451888D02*
X10198753Y-14413793D01*
X10198753Y-14413793D02*
X10198753Y-14366174D01*
X10198753Y-14366174D02*
X10208277Y-14328079D01*
X10208277Y-14328079D02*
X10217801Y-14309031D01*
X10217801Y-14309031D02*
X10227324Y-14299508D01*
X10227324Y-14299508D02*
X10246372Y-14289984D01*
X10398753Y-14470936D02*
X10408277Y-14480460D01*
X10408277Y-14480460D02*
X10398753Y-14489984D01*
X10398753Y-14489984D02*
X10389229Y-14480460D01*
X10389229Y-14480460D02*
X10398753Y-14470936D01*
X10398753Y-14470936D02*
X10398753Y-14489984D01*
X10522563Y-14375698D02*
X10503515Y-14366174D01*
X10503515Y-14366174D02*
X10493991Y-14356650D01*
X10493991Y-14356650D02*
X10484467Y-14337603D01*
X10484467Y-14337603D02*
X10484467Y-14328079D01*
X10484467Y-14328079D02*
X10493991Y-14309031D01*
X10493991Y-14309031D02*
X10503515Y-14299508D01*
X10503515Y-14299508D02*
X10522563Y-14289984D01*
X10522563Y-14289984D02*
X10560658Y-14289984D01*
X10560658Y-14289984D02*
X10579705Y-14299508D01*
X10579705Y-14299508D02*
X10589229Y-14309031D01*
X10589229Y-14309031D02*
X10598753Y-14328079D01*
X10598753Y-14328079D02*
X10598753Y-14337603D01*
X10598753Y-14337603D02*
X10589229Y-14356650D01*
X10589229Y-14356650D02*
X10579705Y-14366174D01*
X10579705Y-14366174D02*
X10560658Y-14375698D01*
X10560658Y-14375698D02*
X10522563Y-14375698D01*
X10522563Y-14375698D02*
X10503515Y-14385222D01*
X10503515Y-14385222D02*
X10493991Y-14394746D01*
X10493991Y-14394746D02*
X10484467Y-14413793D01*
X10484467Y-14413793D02*
X10484467Y-14451888D01*
X10484467Y-14451888D02*
X10493991Y-14470936D01*
X10493991Y-14470936D02*
X10503515Y-14480460D01*
X10503515Y-14480460D02*
X10522563Y-14489984D01*
X10522563Y-14489984D02*
X10560658Y-14489984D01*
X10560658Y-14489984D02*
X10579705Y-14480460D01*
X10579705Y-14480460D02*
X10589229Y-14470936D01*
X10589229Y-14470936D02*
X10598753Y-14451888D01*
X10598753Y-14451888D02*
X10598753Y-14413793D01*
X10598753Y-14413793D02*
X10589229Y-14394746D01*
X10589229Y-14394746D02*
X10579705Y-14385222D01*
X10579705Y-14385222D02*
X10560658Y-14375698D01*
X10722563Y-14289984D02*
X10741610Y-14289984D01*
X10741610Y-14289984D02*
X10760658Y-14299508D01*
X10760658Y-14299508D02*
X10770182Y-14309031D01*
X10770182Y-14309031D02*
X10779705Y-14328079D01*
X10779705Y-14328079D02*
X10789229Y-14366174D01*
X10789229Y-14366174D02*
X10789229Y-14413793D01*
X10789229Y-14413793D02*
X10779705Y-14451888D01*
X10779705Y-14451888D02*
X10770182Y-14470936D01*
X10770182Y-14470936D02*
X10760658Y-14480460D01*
X10760658Y-14480460D02*
X10741610Y-14489984D01*
X10741610Y-14489984D02*
X10722563Y-14489984D01*
X10722563Y-14489984D02*
X10703515Y-14480460D01*
X10703515Y-14480460D02*
X10693991Y-14470936D01*
X10693991Y-14470936D02*
X10684467Y-14451888D01*
X10684467Y-14451888D02*
X10674944Y-14413793D01*
X10674944Y-14413793D02*
X10674944Y-14366174D01*
X10674944Y-14366174D02*
X10684467Y-14328079D01*
X10684467Y-14328079D02*
X10693991Y-14309031D01*
X10693991Y-14309031D02*
X10703515Y-14299508D01*
X10703515Y-14299508D02*
X10722563Y-14289984D01*
X10913039Y-14289984D02*
X10932086Y-14289984D01*
X10932086Y-14289984D02*
X10951134Y-14299508D01*
X10951134Y-14299508D02*
X10960658Y-14309031D01*
X10960658Y-14309031D02*
X10970182Y-14328079D01*
X10970182Y-14328079D02*
X10979705Y-14366174D01*
X10979705Y-14366174D02*
X10979705Y-14413793D01*
X10979705Y-14413793D02*
X10970182Y-14451888D01*
X10970182Y-14451888D02*
X10960658Y-14470936D01*
X10960658Y-14470936D02*
X10951134Y-14480460D01*
X10951134Y-14480460D02*
X10932086Y-14489984D01*
X10932086Y-14489984D02*
X10913039Y-14489984D01*
X10913039Y-14489984D02*
X10893991Y-14480460D01*
X10893991Y-14480460D02*
X10884467Y-14470936D01*
X10884467Y-14470936D02*
X10874944Y-14451888D01*
X10874944Y-14451888D02*
X10865420Y-14413793D01*
X10865420Y-14413793D02*
X10865420Y-14366174D01*
X10865420Y-14366174D02*
X10874944Y-14328079D01*
X10874944Y-14328079D02*
X10884467Y-14309031D01*
X10884467Y-14309031D02*
X10893991Y-14299508D01*
X10893991Y-14299508D02*
X10913039Y-14289984D01*
X11065420Y-14489984D02*
X11065420Y-14356650D01*
X11065420Y-14375698D02*
X11074944Y-14366174D01*
X11074944Y-14366174D02*
X11093991Y-14356650D01*
X11093991Y-14356650D02*
X11122563Y-14356650D01*
X11122563Y-14356650D02*
X11141610Y-14366174D01*
X11141610Y-14366174D02*
X11151134Y-14385222D01*
X11151134Y-14385222D02*
X11151134Y-14489984D01*
X11151134Y-14385222D02*
X11160658Y-14366174D01*
X11160658Y-14366174D02*
X11179705Y-14356650D01*
X11179705Y-14356650D02*
X11208277Y-14356650D01*
X11208277Y-14356650D02*
X11227324Y-14366174D01*
X11227324Y-14366174D02*
X11236848Y-14385222D01*
X11236848Y-14385222D02*
X11236848Y-14489984D01*
X11332086Y-14489984D02*
X11332086Y-14356650D01*
X11332086Y-14375698D02*
X11341610Y-14366174D01*
X11341610Y-14366174D02*
X11360658Y-14356650D01*
X11360658Y-14356650D02*
X11389229Y-14356650D01*
X11389229Y-14356650D02*
X11408277Y-14366174D01*
X11408277Y-14366174D02*
X11417801Y-14385222D01*
X11417801Y-14385222D02*
X11417801Y-14489984D01*
X11417801Y-14385222D02*
X11427324Y-14366174D01*
X11427324Y-14366174D02*
X11446372Y-14356650D01*
X11446372Y-14356650D02*
X11474943Y-14356650D01*
X11474943Y-14356650D02*
X11493991Y-14366174D01*
X11493991Y-14366174D02*
X11503515Y-14385222D01*
X11503515Y-14385222D02*
X11503515Y-14489984D01*
X11893991Y-14280460D02*
X11722563Y-14537603D01*
X12151134Y-14289984D02*
X12170182Y-14289984D01*
X12170182Y-14289984D02*
X12189229Y-14299508D01*
X12189229Y-14299508D02*
X12198753Y-14309031D01*
X12198753Y-14309031D02*
X12208277Y-14328079D01*
X12208277Y-14328079D02*
X12217801Y-14366174D01*
X12217801Y-14366174D02*
X12217801Y-14413793D01*
X12217801Y-14413793D02*
X12208277Y-14451888D01*
X12208277Y-14451888D02*
X12198753Y-14470936D01*
X12198753Y-14470936D02*
X12189229Y-14480460D01*
X12189229Y-14480460D02*
X12170182Y-14489984D01*
X12170182Y-14489984D02*
X12151134Y-14489984D01*
X12151134Y-14489984D02*
X12132086Y-14480460D01*
X12132086Y-14480460D02*
X12122563Y-14470936D01*
X12122563Y-14470936D02*
X12113039Y-14451888D01*
X12113039Y-14451888D02*
X12103515Y-14413793D01*
X12103515Y-14413793D02*
X12103515Y-14366174D01*
X12103515Y-14366174D02*
X12113039Y-14328079D01*
X12113039Y-14328079D02*
X12122563Y-14309031D01*
X12122563Y-14309031D02*
X12132086Y-14299508D01*
X12132086Y-14299508D02*
X12151134Y-14289984D01*
X12303515Y-14470936D02*
X12313039Y-14480460D01*
X12313039Y-14480460D02*
X12303515Y-14489984D01*
X12303515Y-14489984D02*
X12293991Y-14480460D01*
X12293991Y-14480460D02*
X12303515Y-14470936D01*
X12303515Y-14470936D02*
X12303515Y-14489984D01*
X12436848Y-14289984D02*
X12455896Y-14289984D01*
X12455896Y-14289984D02*
X12474944Y-14299508D01*
X12474944Y-14299508D02*
X12484467Y-14309031D01*
X12484467Y-14309031D02*
X12493991Y-14328079D01*
X12493991Y-14328079D02*
X12503515Y-14366174D01*
X12503515Y-14366174D02*
X12503515Y-14413793D01*
X12503515Y-14413793D02*
X12493991Y-14451888D01*
X12493991Y-14451888D02*
X12484467Y-14470936D01*
X12484467Y-14470936D02*
X12474944Y-14480460D01*
X12474944Y-14480460D02*
X12455896Y-14489984D01*
X12455896Y-14489984D02*
X12436848Y-14489984D01*
X12436848Y-14489984D02*
X12417801Y-14480460D01*
X12417801Y-14480460D02*
X12408277Y-14470936D01*
X12408277Y-14470936D02*
X12398753Y-14451888D01*
X12398753Y-14451888D02*
X12389229Y-14413793D01*
X12389229Y-14413793D02*
X12389229Y-14366174D01*
X12389229Y-14366174D02*
X12398753Y-14328079D01*
X12398753Y-14328079D02*
X12408277Y-14309031D01*
X12408277Y-14309031D02*
X12417801Y-14299508D01*
X12417801Y-14299508D02*
X12436848Y-14289984D01*
X12570182Y-14289984D02*
X12693991Y-14289984D01*
X12693991Y-14289984D02*
X12627325Y-14366174D01*
X12627325Y-14366174D02*
X12655896Y-14366174D01*
X12655896Y-14366174D02*
X12674944Y-14375698D01*
X12674944Y-14375698D02*
X12684467Y-14385222D01*
X12684467Y-14385222D02*
X12693991Y-14404269D01*
X12693991Y-14404269D02*
X12693991Y-14451888D01*
X12693991Y-14451888D02*
X12684467Y-14470936D01*
X12684467Y-14470936D02*
X12674944Y-14480460D01*
X12674944Y-14480460D02*
X12655896Y-14489984D01*
X12655896Y-14489984D02*
X12598753Y-14489984D01*
X12598753Y-14489984D02*
X12579706Y-14480460D01*
X12579706Y-14480460D02*
X12570182Y-14470936D01*
X12884467Y-14489984D02*
X12770182Y-14489984D01*
X12827325Y-14489984D02*
X12827325Y-14289984D01*
X12827325Y-14289984D02*
X12808277Y-14318555D01*
X12808277Y-14318555D02*
X12789229Y-14337603D01*
X12789229Y-14337603D02*
X12770182Y-14347127D01*
X13065420Y-14289984D02*
X12970182Y-14289984D01*
X12970182Y-14289984D02*
X12960658Y-14385222D01*
X12960658Y-14385222D02*
X12970182Y-14375698D01*
X12970182Y-14375698D02*
X12989229Y-14366174D01*
X12989229Y-14366174D02*
X13036848Y-14366174D01*
X13036848Y-14366174D02*
X13055896Y-14375698D01*
X13055896Y-14375698D02*
X13065420Y-14385222D01*
X13065420Y-14385222D02*
X13074944Y-14404269D01*
X13074944Y-14404269D02*
X13074944Y-14451888D01*
X13074944Y-14451888D02*
X13065420Y-14470936D01*
X13065420Y-14470936D02*
X13055896Y-14480460D01*
X13055896Y-14480460D02*
X13036848Y-14489984D01*
X13036848Y-14489984D02*
X12989229Y-14489984D01*
X12989229Y-14489984D02*
X12970182Y-14480460D01*
X12970182Y-14480460D02*
X12960658Y-14470936D01*
X13151134Y-14289984D02*
X13151134Y-14328079D01*
X13227325Y-14289984D02*
X13227325Y-14328079D01*
X13522563Y-14566174D02*
X13513039Y-14556650D01*
X13513039Y-14556650D02*
X13493991Y-14528079D01*
X13493991Y-14528079D02*
X13484468Y-14509031D01*
X13484468Y-14509031D02*
X13474944Y-14480460D01*
X13474944Y-14480460D02*
X13465420Y-14432841D01*
X13465420Y-14432841D02*
X13465420Y-14394746D01*
X13465420Y-14394746D02*
X13474944Y-14347127D01*
X13474944Y-14347127D02*
X13484468Y-14318555D01*
X13484468Y-14318555D02*
X13493991Y-14299508D01*
X13493991Y-14299508D02*
X13513039Y-14270936D01*
X13513039Y-14270936D02*
X13522563Y-14261412D01*
X13589229Y-14309031D02*
X13598753Y-14299508D01*
X13598753Y-14299508D02*
X13617801Y-14289984D01*
X13617801Y-14289984D02*
X13665420Y-14289984D01*
X13665420Y-14289984D02*
X13684468Y-14299508D01*
X13684468Y-14299508D02*
X13693991Y-14309031D01*
X13693991Y-14309031D02*
X13703515Y-14328079D01*
X13703515Y-14328079D02*
X13703515Y-14347127D01*
X13703515Y-14347127D02*
X13693991Y-14375698D01*
X13693991Y-14375698D02*
X13579706Y-14489984D01*
X13579706Y-14489984D02*
X13703515Y-14489984D01*
X13817801Y-14375698D02*
X13798753Y-14366174D01*
X13798753Y-14366174D02*
X13789229Y-14356650D01*
X13789229Y-14356650D02*
X13779706Y-14337603D01*
X13779706Y-14337603D02*
X13779706Y-14328079D01*
X13779706Y-14328079D02*
X13789229Y-14309031D01*
X13789229Y-14309031D02*
X13798753Y-14299508D01*
X13798753Y-14299508D02*
X13817801Y-14289984D01*
X13817801Y-14289984D02*
X13855896Y-14289984D01*
X13855896Y-14289984D02*
X13874944Y-14299508D01*
X13874944Y-14299508D02*
X13884468Y-14309031D01*
X13884468Y-14309031D02*
X13893991Y-14328079D01*
X13893991Y-14328079D02*
X13893991Y-14337603D01*
X13893991Y-14337603D02*
X13884468Y-14356650D01*
X13884468Y-14356650D02*
X13874944Y-14366174D01*
X13874944Y-14366174D02*
X13855896Y-14375698D01*
X13855896Y-14375698D02*
X13817801Y-14375698D01*
X13817801Y-14375698D02*
X13798753Y-14385222D01*
X13798753Y-14385222D02*
X13789229Y-14394746D01*
X13789229Y-14394746D02*
X13779706Y-14413793D01*
X13779706Y-14413793D02*
X13779706Y-14451888D01*
X13779706Y-14451888D02*
X13789229Y-14470936D01*
X13789229Y-14470936D02*
X13798753Y-14480460D01*
X13798753Y-14480460D02*
X13817801Y-14489984D01*
X13817801Y-14489984D02*
X13855896Y-14489984D01*
X13855896Y-14489984D02*
X13874944Y-14480460D01*
X13874944Y-14480460D02*
X13884468Y-14470936D01*
X13884468Y-14470936D02*
X13893991Y-14451888D01*
X13893991Y-14451888D02*
X13893991Y-14413793D01*
X13893991Y-14413793D02*
X13884468Y-14394746D01*
X13884468Y-14394746D02*
X13874944Y-14385222D01*
X13874944Y-14385222D02*
X13855896Y-14375698D01*
X14132087Y-14489984D02*
X14132087Y-14289984D01*
X14217801Y-14489984D02*
X14217801Y-14385222D01*
X14217801Y-14385222D02*
X14208277Y-14366174D01*
X14208277Y-14366174D02*
X14189230Y-14356650D01*
X14189230Y-14356650D02*
X14160658Y-14356650D01*
X14160658Y-14356650D02*
X14141610Y-14366174D01*
X14141610Y-14366174D02*
X14132087Y-14375698D01*
X14341610Y-14489984D02*
X14322563Y-14480460D01*
X14322563Y-14480460D02*
X14313039Y-14470936D01*
X14313039Y-14470936D02*
X14303515Y-14451888D01*
X14303515Y-14451888D02*
X14303515Y-14394746D01*
X14303515Y-14394746D02*
X14313039Y-14375698D01*
X14313039Y-14375698D02*
X14322563Y-14366174D01*
X14322563Y-14366174D02*
X14341610Y-14356650D01*
X14341610Y-14356650D02*
X14370182Y-14356650D01*
X14370182Y-14356650D02*
X14389230Y-14366174D01*
X14389230Y-14366174D02*
X14398753Y-14375698D01*
X14398753Y-14375698D02*
X14408277Y-14394746D01*
X14408277Y-14394746D02*
X14408277Y-14451888D01*
X14408277Y-14451888D02*
X14398753Y-14470936D01*
X14398753Y-14470936D02*
X14389230Y-14480460D01*
X14389230Y-14480460D02*
X14370182Y-14489984D01*
X14370182Y-14489984D02*
X14341610Y-14489984D01*
X14522563Y-14489984D02*
X14503515Y-14480460D01*
X14503515Y-14480460D02*
X14493991Y-14461412D01*
X14493991Y-14461412D02*
X14493991Y-14289984D01*
X14674944Y-14480460D02*
X14655896Y-14489984D01*
X14655896Y-14489984D02*
X14617801Y-14489984D01*
X14617801Y-14489984D02*
X14598753Y-14480460D01*
X14598753Y-14480460D02*
X14589230Y-14461412D01*
X14589230Y-14461412D02*
X14589230Y-14385222D01*
X14589230Y-14385222D02*
X14598753Y-14366174D01*
X14598753Y-14366174D02*
X14617801Y-14356650D01*
X14617801Y-14356650D02*
X14655896Y-14356650D01*
X14655896Y-14356650D02*
X14674944Y-14366174D01*
X14674944Y-14366174D02*
X14684468Y-14385222D01*
X14684468Y-14385222D02*
X14684468Y-14404269D01*
X14684468Y-14404269D02*
X14589230Y-14423317D01*
X14760658Y-14480460D02*
X14779706Y-14489984D01*
X14779706Y-14489984D02*
X14817801Y-14489984D01*
X14817801Y-14489984D02*
X14836849Y-14480460D01*
X14836849Y-14480460D02*
X14846372Y-14461412D01*
X14846372Y-14461412D02*
X14846372Y-14451888D01*
X14846372Y-14451888D02*
X14836849Y-14432841D01*
X14836849Y-14432841D02*
X14817801Y-14423317D01*
X14817801Y-14423317D02*
X14789230Y-14423317D01*
X14789230Y-14423317D02*
X14770182Y-14413793D01*
X14770182Y-14413793D02*
X14760658Y-14394746D01*
X14760658Y-14394746D02*
X14760658Y-14385222D01*
X14760658Y-14385222D02*
X14770182Y-14366174D01*
X14770182Y-14366174D02*
X14789230Y-14356650D01*
X14789230Y-14356650D02*
X14817801Y-14356650D01*
X14817801Y-14356650D02*
X14836849Y-14366174D01*
X14913039Y-14566174D02*
X14922563Y-14556650D01*
X14922563Y-14556650D02*
X14941611Y-14528079D01*
X14941611Y-14528079D02*
X14951134Y-14509031D01*
X14951134Y-14509031D02*
X14960658Y-14480460D01*
X14960658Y-14480460D02*
X14970182Y-14432841D01*
X14970182Y-14432841D02*
X14970182Y-14394746D01*
X14970182Y-14394746D02*
X14960658Y-14347127D01*
X14960658Y-14347127D02*
X14951134Y-14318555D01*
X14951134Y-14318555D02*
X14941611Y-14299508D01*
X14941611Y-14299508D02*
X14922563Y-14270936D01*
X14922563Y-14270936D02*
X14913039Y-14261412D01*
D12*
X9857500Y-14617500D02*
X9947500Y-14707500D01*
X9947500Y-14617500D02*
X9857500Y-14707500D01*
X9947500Y-14662500D02*
G75*
G02*
X9857500Y-14662500I-45000J0D01*
G01*
X9857500Y-14662500D02*
G75*
G02*
X9947500Y-14662500I45000J0D01*
G01*
D11*
X10246372Y-14553984D02*
X10265420Y-14553984D01*
X10265420Y-14553984D02*
X10284467Y-14563508D01*
X10284467Y-14563508D02*
X10293991Y-14573031D01*
X10293991Y-14573031D02*
X10303515Y-14592079D01*
X10303515Y-14592079D02*
X10313039Y-14630174D01*
X10313039Y-14630174D02*
X10313039Y-14677793D01*
X10313039Y-14677793D02*
X10303515Y-14715888D01*
X10303515Y-14715888D02*
X10293991Y-14734936D01*
X10293991Y-14734936D02*
X10284467Y-14744460D01*
X10284467Y-14744460D02*
X10265420Y-14753984D01*
X10265420Y-14753984D02*
X10246372Y-14753984D01*
X10246372Y-14753984D02*
X10227324Y-14744460D01*
X10227324Y-14744460D02*
X10217801Y-14734936D01*
X10217801Y-14734936D02*
X10208277Y-14715888D01*
X10208277Y-14715888D02*
X10198753Y-14677793D01*
X10198753Y-14677793D02*
X10198753Y-14630174D01*
X10198753Y-14630174D02*
X10208277Y-14592079D01*
X10208277Y-14592079D02*
X10217801Y-14573031D01*
X10217801Y-14573031D02*
X10227324Y-14563508D01*
X10227324Y-14563508D02*
X10246372Y-14553984D01*
X10398753Y-14734936D02*
X10408277Y-14744460D01*
X10408277Y-14744460D02*
X10398753Y-14753984D01*
X10398753Y-14753984D02*
X10389229Y-14744460D01*
X10389229Y-14744460D02*
X10398753Y-14734936D01*
X10398753Y-14734936D02*
X10398753Y-14753984D01*
X10503515Y-14753984D02*
X10541610Y-14753984D01*
X10541610Y-14753984D02*
X10560658Y-14744460D01*
X10560658Y-14744460D02*
X10570182Y-14734936D01*
X10570182Y-14734936D02*
X10589229Y-14706365D01*
X10589229Y-14706365D02*
X10598753Y-14668269D01*
X10598753Y-14668269D02*
X10598753Y-14592079D01*
X10598753Y-14592079D02*
X10589229Y-14573031D01*
X10589229Y-14573031D02*
X10579705Y-14563508D01*
X10579705Y-14563508D02*
X10560658Y-14553984D01*
X10560658Y-14553984D02*
X10522563Y-14553984D01*
X10522563Y-14553984D02*
X10503515Y-14563508D01*
X10503515Y-14563508D02*
X10493991Y-14573031D01*
X10493991Y-14573031D02*
X10484467Y-14592079D01*
X10484467Y-14592079D02*
X10484467Y-14639698D01*
X10484467Y-14639698D02*
X10493991Y-14658746D01*
X10493991Y-14658746D02*
X10503515Y-14668269D01*
X10503515Y-14668269D02*
X10522563Y-14677793D01*
X10522563Y-14677793D02*
X10560658Y-14677793D01*
X10560658Y-14677793D02*
X10579705Y-14668269D01*
X10579705Y-14668269D02*
X10589229Y-14658746D01*
X10589229Y-14658746D02*
X10598753Y-14639698D01*
X10722563Y-14553984D02*
X10741610Y-14553984D01*
X10741610Y-14553984D02*
X10760658Y-14563508D01*
X10760658Y-14563508D02*
X10770182Y-14573031D01*
X10770182Y-14573031D02*
X10779705Y-14592079D01*
X10779705Y-14592079D02*
X10789229Y-14630174D01*
X10789229Y-14630174D02*
X10789229Y-14677793D01*
X10789229Y-14677793D02*
X10779705Y-14715888D01*
X10779705Y-14715888D02*
X10770182Y-14734936D01*
X10770182Y-14734936D02*
X10760658Y-14744460D01*
X10760658Y-14744460D02*
X10741610Y-14753984D01*
X10741610Y-14753984D02*
X10722563Y-14753984D01*
X10722563Y-14753984D02*
X10703515Y-14744460D01*
X10703515Y-14744460D02*
X10693991Y-14734936D01*
X10693991Y-14734936D02*
X10684467Y-14715888D01*
X10684467Y-14715888D02*
X10674944Y-14677793D01*
X10674944Y-14677793D02*
X10674944Y-14630174D01*
X10674944Y-14630174D02*
X10684467Y-14592079D01*
X10684467Y-14592079D02*
X10693991Y-14573031D01*
X10693991Y-14573031D02*
X10703515Y-14563508D01*
X10703515Y-14563508D02*
X10722563Y-14553984D01*
X10913039Y-14553984D02*
X10932086Y-14553984D01*
X10932086Y-14553984D02*
X10951134Y-14563508D01*
X10951134Y-14563508D02*
X10960658Y-14573031D01*
X10960658Y-14573031D02*
X10970182Y-14592079D01*
X10970182Y-14592079D02*
X10979705Y-14630174D01*
X10979705Y-14630174D02*
X10979705Y-14677793D01*
X10979705Y-14677793D02*
X10970182Y-14715888D01*
X10970182Y-14715888D02*
X10960658Y-14734936D01*
X10960658Y-14734936D02*
X10951134Y-14744460D01*
X10951134Y-14744460D02*
X10932086Y-14753984D01*
X10932086Y-14753984D02*
X10913039Y-14753984D01*
X10913039Y-14753984D02*
X10893991Y-14744460D01*
X10893991Y-14744460D02*
X10884467Y-14734936D01*
X10884467Y-14734936D02*
X10874944Y-14715888D01*
X10874944Y-14715888D02*
X10865420Y-14677793D01*
X10865420Y-14677793D02*
X10865420Y-14630174D01*
X10865420Y-14630174D02*
X10874944Y-14592079D01*
X10874944Y-14592079D02*
X10884467Y-14573031D01*
X10884467Y-14573031D02*
X10893991Y-14563508D01*
X10893991Y-14563508D02*
X10913039Y-14553984D01*
X11065420Y-14753984D02*
X11065420Y-14620650D01*
X11065420Y-14639698D02*
X11074944Y-14630174D01*
X11074944Y-14630174D02*
X11093991Y-14620650D01*
X11093991Y-14620650D02*
X11122563Y-14620650D01*
X11122563Y-14620650D02*
X11141610Y-14630174D01*
X11141610Y-14630174D02*
X11151134Y-14649222D01*
X11151134Y-14649222D02*
X11151134Y-14753984D01*
X11151134Y-14649222D02*
X11160658Y-14630174D01*
X11160658Y-14630174D02*
X11179705Y-14620650D01*
X11179705Y-14620650D02*
X11208277Y-14620650D01*
X11208277Y-14620650D02*
X11227324Y-14630174D01*
X11227324Y-14630174D02*
X11236848Y-14649222D01*
X11236848Y-14649222D02*
X11236848Y-14753984D01*
X11332086Y-14753984D02*
X11332086Y-14620650D01*
X11332086Y-14639698D02*
X11341610Y-14630174D01*
X11341610Y-14630174D02*
X11360658Y-14620650D01*
X11360658Y-14620650D02*
X11389229Y-14620650D01*
X11389229Y-14620650D02*
X11408277Y-14630174D01*
X11408277Y-14630174D02*
X11417801Y-14649222D01*
X11417801Y-14649222D02*
X11417801Y-14753984D01*
X11417801Y-14649222D02*
X11427324Y-14630174D01*
X11427324Y-14630174D02*
X11446372Y-14620650D01*
X11446372Y-14620650D02*
X11474943Y-14620650D01*
X11474943Y-14620650D02*
X11493991Y-14630174D01*
X11493991Y-14630174D02*
X11503515Y-14649222D01*
X11503515Y-14649222D02*
X11503515Y-14753984D01*
X11893991Y-14544460D02*
X11722563Y-14801603D01*
X12151134Y-14553984D02*
X12170182Y-14553984D01*
X12170182Y-14553984D02*
X12189229Y-14563508D01*
X12189229Y-14563508D02*
X12198753Y-14573031D01*
X12198753Y-14573031D02*
X12208277Y-14592079D01*
X12208277Y-14592079D02*
X12217801Y-14630174D01*
X12217801Y-14630174D02*
X12217801Y-14677793D01*
X12217801Y-14677793D02*
X12208277Y-14715888D01*
X12208277Y-14715888D02*
X12198753Y-14734936D01*
X12198753Y-14734936D02*
X12189229Y-14744460D01*
X12189229Y-14744460D02*
X12170182Y-14753984D01*
X12170182Y-14753984D02*
X12151134Y-14753984D01*
X12151134Y-14753984D02*
X12132086Y-14744460D01*
X12132086Y-14744460D02*
X12122563Y-14734936D01*
X12122563Y-14734936D02*
X12113039Y-14715888D01*
X12113039Y-14715888D02*
X12103515Y-14677793D01*
X12103515Y-14677793D02*
X12103515Y-14630174D01*
X12103515Y-14630174D02*
X12113039Y-14592079D01*
X12113039Y-14592079D02*
X12122563Y-14573031D01*
X12122563Y-14573031D02*
X12132086Y-14563508D01*
X12132086Y-14563508D02*
X12151134Y-14553984D01*
X12303515Y-14734936D02*
X12313039Y-14744460D01*
X12313039Y-14744460D02*
X12303515Y-14753984D01*
X12303515Y-14753984D02*
X12293991Y-14744460D01*
X12293991Y-14744460D02*
X12303515Y-14734936D01*
X12303515Y-14734936D02*
X12303515Y-14753984D01*
X12436848Y-14553984D02*
X12455896Y-14553984D01*
X12455896Y-14553984D02*
X12474944Y-14563508D01*
X12474944Y-14563508D02*
X12484467Y-14573031D01*
X12484467Y-14573031D02*
X12493991Y-14592079D01*
X12493991Y-14592079D02*
X12503515Y-14630174D01*
X12503515Y-14630174D02*
X12503515Y-14677793D01*
X12503515Y-14677793D02*
X12493991Y-14715888D01*
X12493991Y-14715888D02*
X12484467Y-14734936D01*
X12484467Y-14734936D02*
X12474944Y-14744460D01*
X12474944Y-14744460D02*
X12455896Y-14753984D01*
X12455896Y-14753984D02*
X12436848Y-14753984D01*
X12436848Y-14753984D02*
X12417801Y-14744460D01*
X12417801Y-14744460D02*
X12408277Y-14734936D01*
X12408277Y-14734936D02*
X12398753Y-14715888D01*
X12398753Y-14715888D02*
X12389229Y-14677793D01*
X12389229Y-14677793D02*
X12389229Y-14630174D01*
X12389229Y-14630174D02*
X12398753Y-14592079D01*
X12398753Y-14592079D02*
X12408277Y-14573031D01*
X12408277Y-14573031D02*
X12417801Y-14563508D01*
X12417801Y-14563508D02*
X12436848Y-14553984D01*
X12570182Y-14553984D02*
X12693991Y-14553984D01*
X12693991Y-14553984D02*
X12627325Y-14630174D01*
X12627325Y-14630174D02*
X12655896Y-14630174D01*
X12655896Y-14630174D02*
X12674944Y-14639698D01*
X12674944Y-14639698D02*
X12684467Y-14649222D01*
X12684467Y-14649222D02*
X12693991Y-14668269D01*
X12693991Y-14668269D02*
X12693991Y-14715888D01*
X12693991Y-14715888D02*
X12684467Y-14734936D01*
X12684467Y-14734936D02*
X12674944Y-14744460D01*
X12674944Y-14744460D02*
X12655896Y-14753984D01*
X12655896Y-14753984D02*
X12598753Y-14753984D01*
X12598753Y-14753984D02*
X12579706Y-14744460D01*
X12579706Y-14744460D02*
X12570182Y-14734936D01*
X12874944Y-14553984D02*
X12779706Y-14553984D01*
X12779706Y-14553984D02*
X12770182Y-14649222D01*
X12770182Y-14649222D02*
X12779706Y-14639698D01*
X12779706Y-14639698D02*
X12798753Y-14630174D01*
X12798753Y-14630174D02*
X12846372Y-14630174D01*
X12846372Y-14630174D02*
X12865420Y-14639698D01*
X12865420Y-14639698D02*
X12874944Y-14649222D01*
X12874944Y-14649222D02*
X12884467Y-14668269D01*
X12884467Y-14668269D02*
X12884467Y-14715888D01*
X12884467Y-14715888D02*
X12874944Y-14734936D01*
X12874944Y-14734936D02*
X12865420Y-14744460D01*
X12865420Y-14744460D02*
X12846372Y-14753984D01*
X12846372Y-14753984D02*
X12798753Y-14753984D01*
X12798753Y-14753984D02*
X12779706Y-14744460D01*
X12779706Y-14744460D02*
X12770182Y-14734936D01*
X13055896Y-14620650D02*
X13055896Y-14753984D01*
X13008277Y-14544460D02*
X12960658Y-14687317D01*
X12960658Y-14687317D02*
X13084467Y-14687317D01*
X13151134Y-14553984D02*
X13151134Y-14592079D01*
X13227325Y-14553984D02*
X13227325Y-14592079D01*
X13522563Y-14830174D02*
X13513039Y-14820650D01*
X13513039Y-14820650D02*
X13493991Y-14792079D01*
X13493991Y-14792079D02*
X13484468Y-14773031D01*
X13484468Y-14773031D02*
X13474944Y-14744460D01*
X13474944Y-14744460D02*
X13465420Y-14696841D01*
X13465420Y-14696841D02*
X13465420Y-14658746D01*
X13465420Y-14658746D02*
X13474944Y-14611127D01*
X13474944Y-14611127D02*
X13484468Y-14582555D01*
X13484468Y-14582555D02*
X13493991Y-14563508D01*
X13493991Y-14563508D02*
X13513039Y-14534936D01*
X13513039Y-14534936D02*
X13522563Y-14525412D01*
X13684468Y-14553984D02*
X13646372Y-14553984D01*
X13646372Y-14553984D02*
X13627325Y-14563508D01*
X13627325Y-14563508D02*
X13617801Y-14573031D01*
X13617801Y-14573031D02*
X13598753Y-14601603D01*
X13598753Y-14601603D02*
X13589229Y-14639698D01*
X13589229Y-14639698D02*
X13589229Y-14715888D01*
X13589229Y-14715888D02*
X13598753Y-14734936D01*
X13598753Y-14734936D02*
X13608277Y-14744460D01*
X13608277Y-14744460D02*
X13627325Y-14753984D01*
X13627325Y-14753984D02*
X13665420Y-14753984D01*
X13665420Y-14753984D02*
X13684468Y-14744460D01*
X13684468Y-14744460D02*
X13693991Y-14734936D01*
X13693991Y-14734936D02*
X13703515Y-14715888D01*
X13703515Y-14715888D02*
X13703515Y-14668269D01*
X13703515Y-14668269D02*
X13693991Y-14649222D01*
X13693991Y-14649222D02*
X13684468Y-14639698D01*
X13684468Y-14639698D02*
X13665420Y-14630174D01*
X13665420Y-14630174D02*
X13627325Y-14630174D01*
X13627325Y-14630174D02*
X13608277Y-14639698D01*
X13608277Y-14639698D02*
X13598753Y-14649222D01*
X13598753Y-14649222D02*
X13589229Y-14668269D01*
X13941610Y-14753984D02*
X13941610Y-14553984D01*
X14027325Y-14753984D02*
X14027325Y-14649222D01*
X14027325Y-14649222D02*
X14017801Y-14630174D01*
X14017801Y-14630174D02*
X13998753Y-14620650D01*
X13998753Y-14620650D02*
X13970182Y-14620650D01*
X13970182Y-14620650D02*
X13951134Y-14630174D01*
X13951134Y-14630174D02*
X13941610Y-14639698D01*
X14151134Y-14753984D02*
X14132087Y-14744460D01*
X14132087Y-14744460D02*
X14122563Y-14734936D01*
X14122563Y-14734936D02*
X14113039Y-14715888D01*
X14113039Y-14715888D02*
X14113039Y-14658746D01*
X14113039Y-14658746D02*
X14122563Y-14639698D01*
X14122563Y-14639698D02*
X14132087Y-14630174D01*
X14132087Y-14630174D02*
X14151134Y-14620650D01*
X14151134Y-14620650D02*
X14179706Y-14620650D01*
X14179706Y-14620650D02*
X14198753Y-14630174D01*
X14198753Y-14630174D02*
X14208277Y-14639698D01*
X14208277Y-14639698D02*
X14217801Y-14658746D01*
X14217801Y-14658746D02*
X14217801Y-14715888D01*
X14217801Y-14715888D02*
X14208277Y-14734936D01*
X14208277Y-14734936D02*
X14198753Y-14744460D01*
X14198753Y-14744460D02*
X14179706Y-14753984D01*
X14179706Y-14753984D02*
X14151134Y-14753984D01*
X14332087Y-14753984D02*
X14313039Y-14744460D01*
X14313039Y-14744460D02*
X14303515Y-14725412D01*
X14303515Y-14725412D02*
X14303515Y-14553984D01*
X14484468Y-14744460D02*
X14465420Y-14753984D01*
X14465420Y-14753984D02*
X14427325Y-14753984D01*
X14427325Y-14753984D02*
X14408277Y-14744460D01*
X14408277Y-14744460D02*
X14398753Y-14725412D01*
X14398753Y-14725412D02*
X14398753Y-14649222D01*
X14398753Y-14649222D02*
X14408277Y-14630174D01*
X14408277Y-14630174D02*
X14427325Y-14620650D01*
X14427325Y-14620650D02*
X14465420Y-14620650D01*
X14465420Y-14620650D02*
X14484468Y-14630174D01*
X14484468Y-14630174D02*
X14493991Y-14649222D01*
X14493991Y-14649222D02*
X14493991Y-14668269D01*
X14493991Y-14668269D02*
X14398753Y-14687317D01*
X14570182Y-14744460D02*
X14589230Y-14753984D01*
X14589230Y-14753984D02*
X14627325Y-14753984D01*
X14627325Y-14753984D02*
X14646372Y-14744460D01*
X14646372Y-14744460D02*
X14655896Y-14725412D01*
X14655896Y-14725412D02*
X14655896Y-14715888D01*
X14655896Y-14715888D02*
X14646372Y-14696841D01*
X14646372Y-14696841D02*
X14627325Y-14687317D01*
X14627325Y-14687317D02*
X14598753Y-14687317D01*
X14598753Y-14687317D02*
X14579706Y-14677793D01*
X14579706Y-14677793D02*
X14570182Y-14658746D01*
X14570182Y-14658746D02*
X14570182Y-14649222D01*
X14570182Y-14649222D02*
X14579706Y-14630174D01*
X14579706Y-14630174D02*
X14598753Y-14620650D01*
X14598753Y-14620650D02*
X14627325Y-14620650D01*
X14627325Y-14620650D02*
X14646372Y-14630174D01*
X14722563Y-14830174D02*
X14732087Y-14820650D01*
X14732087Y-14820650D02*
X14751134Y-14792079D01*
X14751134Y-14792079D02*
X14760658Y-14773031D01*
X14760658Y-14773031D02*
X14770182Y-14744460D01*
X14770182Y-14744460D02*
X14779706Y-14696841D01*
X14779706Y-14696841D02*
X14779706Y-14658746D01*
X14779706Y-14658746D02*
X14770182Y-14611127D01*
X14770182Y-14611127D02*
X14760658Y-14582555D01*
X14760658Y-14582555D02*
X14751134Y-14563508D01*
X14751134Y-14563508D02*
X14732087Y-14534936D01*
X14732087Y-14534936D02*
X14722563Y-14525412D01*
D12*
X9847500Y-14876500D02*
X9947500Y-14976500D01*
X9947500Y-14876500D02*
X9847500Y-14976500D01*
X9897500Y-14876500D02*
X9897500Y-14976500D01*
X9847500Y-14926500D02*
X9947500Y-14926500D01*
D11*
X10313039Y-15017984D02*
X10198753Y-15017984D01*
X10255896Y-15017984D02*
X10255896Y-14817984D01*
X10255896Y-14817984D02*
X10236848Y-14846555D01*
X10236848Y-14846555D02*
X10217801Y-14865603D01*
X10217801Y-14865603D02*
X10198753Y-14875127D01*
X10398753Y-14998936D02*
X10408277Y-15008460D01*
X10408277Y-15008460D02*
X10398753Y-15017984D01*
X10398753Y-15017984D02*
X10389229Y-15008460D01*
X10389229Y-15008460D02*
X10398753Y-14998936D01*
X10398753Y-14998936D02*
X10398753Y-15017984D01*
X10532086Y-14817984D02*
X10551134Y-14817984D01*
X10551134Y-14817984D02*
X10570182Y-14827508D01*
X10570182Y-14827508D02*
X10579705Y-14837031D01*
X10579705Y-14837031D02*
X10589229Y-14856079D01*
X10589229Y-14856079D02*
X10598753Y-14894174D01*
X10598753Y-14894174D02*
X10598753Y-14941793D01*
X10598753Y-14941793D02*
X10589229Y-14979888D01*
X10589229Y-14979888D02*
X10579705Y-14998936D01*
X10579705Y-14998936D02*
X10570182Y-15008460D01*
X10570182Y-15008460D02*
X10551134Y-15017984D01*
X10551134Y-15017984D02*
X10532086Y-15017984D01*
X10532086Y-15017984D02*
X10513039Y-15008460D01*
X10513039Y-15008460D02*
X10503515Y-14998936D01*
X10503515Y-14998936D02*
X10493991Y-14979888D01*
X10493991Y-14979888D02*
X10484467Y-14941793D01*
X10484467Y-14941793D02*
X10484467Y-14894174D01*
X10484467Y-14894174D02*
X10493991Y-14856079D01*
X10493991Y-14856079D02*
X10503515Y-14837031D01*
X10503515Y-14837031D02*
X10513039Y-14827508D01*
X10513039Y-14827508D02*
X10532086Y-14817984D01*
X10722563Y-14817984D02*
X10741610Y-14817984D01*
X10741610Y-14817984D02*
X10760658Y-14827508D01*
X10760658Y-14827508D02*
X10770182Y-14837031D01*
X10770182Y-14837031D02*
X10779705Y-14856079D01*
X10779705Y-14856079D02*
X10789229Y-14894174D01*
X10789229Y-14894174D02*
X10789229Y-14941793D01*
X10789229Y-14941793D02*
X10779705Y-14979888D01*
X10779705Y-14979888D02*
X10770182Y-14998936D01*
X10770182Y-14998936D02*
X10760658Y-15008460D01*
X10760658Y-15008460D02*
X10741610Y-15017984D01*
X10741610Y-15017984D02*
X10722563Y-15017984D01*
X10722563Y-15017984D02*
X10703515Y-15008460D01*
X10703515Y-15008460D02*
X10693991Y-14998936D01*
X10693991Y-14998936D02*
X10684467Y-14979888D01*
X10684467Y-14979888D02*
X10674944Y-14941793D01*
X10674944Y-14941793D02*
X10674944Y-14894174D01*
X10674944Y-14894174D02*
X10684467Y-14856079D01*
X10684467Y-14856079D02*
X10693991Y-14837031D01*
X10693991Y-14837031D02*
X10703515Y-14827508D01*
X10703515Y-14827508D02*
X10722563Y-14817984D01*
X10913039Y-14817984D02*
X10932086Y-14817984D01*
X10932086Y-14817984D02*
X10951134Y-14827508D01*
X10951134Y-14827508D02*
X10960658Y-14837031D01*
X10960658Y-14837031D02*
X10970182Y-14856079D01*
X10970182Y-14856079D02*
X10979705Y-14894174D01*
X10979705Y-14894174D02*
X10979705Y-14941793D01*
X10979705Y-14941793D02*
X10970182Y-14979888D01*
X10970182Y-14979888D02*
X10960658Y-14998936D01*
X10960658Y-14998936D02*
X10951134Y-15008460D01*
X10951134Y-15008460D02*
X10932086Y-15017984D01*
X10932086Y-15017984D02*
X10913039Y-15017984D01*
X10913039Y-15017984D02*
X10893991Y-15008460D01*
X10893991Y-15008460D02*
X10884467Y-14998936D01*
X10884467Y-14998936D02*
X10874944Y-14979888D01*
X10874944Y-14979888D02*
X10865420Y-14941793D01*
X10865420Y-14941793D02*
X10865420Y-14894174D01*
X10865420Y-14894174D02*
X10874944Y-14856079D01*
X10874944Y-14856079D02*
X10884467Y-14837031D01*
X10884467Y-14837031D02*
X10893991Y-14827508D01*
X10893991Y-14827508D02*
X10913039Y-14817984D01*
X11065420Y-15017984D02*
X11065420Y-14884650D01*
X11065420Y-14903698D02*
X11074944Y-14894174D01*
X11074944Y-14894174D02*
X11093991Y-14884650D01*
X11093991Y-14884650D02*
X11122563Y-14884650D01*
X11122563Y-14884650D02*
X11141610Y-14894174D01*
X11141610Y-14894174D02*
X11151134Y-14913222D01*
X11151134Y-14913222D02*
X11151134Y-15017984D01*
X11151134Y-14913222D02*
X11160658Y-14894174D01*
X11160658Y-14894174D02*
X11179705Y-14884650D01*
X11179705Y-14884650D02*
X11208277Y-14884650D01*
X11208277Y-14884650D02*
X11227324Y-14894174D01*
X11227324Y-14894174D02*
X11236848Y-14913222D01*
X11236848Y-14913222D02*
X11236848Y-15017984D01*
X11332086Y-15017984D02*
X11332086Y-14884650D01*
X11332086Y-14903698D02*
X11341610Y-14894174D01*
X11341610Y-14894174D02*
X11360658Y-14884650D01*
X11360658Y-14884650D02*
X11389229Y-14884650D01*
X11389229Y-14884650D02*
X11408277Y-14894174D01*
X11408277Y-14894174D02*
X11417801Y-14913222D01*
X11417801Y-14913222D02*
X11417801Y-15017984D01*
X11417801Y-14913222D02*
X11427324Y-14894174D01*
X11427324Y-14894174D02*
X11446372Y-14884650D01*
X11446372Y-14884650D02*
X11474943Y-14884650D01*
X11474943Y-14884650D02*
X11493991Y-14894174D01*
X11493991Y-14894174D02*
X11503515Y-14913222D01*
X11503515Y-14913222D02*
X11503515Y-15017984D01*
X11893991Y-14808460D02*
X11722563Y-15065603D01*
X12151134Y-14817984D02*
X12170182Y-14817984D01*
X12170182Y-14817984D02*
X12189229Y-14827508D01*
X12189229Y-14827508D02*
X12198753Y-14837031D01*
X12198753Y-14837031D02*
X12208277Y-14856079D01*
X12208277Y-14856079D02*
X12217801Y-14894174D01*
X12217801Y-14894174D02*
X12217801Y-14941793D01*
X12217801Y-14941793D02*
X12208277Y-14979888D01*
X12208277Y-14979888D02*
X12198753Y-14998936D01*
X12198753Y-14998936D02*
X12189229Y-15008460D01*
X12189229Y-15008460D02*
X12170182Y-15017984D01*
X12170182Y-15017984D02*
X12151134Y-15017984D01*
X12151134Y-15017984D02*
X12132086Y-15008460D01*
X12132086Y-15008460D02*
X12122563Y-14998936D01*
X12122563Y-14998936D02*
X12113039Y-14979888D01*
X12113039Y-14979888D02*
X12103515Y-14941793D01*
X12103515Y-14941793D02*
X12103515Y-14894174D01*
X12103515Y-14894174D02*
X12113039Y-14856079D01*
X12113039Y-14856079D02*
X12122563Y-14837031D01*
X12122563Y-14837031D02*
X12132086Y-14827508D01*
X12132086Y-14827508D02*
X12151134Y-14817984D01*
X12303515Y-14998936D02*
X12313039Y-15008460D01*
X12313039Y-15008460D02*
X12303515Y-15017984D01*
X12303515Y-15017984D02*
X12293991Y-15008460D01*
X12293991Y-15008460D02*
X12303515Y-14998936D01*
X12303515Y-14998936D02*
X12303515Y-15017984D01*
X12436848Y-14817984D02*
X12455896Y-14817984D01*
X12455896Y-14817984D02*
X12474944Y-14827508D01*
X12474944Y-14827508D02*
X12484467Y-14837031D01*
X12484467Y-14837031D02*
X12493991Y-14856079D01*
X12493991Y-14856079D02*
X12503515Y-14894174D01*
X12503515Y-14894174D02*
X12503515Y-14941793D01*
X12503515Y-14941793D02*
X12493991Y-14979888D01*
X12493991Y-14979888D02*
X12484467Y-14998936D01*
X12484467Y-14998936D02*
X12474944Y-15008460D01*
X12474944Y-15008460D02*
X12455896Y-15017984D01*
X12455896Y-15017984D02*
X12436848Y-15017984D01*
X12436848Y-15017984D02*
X12417801Y-15008460D01*
X12417801Y-15008460D02*
X12408277Y-14998936D01*
X12408277Y-14998936D02*
X12398753Y-14979888D01*
X12398753Y-14979888D02*
X12389229Y-14941793D01*
X12389229Y-14941793D02*
X12389229Y-14894174D01*
X12389229Y-14894174D02*
X12398753Y-14856079D01*
X12398753Y-14856079D02*
X12408277Y-14837031D01*
X12408277Y-14837031D02*
X12417801Y-14827508D01*
X12417801Y-14827508D02*
X12436848Y-14817984D01*
X12570182Y-14817984D02*
X12693991Y-14817984D01*
X12693991Y-14817984D02*
X12627325Y-14894174D01*
X12627325Y-14894174D02*
X12655896Y-14894174D01*
X12655896Y-14894174D02*
X12674944Y-14903698D01*
X12674944Y-14903698D02*
X12684467Y-14913222D01*
X12684467Y-14913222D02*
X12693991Y-14932269D01*
X12693991Y-14932269D02*
X12693991Y-14979888D01*
X12693991Y-14979888D02*
X12684467Y-14998936D01*
X12684467Y-14998936D02*
X12674944Y-15008460D01*
X12674944Y-15008460D02*
X12655896Y-15017984D01*
X12655896Y-15017984D02*
X12598753Y-15017984D01*
X12598753Y-15017984D02*
X12579706Y-15008460D01*
X12579706Y-15008460D02*
X12570182Y-14998936D01*
X12789229Y-15017984D02*
X12827325Y-15017984D01*
X12827325Y-15017984D02*
X12846372Y-15008460D01*
X12846372Y-15008460D02*
X12855896Y-14998936D01*
X12855896Y-14998936D02*
X12874944Y-14970365D01*
X12874944Y-14970365D02*
X12884467Y-14932269D01*
X12884467Y-14932269D02*
X12884467Y-14856079D01*
X12884467Y-14856079D02*
X12874944Y-14837031D01*
X12874944Y-14837031D02*
X12865420Y-14827508D01*
X12865420Y-14827508D02*
X12846372Y-14817984D01*
X12846372Y-14817984D02*
X12808277Y-14817984D01*
X12808277Y-14817984D02*
X12789229Y-14827508D01*
X12789229Y-14827508D02*
X12779706Y-14837031D01*
X12779706Y-14837031D02*
X12770182Y-14856079D01*
X12770182Y-14856079D02*
X12770182Y-14903698D01*
X12770182Y-14903698D02*
X12779706Y-14922746D01*
X12779706Y-14922746D02*
X12789229Y-14932269D01*
X12789229Y-14932269D02*
X12808277Y-14941793D01*
X12808277Y-14941793D02*
X12846372Y-14941793D01*
X12846372Y-14941793D02*
X12865420Y-14932269D01*
X12865420Y-14932269D02*
X12874944Y-14922746D01*
X12874944Y-14922746D02*
X12884467Y-14903698D01*
X13055896Y-14884650D02*
X13055896Y-15017984D01*
X13008277Y-14808460D02*
X12960658Y-14951317D01*
X12960658Y-14951317D02*
X13084467Y-14951317D01*
X13151134Y-14817984D02*
X13151134Y-14856079D01*
X13227325Y-14817984D02*
X13227325Y-14856079D01*
X13522563Y-15094174D02*
X13513039Y-15084650D01*
X13513039Y-15084650D02*
X13493991Y-15056079D01*
X13493991Y-15056079D02*
X13484468Y-15037031D01*
X13484468Y-15037031D02*
X13474944Y-15008460D01*
X13474944Y-15008460D02*
X13465420Y-14960841D01*
X13465420Y-14960841D02*
X13465420Y-14922746D01*
X13465420Y-14922746D02*
X13474944Y-14875127D01*
X13474944Y-14875127D02*
X13484468Y-14846555D01*
X13484468Y-14846555D02*
X13493991Y-14827508D01*
X13493991Y-14827508D02*
X13513039Y-14798936D01*
X13513039Y-14798936D02*
X13522563Y-14789412D01*
X13579706Y-14817984D02*
X13713039Y-14817984D01*
X13713039Y-14817984D02*
X13627325Y-15017984D01*
X13941610Y-15017984D02*
X13941610Y-14817984D01*
X14027325Y-15017984D02*
X14027325Y-14913222D01*
X14027325Y-14913222D02*
X14017801Y-14894174D01*
X14017801Y-14894174D02*
X13998753Y-14884650D01*
X13998753Y-14884650D02*
X13970182Y-14884650D01*
X13970182Y-14884650D02*
X13951134Y-14894174D01*
X13951134Y-14894174D02*
X13941610Y-14903698D01*
X14151134Y-15017984D02*
X14132087Y-15008460D01*
X14132087Y-15008460D02*
X14122563Y-14998936D01*
X14122563Y-14998936D02*
X14113039Y-14979888D01*
X14113039Y-14979888D02*
X14113039Y-14922746D01*
X14113039Y-14922746D02*
X14122563Y-14903698D01*
X14122563Y-14903698D02*
X14132087Y-14894174D01*
X14132087Y-14894174D02*
X14151134Y-14884650D01*
X14151134Y-14884650D02*
X14179706Y-14884650D01*
X14179706Y-14884650D02*
X14198753Y-14894174D01*
X14198753Y-14894174D02*
X14208277Y-14903698D01*
X14208277Y-14903698D02*
X14217801Y-14922746D01*
X14217801Y-14922746D02*
X14217801Y-14979888D01*
X14217801Y-14979888D02*
X14208277Y-14998936D01*
X14208277Y-14998936D02*
X14198753Y-15008460D01*
X14198753Y-15008460D02*
X14179706Y-15017984D01*
X14179706Y-15017984D02*
X14151134Y-15017984D01*
X14332087Y-15017984D02*
X14313039Y-15008460D01*
X14313039Y-15008460D02*
X14303515Y-14989412D01*
X14303515Y-14989412D02*
X14303515Y-14817984D01*
X14484468Y-15008460D02*
X14465420Y-15017984D01*
X14465420Y-15017984D02*
X14427325Y-15017984D01*
X14427325Y-15017984D02*
X14408277Y-15008460D01*
X14408277Y-15008460D02*
X14398753Y-14989412D01*
X14398753Y-14989412D02*
X14398753Y-14913222D01*
X14398753Y-14913222D02*
X14408277Y-14894174D01*
X14408277Y-14894174D02*
X14427325Y-14884650D01*
X14427325Y-14884650D02*
X14465420Y-14884650D01*
X14465420Y-14884650D02*
X14484468Y-14894174D01*
X14484468Y-14894174D02*
X14493991Y-14913222D01*
X14493991Y-14913222D02*
X14493991Y-14932269D01*
X14493991Y-14932269D02*
X14398753Y-14951317D01*
X14570182Y-15008460D02*
X14589230Y-15017984D01*
X14589230Y-15017984D02*
X14627325Y-15017984D01*
X14627325Y-15017984D02*
X14646372Y-15008460D01*
X14646372Y-15008460D02*
X14655896Y-14989412D01*
X14655896Y-14989412D02*
X14655896Y-14979888D01*
X14655896Y-14979888D02*
X14646372Y-14960841D01*
X14646372Y-14960841D02*
X14627325Y-14951317D01*
X14627325Y-14951317D02*
X14598753Y-14951317D01*
X14598753Y-14951317D02*
X14579706Y-14941793D01*
X14579706Y-14941793D02*
X14570182Y-14922746D01*
X14570182Y-14922746D02*
X14570182Y-14913222D01*
X14570182Y-14913222D02*
X14579706Y-14894174D01*
X14579706Y-14894174D02*
X14598753Y-14884650D01*
X14598753Y-14884650D02*
X14627325Y-14884650D01*
X14627325Y-14884650D02*
X14646372Y-14894174D01*
X14893992Y-14941793D02*
X15046373Y-14941793D01*
X14970182Y-15017984D02*
X14970182Y-14865603D01*
X15274944Y-14817984D02*
X15398753Y-14817984D01*
X15398753Y-14817984D02*
X15332087Y-14894174D01*
X15332087Y-14894174D02*
X15360658Y-14894174D01*
X15360658Y-14894174D02*
X15379706Y-14903698D01*
X15379706Y-14903698D02*
X15389230Y-14913222D01*
X15389230Y-14913222D02*
X15398753Y-14932269D01*
X15398753Y-14932269D02*
X15398753Y-14979888D01*
X15398753Y-14979888D02*
X15389230Y-14998936D01*
X15389230Y-14998936D02*
X15379706Y-15008460D01*
X15379706Y-15008460D02*
X15360658Y-15017984D01*
X15360658Y-15017984D02*
X15303515Y-15017984D01*
X15303515Y-15017984D02*
X15284468Y-15008460D01*
X15284468Y-15008460D02*
X15274944Y-14998936D01*
X15627325Y-15008460D02*
X15646373Y-15017984D01*
X15646373Y-15017984D02*
X15684468Y-15017984D01*
X15684468Y-15017984D02*
X15703515Y-15008460D01*
X15703515Y-15008460D02*
X15713039Y-14989412D01*
X15713039Y-14989412D02*
X15713039Y-14979888D01*
X15713039Y-14979888D02*
X15703515Y-14960841D01*
X15703515Y-14960841D02*
X15684468Y-14951317D01*
X15684468Y-14951317D02*
X15655896Y-14951317D01*
X15655896Y-14951317D02*
X15636849Y-14941793D01*
X15636849Y-14941793D02*
X15627325Y-14922746D01*
X15627325Y-14922746D02*
X15627325Y-14913222D01*
X15627325Y-14913222D02*
X15636849Y-14894174D01*
X15636849Y-14894174D02*
X15655896Y-14884650D01*
X15655896Y-14884650D02*
X15684468Y-14884650D01*
X15684468Y-14884650D02*
X15703515Y-14894174D01*
X15827325Y-15017984D02*
X15808277Y-15008460D01*
X15808277Y-15008460D02*
X15798754Y-14989412D01*
X15798754Y-14989412D02*
X15798754Y-14817984D01*
X15932087Y-15017984D02*
X15913039Y-15008460D01*
X15913039Y-15008460D02*
X15903515Y-14998936D01*
X15903515Y-14998936D02*
X15893992Y-14979888D01*
X15893992Y-14979888D02*
X15893992Y-14922746D01*
X15893992Y-14922746D02*
X15903515Y-14903698D01*
X15903515Y-14903698D02*
X15913039Y-14894174D01*
X15913039Y-14894174D02*
X15932087Y-14884650D01*
X15932087Y-14884650D02*
X15960658Y-14884650D01*
X15960658Y-14884650D02*
X15979706Y-14894174D01*
X15979706Y-14894174D02*
X15989230Y-14903698D01*
X15989230Y-14903698D02*
X15998754Y-14922746D01*
X15998754Y-14922746D02*
X15998754Y-14979888D01*
X15998754Y-14979888D02*
X15989230Y-14998936D01*
X15989230Y-14998936D02*
X15979706Y-15008460D01*
X15979706Y-15008460D02*
X15960658Y-15017984D01*
X15960658Y-15017984D02*
X15932087Y-15017984D01*
X16055896Y-14884650D02*
X16132087Y-14884650D01*
X16084468Y-14817984D02*
X16084468Y-14989412D01*
X16084468Y-14989412D02*
X16093992Y-15008460D01*
X16093992Y-15008460D02*
X16113039Y-15017984D01*
X16113039Y-15017984D02*
X16132087Y-15017984D01*
X16189230Y-15008460D02*
X16208277Y-15017984D01*
X16208277Y-15017984D02*
X16246373Y-15017984D01*
X16246373Y-15017984D02*
X16265420Y-15008460D01*
X16265420Y-15008460D02*
X16274944Y-14989412D01*
X16274944Y-14989412D02*
X16274944Y-14979888D01*
X16274944Y-14979888D02*
X16265420Y-14960841D01*
X16265420Y-14960841D02*
X16246373Y-14951317D01*
X16246373Y-14951317D02*
X16217801Y-14951317D01*
X16217801Y-14951317D02*
X16198754Y-14941793D01*
X16198754Y-14941793D02*
X16189230Y-14922746D01*
X16189230Y-14922746D02*
X16189230Y-14913222D01*
X16189230Y-14913222D02*
X16198754Y-14894174D01*
X16198754Y-14894174D02*
X16217801Y-14884650D01*
X16217801Y-14884650D02*
X16246373Y-14884650D01*
X16246373Y-14884650D02*
X16265420Y-14894174D01*
X16341611Y-15094174D02*
X16351135Y-15084650D01*
X16351135Y-15084650D02*
X16370182Y-15056079D01*
X16370182Y-15056079D02*
X16379706Y-15037031D01*
X16379706Y-15037031D02*
X16389230Y-15008460D01*
X16389230Y-15008460D02*
X16398754Y-14960841D01*
X16398754Y-14960841D02*
X16398754Y-14922746D01*
X16398754Y-14922746D02*
X16389230Y-14875127D01*
X16389230Y-14875127D02*
X16379706Y-14846555D01*
X16379706Y-14846555D02*
X16370182Y-14827508D01*
X16370182Y-14827508D02*
X16351135Y-14798936D01*
X16351135Y-14798936D02*
X16341611Y-14789412D01*
X9747500Y-15090500D02*
X9947500Y-15290500D01*
X9947500Y-15090500D02*
X9747500Y-15290500D01*
X9918211Y-15261211D02*
X9918211Y-15119789D01*
X9776789Y-15119789D01*
X9776789Y-15261211D01*
X9918211Y-15261211D01*
X10198753Y-15101031D02*
X10208277Y-15091508D01*
X10208277Y-15091508D02*
X10227324Y-15081984D01*
X10227324Y-15081984D02*
X10274944Y-15081984D01*
X10274944Y-15081984D02*
X10293991Y-15091508D01*
X10293991Y-15091508D02*
X10303515Y-15101031D01*
X10303515Y-15101031D02*
X10313039Y-15120079D01*
X10313039Y-15120079D02*
X10313039Y-15139127D01*
X10313039Y-15139127D02*
X10303515Y-15167698D01*
X10303515Y-15167698D02*
X10189229Y-15281984D01*
X10189229Y-15281984D02*
X10313039Y-15281984D01*
X10398753Y-15262936D02*
X10408277Y-15272460D01*
X10408277Y-15272460D02*
X10398753Y-15281984D01*
X10398753Y-15281984D02*
X10389229Y-15272460D01*
X10389229Y-15272460D02*
X10398753Y-15262936D01*
X10398753Y-15262936D02*
X10398753Y-15281984D01*
X10474944Y-15081984D02*
X10608277Y-15081984D01*
X10608277Y-15081984D02*
X10522563Y-15281984D01*
X10722563Y-15081984D02*
X10741610Y-15081984D01*
X10741610Y-15081984D02*
X10760658Y-15091508D01*
X10760658Y-15091508D02*
X10770182Y-15101031D01*
X10770182Y-15101031D02*
X10779705Y-15120079D01*
X10779705Y-15120079D02*
X10789229Y-15158174D01*
X10789229Y-15158174D02*
X10789229Y-15205793D01*
X10789229Y-15205793D02*
X10779705Y-15243888D01*
X10779705Y-15243888D02*
X10770182Y-15262936D01*
X10770182Y-15262936D02*
X10760658Y-15272460D01*
X10760658Y-15272460D02*
X10741610Y-15281984D01*
X10741610Y-15281984D02*
X10722563Y-15281984D01*
X10722563Y-15281984D02*
X10703515Y-15272460D01*
X10703515Y-15272460D02*
X10693991Y-15262936D01*
X10693991Y-15262936D02*
X10684467Y-15243888D01*
X10684467Y-15243888D02*
X10674944Y-15205793D01*
X10674944Y-15205793D02*
X10674944Y-15158174D01*
X10674944Y-15158174D02*
X10684467Y-15120079D01*
X10684467Y-15120079D02*
X10693991Y-15101031D01*
X10693991Y-15101031D02*
X10703515Y-15091508D01*
X10703515Y-15091508D02*
X10722563Y-15081984D01*
X10913039Y-15081984D02*
X10932086Y-15081984D01*
X10932086Y-15081984D02*
X10951134Y-15091508D01*
X10951134Y-15091508D02*
X10960658Y-15101031D01*
X10960658Y-15101031D02*
X10970182Y-15120079D01*
X10970182Y-15120079D02*
X10979705Y-15158174D01*
X10979705Y-15158174D02*
X10979705Y-15205793D01*
X10979705Y-15205793D02*
X10970182Y-15243888D01*
X10970182Y-15243888D02*
X10960658Y-15262936D01*
X10960658Y-15262936D02*
X10951134Y-15272460D01*
X10951134Y-15272460D02*
X10932086Y-15281984D01*
X10932086Y-15281984D02*
X10913039Y-15281984D01*
X10913039Y-15281984D02*
X10893991Y-15272460D01*
X10893991Y-15272460D02*
X10884467Y-15262936D01*
X10884467Y-15262936D02*
X10874944Y-15243888D01*
X10874944Y-15243888D02*
X10865420Y-15205793D01*
X10865420Y-15205793D02*
X10865420Y-15158174D01*
X10865420Y-15158174D02*
X10874944Y-15120079D01*
X10874944Y-15120079D02*
X10884467Y-15101031D01*
X10884467Y-15101031D02*
X10893991Y-15091508D01*
X10893991Y-15091508D02*
X10913039Y-15081984D01*
X11065420Y-15281984D02*
X11065420Y-15148650D01*
X11065420Y-15167698D02*
X11074944Y-15158174D01*
X11074944Y-15158174D02*
X11093991Y-15148650D01*
X11093991Y-15148650D02*
X11122563Y-15148650D01*
X11122563Y-15148650D02*
X11141610Y-15158174D01*
X11141610Y-15158174D02*
X11151134Y-15177222D01*
X11151134Y-15177222D02*
X11151134Y-15281984D01*
X11151134Y-15177222D02*
X11160658Y-15158174D01*
X11160658Y-15158174D02*
X11179705Y-15148650D01*
X11179705Y-15148650D02*
X11208277Y-15148650D01*
X11208277Y-15148650D02*
X11227324Y-15158174D01*
X11227324Y-15158174D02*
X11236848Y-15177222D01*
X11236848Y-15177222D02*
X11236848Y-15281984D01*
X11332086Y-15281984D02*
X11332086Y-15148650D01*
X11332086Y-15167698D02*
X11341610Y-15158174D01*
X11341610Y-15158174D02*
X11360658Y-15148650D01*
X11360658Y-15148650D02*
X11389229Y-15148650D01*
X11389229Y-15148650D02*
X11408277Y-15158174D01*
X11408277Y-15158174D02*
X11417801Y-15177222D01*
X11417801Y-15177222D02*
X11417801Y-15281984D01*
X11417801Y-15177222D02*
X11427324Y-15158174D01*
X11427324Y-15158174D02*
X11446372Y-15148650D01*
X11446372Y-15148650D02*
X11474943Y-15148650D01*
X11474943Y-15148650D02*
X11493991Y-15158174D01*
X11493991Y-15158174D02*
X11503515Y-15177222D01*
X11503515Y-15177222D02*
X11503515Y-15281984D01*
X11893991Y-15072460D02*
X11722563Y-15329603D01*
X12151134Y-15081984D02*
X12170182Y-15081984D01*
X12170182Y-15081984D02*
X12189229Y-15091508D01*
X12189229Y-15091508D02*
X12198753Y-15101031D01*
X12198753Y-15101031D02*
X12208277Y-15120079D01*
X12208277Y-15120079D02*
X12217801Y-15158174D01*
X12217801Y-15158174D02*
X12217801Y-15205793D01*
X12217801Y-15205793D02*
X12208277Y-15243888D01*
X12208277Y-15243888D02*
X12198753Y-15262936D01*
X12198753Y-15262936D02*
X12189229Y-15272460D01*
X12189229Y-15272460D02*
X12170182Y-15281984D01*
X12170182Y-15281984D02*
X12151134Y-15281984D01*
X12151134Y-15281984D02*
X12132086Y-15272460D01*
X12132086Y-15272460D02*
X12122563Y-15262936D01*
X12122563Y-15262936D02*
X12113039Y-15243888D01*
X12113039Y-15243888D02*
X12103515Y-15205793D01*
X12103515Y-15205793D02*
X12103515Y-15158174D01*
X12103515Y-15158174D02*
X12113039Y-15120079D01*
X12113039Y-15120079D02*
X12122563Y-15101031D01*
X12122563Y-15101031D02*
X12132086Y-15091508D01*
X12132086Y-15091508D02*
X12151134Y-15081984D01*
X12303515Y-15262936D02*
X12313039Y-15272460D01*
X12313039Y-15272460D02*
X12303515Y-15281984D01*
X12303515Y-15281984D02*
X12293991Y-15272460D01*
X12293991Y-15272460D02*
X12303515Y-15262936D01*
X12303515Y-15262936D02*
X12303515Y-15281984D01*
X12503515Y-15281984D02*
X12389229Y-15281984D01*
X12446372Y-15281984D02*
X12446372Y-15081984D01*
X12446372Y-15081984D02*
X12427325Y-15110555D01*
X12427325Y-15110555D02*
X12408277Y-15129603D01*
X12408277Y-15129603D02*
X12389229Y-15139127D01*
X12627325Y-15081984D02*
X12646372Y-15081984D01*
X12646372Y-15081984D02*
X12665420Y-15091508D01*
X12665420Y-15091508D02*
X12674944Y-15101031D01*
X12674944Y-15101031D02*
X12684467Y-15120079D01*
X12684467Y-15120079D02*
X12693991Y-15158174D01*
X12693991Y-15158174D02*
X12693991Y-15205793D01*
X12693991Y-15205793D02*
X12684467Y-15243888D01*
X12684467Y-15243888D02*
X12674944Y-15262936D01*
X12674944Y-15262936D02*
X12665420Y-15272460D01*
X12665420Y-15272460D02*
X12646372Y-15281984D01*
X12646372Y-15281984D02*
X12627325Y-15281984D01*
X12627325Y-15281984D02*
X12608277Y-15272460D01*
X12608277Y-15272460D02*
X12598753Y-15262936D01*
X12598753Y-15262936D02*
X12589229Y-15243888D01*
X12589229Y-15243888D02*
X12579706Y-15205793D01*
X12579706Y-15205793D02*
X12579706Y-15158174D01*
X12579706Y-15158174D02*
X12589229Y-15120079D01*
X12589229Y-15120079D02*
X12598753Y-15101031D01*
X12598753Y-15101031D02*
X12608277Y-15091508D01*
X12608277Y-15091508D02*
X12627325Y-15081984D01*
X12865420Y-15081984D02*
X12827325Y-15081984D01*
X12827325Y-15081984D02*
X12808277Y-15091508D01*
X12808277Y-15091508D02*
X12798753Y-15101031D01*
X12798753Y-15101031D02*
X12779706Y-15129603D01*
X12779706Y-15129603D02*
X12770182Y-15167698D01*
X12770182Y-15167698D02*
X12770182Y-15243888D01*
X12770182Y-15243888D02*
X12779706Y-15262936D01*
X12779706Y-15262936D02*
X12789229Y-15272460D01*
X12789229Y-15272460D02*
X12808277Y-15281984D01*
X12808277Y-15281984D02*
X12846372Y-15281984D01*
X12846372Y-15281984D02*
X12865420Y-15272460D01*
X12865420Y-15272460D02*
X12874944Y-15262936D01*
X12874944Y-15262936D02*
X12884467Y-15243888D01*
X12884467Y-15243888D02*
X12884467Y-15196269D01*
X12884467Y-15196269D02*
X12874944Y-15177222D01*
X12874944Y-15177222D02*
X12865420Y-15167698D01*
X12865420Y-15167698D02*
X12846372Y-15158174D01*
X12846372Y-15158174D02*
X12808277Y-15158174D01*
X12808277Y-15158174D02*
X12789229Y-15167698D01*
X12789229Y-15167698D02*
X12779706Y-15177222D01*
X12779706Y-15177222D02*
X12770182Y-15196269D01*
X12951134Y-15081984D02*
X13074944Y-15081984D01*
X13074944Y-15081984D02*
X13008277Y-15158174D01*
X13008277Y-15158174D02*
X13036848Y-15158174D01*
X13036848Y-15158174D02*
X13055896Y-15167698D01*
X13055896Y-15167698D02*
X13065420Y-15177222D01*
X13065420Y-15177222D02*
X13074944Y-15196269D01*
X13074944Y-15196269D02*
X13074944Y-15243888D01*
X13074944Y-15243888D02*
X13065420Y-15262936D01*
X13065420Y-15262936D02*
X13055896Y-15272460D01*
X13055896Y-15272460D02*
X13036848Y-15281984D01*
X13036848Y-15281984D02*
X12979706Y-15281984D01*
X12979706Y-15281984D02*
X12960658Y-15272460D01*
X12960658Y-15272460D02*
X12951134Y-15262936D01*
X13151134Y-15081984D02*
X13151134Y-15120079D01*
X13227325Y-15081984D02*
X13227325Y-15120079D01*
X13522563Y-15358174D02*
X13513039Y-15348650D01*
X13513039Y-15348650D02*
X13493991Y-15320079D01*
X13493991Y-15320079D02*
X13484468Y-15301031D01*
X13484468Y-15301031D02*
X13474944Y-15272460D01*
X13474944Y-15272460D02*
X13465420Y-15224841D01*
X13465420Y-15224841D02*
X13465420Y-15186746D01*
X13465420Y-15186746D02*
X13474944Y-15139127D01*
X13474944Y-15139127D02*
X13484468Y-15110555D01*
X13484468Y-15110555D02*
X13493991Y-15091508D01*
X13493991Y-15091508D02*
X13513039Y-15062936D01*
X13513039Y-15062936D02*
X13522563Y-15053412D01*
X13684468Y-15148650D02*
X13684468Y-15281984D01*
X13636848Y-15072460D02*
X13589229Y-15215317D01*
X13589229Y-15215317D02*
X13713039Y-15215317D01*
X13941610Y-15281984D02*
X13941610Y-15081984D01*
X14027325Y-15281984D02*
X14027325Y-15177222D01*
X14027325Y-15177222D02*
X14017801Y-15158174D01*
X14017801Y-15158174D02*
X13998753Y-15148650D01*
X13998753Y-15148650D02*
X13970182Y-15148650D01*
X13970182Y-15148650D02*
X13951134Y-15158174D01*
X13951134Y-15158174D02*
X13941610Y-15167698D01*
X14151134Y-15281984D02*
X14132087Y-15272460D01*
X14132087Y-15272460D02*
X14122563Y-15262936D01*
X14122563Y-15262936D02*
X14113039Y-15243888D01*
X14113039Y-15243888D02*
X14113039Y-15186746D01*
X14113039Y-15186746D02*
X14122563Y-15167698D01*
X14122563Y-15167698D02*
X14132087Y-15158174D01*
X14132087Y-15158174D02*
X14151134Y-15148650D01*
X14151134Y-15148650D02*
X14179706Y-15148650D01*
X14179706Y-15148650D02*
X14198753Y-15158174D01*
X14198753Y-15158174D02*
X14208277Y-15167698D01*
X14208277Y-15167698D02*
X14217801Y-15186746D01*
X14217801Y-15186746D02*
X14217801Y-15243888D01*
X14217801Y-15243888D02*
X14208277Y-15262936D01*
X14208277Y-15262936D02*
X14198753Y-15272460D01*
X14198753Y-15272460D02*
X14179706Y-15281984D01*
X14179706Y-15281984D02*
X14151134Y-15281984D01*
X14332087Y-15281984D02*
X14313039Y-15272460D01*
X14313039Y-15272460D02*
X14303515Y-15253412D01*
X14303515Y-15253412D02*
X14303515Y-15081984D01*
X14484468Y-15272460D02*
X14465420Y-15281984D01*
X14465420Y-15281984D02*
X14427325Y-15281984D01*
X14427325Y-15281984D02*
X14408277Y-15272460D01*
X14408277Y-15272460D02*
X14398753Y-15253412D01*
X14398753Y-15253412D02*
X14398753Y-15177222D01*
X14398753Y-15177222D02*
X14408277Y-15158174D01*
X14408277Y-15158174D02*
X14427325Y-15148650D01*
X14427325Y-15148650D02*
X14465420Y-15148650D01*
X14465420Y-15148650D02*
X14484468Y-15158174D01*
X14484468Y-15158174D02*
X14493991Y-15177222D01*
X14493991Y-15177222D02*
X14493991Y-15196269D01*
X14493991Y-15196269D02*
X14398753Y-15215317D01*
X14570182Y-15272460D02*
X14589230Y-15281984D01*
X14589230Y-15281984D02*
X14627325Y-15281984D01*
X14627325Y-15281984D02*
X14646372Y-15272460D01*
X14646372Y-15272460D02*
X14655896Y-15253412D01*
X14655896Y-15253412D02*
X14655896Y-15243888D01*
X14655896Y-15243888D02*
X14646372Y-15224841D01*
X14646372Y-15224841D02*
X14627325Y-15215317D01*
X14627325Y-15215317D02*
X14598753Y-15215317D01*
X14598753Y-15215317D02*
X14579706Y-15205793D01*
X14579706Y-15205793D02*
X14570182Y-15186746D01*
X14570182Y-15186746D02*
X14570182Y-15177222D01*
X14570182Y-15177222D02*
X14579706Y-15158174D01*
X14579706Y-15158174D02*
X14598753Y-15148650D01*
X14598753Y-15148650D02*
X14627325Y-15148650D01*
X14627325Y-15148650D02*
X14646372Y-15158174D01*
X14722563Y-15358174D02*
X14732087Y-15348650D01*
X14732087Y-15348650D02*
X14751134Y-15320079D01*
X14751134Y-15320079D02*
X14760658Y-15301031D01*
X14760658Y-15301031D02*
X14770182Y-15272460D01*
X14770182Y-15272460D02*
X14779706Y-15224841D01*
X14779706Y-15224841D02*
X14779706Y-15186746D01*
X14779706Y-15186746D02*
X14770182Y-15139127D01*
X14770182Y-15139127D02*
X14760658Y-15110555D01*
X14760658Y-15110555D02*
X14751134Y-15091508D01*
X14751134Y-15091508D02*
X14732087Y-15062936D01*
X14732087Y-15062936D02*
X14722563Y-15053412D01*
M02*
