%TF.GenerationSoftware,KiCad,Pcbnew,8.0.8*%
%TF.CreationDate,2025-02-21T18:26:29+02:00*%
%TF.ProjectId,iis22183,69697332-3231-4383-932e-6b696361645f,0*%
%TF.SameCoordinates,Original*%
%TF.FileFunction,Copper,L2,Bot*%
%TF.FilePolarity,Positive*%
%FSLAX46Y46*%
G04 Gerber Fmt 4.6, Leading zero omitted, Abs format (unit mm)*
G04 Created by KiCad (PCBNEW 8.0.8) date 2025-02-21 18:26:29*
%MOMM*%
%LPD*%
G01*
G04 APERTURE LIST*
G04 Aperture macros list*
%AMRoundRect*
0 Rectangle with rounded corners*
0 $1 Rounding radius*
0 $2 $3 $4 $5 $6 $7 $8 $9 X,Y pos of 4 corners*
0 Add a 4 corners polygon primitive as box body*
4,1,4,$2,$3,$4,$5,$6,$7,$8,$9,$2,$3,0*
0 Add four circle primitives for the rounded corners*
1,1,$1+$1,$2,$3*
1,1,$1+$1,$4,$5*
1,1,$1+$1,$6,$7*
1,1,$1+$1,$8,$9*
0 Add four rect primitives between the rounded corners*
20,1,$1+$1,$2,$3,$4,$5,0*
20,1,$1+$1,$4,$5,$6,$7,0*
20,1,$1+$1,$6,$7,$8,$9,0*
20,1,$1+$1,$8,$9,$2,$3,0*%
%AMHorizOval*
0 Thick line with rounded ends*
0 $1 width*
0 $2 $3 position (X,Y) of the first rounded end (center of the circle)*
0 $4 $5 position (X,Y) of the second rounded end (center of the circle)*
0 Add line between two ends*
20,1,$1,$2,$3,$4,$5,0*
0 Add two circle primitives to create the rounded ends*
1,1,$1,$2,$3*
1,1,$1,$4,$5*%
%AMRotRect*
0 Rectangle, with rotation*
0 The origin of the aperture is its center*
0 $1 length*
0 $2 width*
0 $3 Rotation angle, in degrees counterclockwise*
0 Add horizontal line*
21,1,$1,$2,0,0,$3*%
G04 Aperture macros list end*
%TA.AperFunction,ComponentPad*%
%ADD10C,0.800000*%
%TD*%
%TA.AperFunction,ComponentPad*%
%ADD11C,5.400000*%
%TD*%
%TA.AperFunction,ComponentPad*%
%ADD12R,1.700000X1.700000*%
%TD*%
%TA.AperFunction,ComponentPad*%
%ADD13R,3.500000X3.500000*%
%TD*%
%TA.AperFunction,ComponentPad*%
%ADD14RoundRect,0.750000X0.750000X1.000000X-0.750000X1.000000X-0.750000X-1.000000X0.750000X-1.000000X0*%
%TD*%
%TA.AperFunction,ComponentPad*%
%ADD15RoundRect,0.875000X0.875000X0.875000X-0.875000X0.875000X-0.875000X-0.875000X0.875000X-0.875000X0*%
%TD*%
%TA.AperFunction,ComponentPad*%
%ADD16R,1.800000X1.800000*%
%TD*%
%TA.AperFunction,ComponentPad*%
%ADD17C,1.800000*%
%TD*%
%TA.AperFunction,ComponentPad*%
%ADD18RotRect,1.050000X1.500000X45.000000*%
%TD*%
%TA.AperFunction,ComponentPad*%
%ADD19HorizOval,1.050000X-0.159099X0.159099X0.159099X-0.159099X0*%
%TD*%
%TA.AperFunction,ComponentPad*%
%ADD20R,1.600000X1.600000*%
%TD*%
%TA.AperFunction,ComponentPad*%
%ADD21O,1.600000X1.600000*%
%TD*%
%TA.AperFunction,ComponentPad*%
%ADD22RotRect,1.800000X1.800000X45.000000*%
%TD*%
%TA.AperFunction,ComponentPad*%
%ADD23O,1.700000X1.700000*%
%TD*%
%TA.AperFunction,ViaPad*%
%ADD24C,0.800000*%
%TD*%
%TA.AperFunction,ViaPad*%
%ADD25C,0.600000*%
%TD*%
%TA.AperFunction,Conductor*%
%ADD26C,0.300000*%
%TD*%
%TA.AperFunction,Conductor*%
%ADD27C,0.200000*%
%TD*%
G04 APERTURE END LIST*
D10*
%TO.P,H1,1,1*%
%TO.N,GND*%
X102543109Y-78068109D03*
X103136218Y-76636218D03*
X103136218Y-79500000D03*
X104568109Y-76043109D03*
D11*
X104568109Y-78068109D03*
D10*
X104568109Y-80093109D03*
X106000000Y-76636218D03*
X106000000Y-79500000D03*
X106593109Y-78068109D03*
%TD*%
%TO.P,H3,1,1*%
%TO.N,GND*%
X196406891Y-78068109D03*
X197000000Y-76636218D03*
X197000000Y-79500000D03*
X198431891Y-76043109D03*
D11*
X198431891Y-78068109D03*
D10*
X198431891Y-80093109D03*
X199863782Y-76636218D03*
X199863782Y-79500000D03*
X200456891Y-78068109D03*
%TD*%
D12*
%TO.P,J3,1,Pin_1*%
%TO.N,/DOOR*%
X124750000Y-83900000D03*
%TD*%
D13*
%TO.P,J2,1*%
%TO.N,Net-(F1-Pad1)*%
X189500000Y-100457500D03*
D14*
%TO.P,J2,2*%
%TO.N,GND*%
X195500000Y-100457500D03*
D15*
%TO.P,J2,3*%
X192500000Y-95757500D03*
%TD*%
D16*
%TO.P,D3,1,K*%
%TO.N,GND*%
X120750000Y-99250000D03*
D17*
%TO.P,D3,2,A*%
%TO.N,Net-(D3-A)*%
X123290000Y-99250000D03*
%TD*%
D10*
%TO.P,H4,1,1*%
%TO.N,GND*%
X196406891Y-122500000D03*
X197000000Y-121068109D03*
X197000000Y-123931891D03*
X198431891Y-120475000D03*
D11*
X198431891Y-122500000D03*
D10*
X198431891Y-124525000D03*
X199863782Y-121068109D03*
X199863782Y-123931891D03*
X200456891Y-122500000D03*
%TD*%
D18*
%TO.P,U2,1,V+*%
%TO.N,5V*%
X167101974Y-80547073D03*
D19*
%TO.P,U2,2,Signal*%
%TO.N,/TMP1*%
X168000000Y-79649047D03*
%TO.P,U2,3,GND*%
%TO.N,GND*%
X168898025Y-78751022D03*
%TD*%
D20*
%TO.P,U1,1,~{RESET}/PC6*%
%TO.N,/RESET*%
X137380000Y-85140000D03*
D21*
%TO.P,U1,2,PD0*%
%TO.N,unconnected-(U1-PD0-Pad2)*%
X137380000Y-87680000D03*
%TO.P,U1,3,PD1*%
%TO.N,unconnected-(U1-PD1-Pad3)*%
X137380000Y-90220000D03*
%TO.P,U1,4,PD2*%
%TO.N,/DOOR*%
X137380000Y-92760000D03*
%TO.P,U1,5,PD3*%
%TO.N,Net-(U1-PD3)*%
X137380000Y-95300000D03*
%TO.P,U1,6,PD4*%
%TO.N,Net-(U1-PD4)*%
X137380000Y-97840000D03*
%TO.P,U1,7,VCC*%
%TO.N,5V*%
X137380000Y-100380000D03*
%TO.P,U1,8,GND*%
%TO.N,GND*%
X137380000Y-102920000D03*
%TO.P,U1,9,XTAL1/PB6*%
%TO.N,/XTAL1*%
X137380000Y-105460000D03*
%TO.P,U1,10,XTAL2/PB7*%
%TO.N,/XTAL2*%
X137380000Y-108000000D03*
%TO.P,U1,11,PD5*%
%TO.N,unconnected-(U1-PD5-Pad11)*%
X137380000Y-110540000D03*
%TO.P,U1,12,PD6*%
%TO.N,unconnected-(U1-PD6-Pad12)*%
X137380000Y-113080000D03*
%TO.P,U1,13,PD7*%
%TO.N,unconnected-(U1-PD7-Pad13)*%
X137380000Y-115620000D03*
%TO.P,U1,14,PB0*%
%TO.N,unconnected-(U1-PB0-Pad14)*%
X137380000Y-118160000D03*
%TO.P,U1,15,PB1*%
%TO.N,unconnected-(U1-PB1-Pad15)*%
X145000000Y-118160000D03*
%TO.P,U1,16,PB2*%
%TO.N,unconnected-(U1-PB2-Pad16)*%
X145000000Y-115620000D03*
%TO.P,U1,17,PB3*%
%TO.N,Net-(J1-Pin_4)*%
X145000000Y-113080000D03*
%TO.P,U1,18,PB4*%
%TO.N,Net-(J1-Pin_1)*%
X145000000Y-110540000D03*
%TO.P,U1,19,PB5*%
%TO.N,Net-(J1-Pin_3)*%
X145000000Y-108000000D03*
%TO.P,U1,20,AVCC*%
%TO.N,5V*%
X145000000Y-105460000D03*
%TO.P,U1,21,AREF*%
%TO.N,unconnected-(U1-AREF-Pad21)*%
X145000000Y-102920000D03*
%TO.P,U1,22,GND*%
%TO.N,GND*%
X145000000Y-100380000D03*
%TO.P,U1,23,PC0*%
%TO.N,/PHOTO_D*%
X145000000Y-97840000D03*
%TO.P,U1,24,PC1*%
%TO.N,/TMP1*%
X145000000Y-95300000D03*
%TO.P,U1,25,PC2*%
%TO.N,unconnected-(U1-PC2-Pad25)*%
X145000000Y-92760000D03*
%TO.P,U1,26,PC3*%
%TO.N,unconnected-(U1-PC3-Pad26)*%
X145000000Y-90220000D03*
%TO.P,U1,27,PC4*%
%TO.N,unconnected-(U1-PC4-Pad27)*%
X145000000Y-87680000D03*
%TO.P,U1,28,PC5*%
%TO.N,unconnected-(U1-PC5-Pad28)*%
X145000000Y-85140000D03*
%TD*%
D22*
%TO.P,D4,1,K*%
%TO.N,5V*%
X152203949Y-80296051D03*
D17*
%TO.P,D4,2,A*%
%TO.N,/PHOTO_D*%
X154000000Y-78500000D03*
%TD*%
D16*
%TO.P,D2,1,K*%
%TO.N,GND*%
X108460000Y-99250000D03*
D17*
%TO.P,D2,2,A*%
%TO.N,Net-(D2-A)*%
X111000000Y-99250000D03*
%TD*%
D10*
%TO.P,H2,1,1*%
%TO.N,GND*%
X102450000Y-122500000D03*
X103043109Y-121068109D03*
X103043109Y-123931891D03*
X104475000Y-120475000D03*
D11*
X104475000Y-122500000D03*
D10*
X104475000Y-124525000D03*
X105906891Y-121068109D03*
X105906891Y-123931891D03*
X106500000Y-122500000D03*
%TD*%
D12*
%TO.P,J1,1,Pin_1*%
%TO.N,Net-(J1-Pin_1)*%
X154920000Y-125000000D03*
D23*
%TO.P,J1,2,Pin_2*%
%TO.N,5V*%
X154920000Y-122460000D03*
%TO.P,J1,3,Pin_3*%
%TO.N,Net-(J1-Pin_3)*%
X157460000Y-125000000D03*
%TO.P,J1,4,Pin_4*%
%TO.N,Net-(J1-Pin_4)*%
X157460000Y-122460000D03*
%TO.P,J1,5,Pin_5*%
%TO.N,/RESET*%
X160000000Y-125000000D03*
%TO.P,J1,6,Pin_6*%
%TO.N,GND*%
X160000000Y-122460000D03*
%TD*%
D24*
%TO.N,5V*%
X131250000Y-84000000D03*
D25*
%TO.N,/PHOTO_D*%
X148500000Y-94500000D03*
%TO.N,/TMP1*%
X152000000Y-93000000D03*
%TD*%
D26*
%TO.N,GND*%
X145000000Y-100380000D02*
X142870000Y-100380000D01*
X142870000Y-100380000D02*
X142750000Y-100500000D01*
%TO.N,5V*%
X137616346Y-91370000D02*
X136870000Y-91370000D01*
X138530000Y-92283654D02*
X137616346Y-91370000D01*
X131250000Y-85750000D02*
X131250000Y-84000000D01*
X138530000Y-99230000D02*
X138530000Y-92283654D01*
X136870000Y-91370000D02*
X131250000Y-85750000D01*
X137380000Y-100380000D02*
X138530000Y-99230000D01*
D27*
%TO.N,/PHOTO_D*%
X154000000Y-78500000D02*
X154000000Y-89000000D01*
X154000000Y-89000000D02*
X148500000Y-94500000D01*
%TO.N,Net-(J1-Pin_1)*%
X153770000Y-119310000D02*
X145000000Y-110540000D01*
X154920000Y-125000000D02*
X153770000Y-123850000D01*
X153770000Y-123850000D02*
X153770000Y-119310000D01*
%TO.N,Net-(J1-Pin_3)*%
X157460000Y-125000000D02*
X156070000Y-123610000D01*
X156070000Y-123610000D02*
X156070000Y-119070000D01*
X156070000Y-119070000D02*
X145000000Y-108000000D01*
%TO.N,/RESET*%
X144150000Y-96400000D02*
X138750000Y-91000000D01*
X145455635Y-96400000D02*
X144150000Y-96400000D01*
X160000000Y-125000000D02*
X158850000Y-123850000D01*
X158850000Y-123850000D02*
X158850000Y-109794365D01*
X158850000Y-109794365D02*
X145455635Y-96400000D01*
X138750000Y-86510000D02*
X137380000Y-85140000D01*
X138750000Y-91000000D02*
X138750000Y-86510000D01*
%TO.N,/DOOR*%
X124725000Y-83900000D02*
X128520000Y-83900000D01*
X128520000Y-83900000D02*
X137380000Y-92760000D01*
%TO.N,/TMP1*%
X168303535Y-81446465D02*
X156750000Y-93000000D01*
X156750000Y-93000000D02*
X152000000Y-93000000D01*
X168303535Y-79952582D02*
X168303535Y-81446465D01*
X168000000Y-79649047D02*
X168303535Y-79952582D01*
%TD*%
%TA.AperFunction,Conductor*%
%TO.N,GND*%
G36*
X201504418Y-73500816D02*
G01*
X201704561Y-73515130D01*
X201722063Y-73517647D01*
X201913797Y-73559355D01*
X201930755Y-73564334D01*
X202114609Y-73632909D01*
X202130701Y-73640259D01*
X202302904Y-73734288D01*
X202317784Y-73743849D01*
X202474867Y-73861441D01*
X202488237Y-73873027D01*
X202626972Y-74011762D01*
X202638558Y-74025132D01*
X202756146Y-74182210D01*
X202765711Y-74197095D01*
X202859740Y-74369298D01*
X202867090Y-74385390D01*
X202935662Y-74569236D01*
X202940646Y-74586212D01*
X202982351Y-74777931D01*
X202984869Y-74795442D01*
X202999184Y-74995580D01*
X202999500Y-75004427D01*
X202999500Y-124995572D01*
X202999184Y-125004419D01*
X202984869Y-125204557D01*
X202982351Y-125222068D01*
X202940646Y-125413787D01*
X202935662Y-125430763D01*
X202867090Y-125614609D01*
X202859740Y-125630701D01*
X202765711Y-125802904D01*
X202756146Y-125817789D01*
X202638558Y-125974867D01*
X202626972Y-125988237D01*
X202488237Y-126126972D01*
X202474867Y-126138558D01*
X202317789Y-126256146D01*
X202302904Y-126265711D01*
X202130701Y-126359740D01*
X202114609Y-126367090D01*
X201930763Y-126435662D01*
X201913787Y-126440646D01*
X201722068Y-126482351D01*
X201704557Y-126484869D01*
X201523779Y-126497799D01*
X201504417Y-126499184D01*
X201495572Y-126499500D01*
X160539196Y-126499500D01*
X160472157Y-126479815D01*
X160426402Y-126427011D01*
X160416458Y-126357853D01*
X160445483Y-126294297D01*
X160486791Y-126263118D01*
X160490347Y-126261460D01*
X160677830Y-126174035D01*
X160871401Y-126038495D01*
X161038495Y-125871401D01*
X161174035Y-125677830D01*
X161273903Y-125463663D01*
X161335063Y-125235408D01*
X161355659Y-125000000D01*
X161335063Y-124764592D01*
X161273903Y-124536337D01*
X161174035Y-124322171D01*
X161158683Y-124300245D01*
X161038494Y-124128597D01*
X160871402Y-123961506D01*
X160871401Y-123961505D01*
X160685405Y-123831269D01*
X160641781Y-123776692D01*
X160634588Y-123707193D01*
X160666110Y-123644839D01*
X160685405Y-123628119D01*
X160871082Y-123498105D01*
X161038105Y-123331082D01*
X161173600Y-123137578D01*
X161273429Y-122923492D01*
X161273432Y-122923486D01*
X161330636Y-122710000D01*
X160433012Y-122710000D01*
X160465925Y-122652993D01*
X160500000Y-122525826D01*
X160500000Y-122500000D01*
X195226849Y-122500000D01*
X195247001Y-122858846D01*
X195247003Y-122858858D01*
X195307205Y-123213185D01*
X195307207Y-123213194D01*
X195406703Y-123558552D01*
X195544244Y-123890609D01*
X195544246Y-123890613D01*
X195718106Y-124205189D01*
X195718109Y-124205194D01*
X195926084Y-124498306D01*
X195998734Y-124579601D01*
X197316619Y-123261716D01*
X197402169Y-123379466D01*
X197552425Y-123529722D01*
X197670172Y-123615270D01*
X196352288Y-124933155D01*
X196433584Y-125005806D01*
X196726696Y-125213781D01*
X196726701Y-125213784D01*
X197041277Y-125387644D01*
X197041281Y-125387646D01*
X197373338Y-125525187D01*
X197718696Y-125624683D01*
X197718705Y-125624685D01*
X198073032Y-125684887D01*
X198073044Y-125684889D01*
X198431891Y-125705041D01*
X198790737Y-125684889D01*
X198790749Y-125684887D01*
X199145076Y-125624685D01*
X199145085Y-125624683D01*
X199490443Y-125525187D01*
X199822500Y-125387646D01*
X199822504Y-125387644D01*
X200137080Y-125213784D01*
X200137085Y-125213781D01*
X200430197Y-125005806D01*
X200511492Y-124933155D01*
X199193608Y-123615270D01*
X199311357Y-123529722D01*
X199461613Y-123379466D01*
X199547161Y-123261717D01*
X200865046Y-124579601D01*
X200937697Y-124498306D01*
X201145672Y-124205194D01*
X201145675Y-124205189D01*
X201319535Y-123890613D01*
X201319537Y-123890609D01*
X201457078Y-123558552D01*
X201556574Y-123213194D01*
X201556576Y-123213185D01*
X201616778Y-122858858D01*
X201616780Y-122858846D01*
X201636932Y-122500000D01*
X201616780Y-122141153D01*
X201616778Y-122141141D01*
X201556576Y-121786814D01*
X201556574Y-121786805D01*
X201457078Y-121441447D01*
X201319537Y-121109390D01*
X201319535Y-121109386D01*
X201145675Y-120794810D01*
X201145672Y-120794805D01*
X200937697Y-120501693D01*
X200865046Y-120420397D01*
X199547161Y-121738281D01*
X199461613Y-121620534D01*
X199311357Y-121470278D01*
X199193608Y-121384728D01*
X200511493Y-120066843D01*
X200430197Y-119994193D01*
X200137085Y-119786218D01*
X200137080Y-119786215D01*
X199822504Y-119612355D01*
X199822500Y-119612353D01*
X199490443Y-119474812D01*
X199145085Y-119375316D01*
X199145076Y-119375314D01*
X198790749Y-119315112D01*
X198790737Y-119315110D01*
X198431891Y-119294958D01*
X198073044Y-119315110D01*
X198073032Y-119315112D01*
X197718705Y-119375314D01*
X197718696Y-119375316D01*
X197373338Y-119474812D01*
X197041281Y-119612353D01*
X197041277Y-119612355D01*
X196726701Y-119786215D01*
X196726696Y-119786218D01*
X196433584Y-119994194D01*
X196433576Y-119994199D01*
X196352288Y-120066842D01*
X196352288Y-120066843D01*
X197670173Y-121384728D01*
X197552425Y-121470278D01*
X197402169Y-121620534D01*
X197316619Y-121738282D01*
X195998734Y-120420397D01*
X195998733Y-120420397D01*
X195926090Y-120501685D01*
X195926085Y-120501693D01*
X195718109Y-120794805D01*
X195718106Y-120794810D01*
X195544246Y-121109386D01*
X195544244Y-121109390D01*
X195406703Y-121441447D01*
X195307207Y-121786805D01*
X195307205Y-121786814D01*
X195247003Y-122141141D01*
X195247001Y-122141153D01*
X195226849Y-122500000D01*
X160500000Y-122500000D01*
X160500000Y-122394174D01*
X160465925Y-122267007D01*
X160433012Y-122210000D01*
X161330636Y-122210000D01*
X161330635Y-122209999D01*
X161273432Y-121996513D01*
X161273429Y-121996507D01*
X161173600Y-121782422D01*
X161173599Y-121782420D01*
X161038113Y-121588926D01*
X161038108Y-121588920D01*
X160871082Y-121421894D01*
X160677578Y-121286399D01*
X160463492Y-121186570D01*
X160463486Y-121186567D01*
X160250000Y-121129364D01*
X160250000Y-122026988D01*
X160192993Y-121994075D01*
X160065826Y-121960000D01*
X159934174Y-121960000D01*
X159807007Y-121994075D01*
X159750000Y-122026988D01*
X159750000Y-121129364D01*
X159749999Y-121129363D01*
X159606593Y-121167789D01*
X159536743Y-121166126D01*
X159478881Y-121126963D01*
X159451377Y-121062735D01*
X159450500Y-121048014D01*
X159450500Y-109883425D01*
X159450501Y-109883412D01*
X159450501Y-109715309D01*
X159409576Y-109562579D01*
X159409573Y-109562574D01*
X159330524Y-109425655D01*
X159330518Y-109425647D01*
X148564505Y-98659635D01*
X187249500Y-98659635D01*
X187249500Y-102255370D01*
X187249501Y-102255376D01*
X187255908Y-102314983D01*
X187306202Y-102449828D01*
X187306206Y-102449835D01*
X187392452Y-102565044D01*
X187392455Y-102565047D01*
X187507664Y-102651293D01*
X187507671Y-102651297D01*
X187642517Y-102701591D01*
X187642516Y-102701591D01*
X187649444Y-102702335D01*
X187702127Y-102708000D01*
X191297872Y-102707999D01*
X191357483Y-102701591D01*
X191492331Y-102651296D01*
X191607546Y-102565046D01*
X191693796Y-102449831D01*
X191744091Y-102314983D01*
X191750500Y-102255373D01*
X191750499Y-99393303D01*
X193500000Y-99393303D01*
X193500000Y-100207500D01*
X195000000Y-100207500D01*
X195000000Y-100707500D01*
X193500001Y-100707500D01*
X193500001Y-101521697D01*
X193510400Y-101653832D01*
X193565377Y-101872019D01*
X193658428Y-102076874D01*
X193658431Y-102076880D01*
X193786559Y-102261823D01*
X193786569Y-102261835D01*
X193945664Y-102420930D01*
X193945676Y-102420940D01*
X194130619Y-102549068D01*
X194130625Y-102549071D01*
X194335480Y-102642122D01*
X194553667Y-102697099D01*
X194685810Y-102707499D01*
X195249999Y-102707499D01*
X195250000Y-102707498D01*
X195250000Y-101890512D01*
X195307007Y-101923425D01*
X195434174Y-101957500D01*
X195565826Y-101957500D01*
X195692993Y-101923425D01*
X195750000Y-101890512D01*
X195750000Y-102707499D01*
X196314182Y-102707499D01*
X196314197Y-102707498D01*
X196446332Y-102697099D01*
X196664519Y-102642122D01*
X196869374Y-102549071D01*
X196869380Y-102549068D01*
X197054323Y-102420940D01*
X197054335Y-102420930D01*
X197213430Y-102261835D01*
X197213440Y-102261823D01*
X197341568Y-102076880D01*
X197341571Y-102076874D01*
X197434622Y-101872019D01*
X197489599Y-101653832D01*
X197499999Y-101521696D01*
X197500000Y-101521684D01*
X197500000Y-100707500D01*
X196000000Y-100707500D01*
X196000000Y-100207500D01*
X197499999Y-100207500D01*
X197499999Y-99393317D01*
X197499998Y-99393302D01*
X197489599Y-99261167D01*
X197434622Y-99042980D01*
X197341571Y-98838125D01*
X197341568Y-98838119D01*
X197213440Y-98653176D01*
X197213430Y-98653164D01*
X197054335Y-98494069D01*
X197054323Y-98494059D01*
X196869380Y-98365931D01*
X196869374Y-98365928D01*
X196664519Y-98272877D01*
X196446332Y-98217900D01*
X196314196Y-98207500D01*
X195750000Y-98207500D01*
X195750000Y-99024488D01*
X195692993Y-98991575D01*
X195565826Y-98957500D01*
X195434174Y-98957500D01*
X195307007Y-98991575D01*
X195250000Y-99024488D01*
X195250000Y-98207500D01*
X194685817Y-98207500D01*
X194685802Y-98207501D01*
X194553667Y-98217900D01*
X194335480Y-98272877D01*
X194130625Y-98365928D01*
X194130619Y-98365931D01*
X193945676Y-98494059D01*
X193945664Y-98494069D01*
X193786569Y-98653164D01*
X193786559Y-98653176D01*
X193658431Y-98838119D01*
X193658428Y-98838125D01*
X193565377Y-99042980D01*
X193510400Y-99261167D01*
X193500000Y-99393303D01*
X191750499Y-99393303D01*
X191750499Y-98659628D01*
X191744091Y-98600017D01*
X191737054Y-98581151D01*
X191693797Y-98465171D01*
X191693793Y-98465164D01*
X191607547Y-98349955D01*
X191607544Y-98349952D01*
X191492335Y-98263706D01*
X191492328Y-98263702D01*
X191443492Y-98245488D01*
X191387558Y-98203617D01*
X191363141Y-98138153D01*
X191377992Y-98069880D01*
X191427397Y-98020474D01*
X191493404Y-98005481D01*
X191531382Y-98007498D01*
X191531421Y-98007499D01*
X192249999Y-98007499D01*
X192250000Y-98007498D01*
X192250000Y-96257500D01*
X192750000Y-96257500D01*
X192750000Y-98007499D01*
X193468576Y-98007499D01*
X193468588Y-98007498D01*
X193521191Y-98004705D01*
X193750987Y-97960262D01*
X193969975Y-97877620D01*
X194171841Y-97759160D01*
X194171848Y-97759155D01*
X194350786Y-97608288D01*
X194350788Y-97608286D01*
X194501655Y-97429348D01*
X194501660Y-97429341D01*
X194620120Y-97227475D01*
X194702762Y-97008487D01*
X194747205Y-96778691D01*
X194747205Y-96778690D01*
X194749998Y-96726117D01*
X194750000Y-96726078D01*
X194750000Y-96007500D01*
X193933012Y-96007500D01*
X193965925Y-95950493D01*
X194000000Y-95823326D01*
X194000000Y-95691674D01*
X193965925Y-95564507D01*
X193933012Y-95507500D01*
X194749999Y-95507500D01*
X194749999Y-94788923D01*
X194749998Y-94788911D01*
X194747205Y-94736308D01*
X194702762Y-94506512D01*
X194620120Y-94287524D01*
X194501660Y-94085658D01*
X194501655Y-94085651D01*
X194350788Y-93906713D01*
X194350786Y-93906711D01*
X194171848Y-93755844D01*
X194171841Y-93755839D01*
X193969975Y-93637379D01*
X193750987Y-93554737D01*
X193521190Y-93510294D01*
X193468617Y-93507501D01*
X193468579Y-93507500D01*
X192750000Y-93507500D01*
X192750000Y-95257500D01*
X192250000Y-95257500D01*
X192250000Y-93507500D01*
X191531423Y-93507500D01*
X191531411Y-93507501D01*
X191478808Y-93510294D01*
X191249012Y-93554737D01*
X191030024Y-93637379D01*
X190828158Y-93755839D01*
X190828151Y-93755844D01*
X190649213Y-93906711D01*
X190649211Y-93906713D01*
X190498344Y-94085651D01*
X190498339Y-94085658D01*
X190379879Y-94287524D01*
X190297237Y-94506512D01*
X190252794Y-94736308D01*
X190252794Y-94736309D01*
X190250001Y-94788882D01*
X190250000Y-94788921D01*
X190250000Y-95507500D01*
X191066988Y-95507500D01*
X191034075Y-95564507D01*
X191000000Y-95691674D01*
X191000000Y-95823326D01*
X191034075Y-95950493D01*
X191066988Y-96007500D01*
X190250001Y-96007500D01*
X190250001Y-96726088D01*
X190252794Y-96778691D01*
X190297237Y-97008487D01*
X190379879Y-97227475D01*
X190498339Y-97429341D01*
X190498344Y-97429348D01*
X190649211Y-97608286D01*
X190649213Y-97608288D01*
X190828151Y-97759155D01*
X190828158Y-97759160D01*
X191030024Y-97877620D01*
X191249012Y-97960262D01*
X191254150Y-97961256D01*
X191316232Y-97993312D01*
X191351127Y-98053844D01*
X191347758Y-98123632D01*
X191307193Y-98180520D01*
X191242311Y-98206446D01*
X191230604Y-98207000D01*
X187702129Y-98207000D01*
X187702123Y-98207001D01*
X187642516Y-98213408D01*
X187507671Y-98263702D01*
X187507664Y-98263706D01*
X187392455Y-98349952D01*
X187392452Y-98349955D01*
X187306206Y-98465164D01*
X187306202Y-98465171D01*
X187255908Y-98600017D01*
X187249501Y-98659616D01*
X187249501Y-98659623D01*
X187249500Y-98659635D01*
X148564505Y-98659635D01*
X146091724Y-96186854D01*
X146058239Y-96125531D01*
X146063223Y-96055839D01*
X146077827Y-96028056D01*
X146130568Y-95952734D01*
X146226739Y-95746496D01*
X146285635Y-95526692D01*
X146305468Y-95300000D01*
X146285635Y-95073308D01*
X146226739Y-94853504D01*
X146130568Y-94647266D01*
X146027449Y-94499996D01*
X147694435Y-94499996D01*
X147694435Y-94500003D01*
X147714630Y-94679249D01*
X147714631Y-94679254D01*
X147774211Y-94849523D01*
X147861867Y-94989025D01*
X147870184Y-95002262D01*
X147997738Y-95129816D01*
X148150478Y-95225789D01*
X148241103Y-95257500D01*
X148320745Y-95285368D01*
X148320750Y-95285369D01*
X148499996Y-95305565D01*
X148500000Y-95305565D01*
X148500004Y-95305565D01*
X148679249Y-95285369D01*
X148679252Y-95285368D01*
X148679255Y-95285368D01*
X148849522Y-95225789D01*
X149002262Y-95129816D01*
X149129816Y-95002262D01*
X149225789Y-94849522D01*
X149240660Y-94807017D01*
X149247719Y-94790706D01*
X149258255Y-94770477D01*
X149297081Y-94659779D01*
X149303976Y-94638642D01*
X149304269Y-94637672D01*
X149310062Y-94616901D01*
X149325423Y-94556911D01*
X149351917Y-94506372D01*
X149369523Y-94486096D01*
X149392097Y-94458125D01*
X149400894Y-94448339D01*
X150987691Y-92861543D01*
X151049013Y-92828059D01*
X151118705Y-92833043D01*
X151174638Y-92874915D01*
X151199055Y-92940379D01*
X151198591Y-92963108D01*
X151194435Y-92999995D01*
X151194435Y-93000003D01*
X151214630Y-93179249D01*
X151214631Y-93179254D01*
X151274211Y-93349523D01*
X151370184Y-93502262D01*
X151497738Y-93629816D01*
X151560613Y-93669323D01*
X151602580Y-93695693D01*
X151650478Y-93725789D01*
X151765263Y-93765954D01*
X151820745Y-93785368D01*
X151820750Y-93785369D01*
X151999996Y-93805565D01*
X152000000Y-93805565D01*
X152000004Y-93805565D01*
X152179249Y-93785369D01*
X152179250Y-93785368D01*
X152179255Y-93785368D01*
X152342424Y-93728271D01*
X152345366Y-93727296D01*
X152347691Y-93726429D01*
X152349522Y-93725789D01*
X152349527Y-93725785D01*
X152349535Y-93725783D01*
X152351669Y-93724755D01*
X152359777Y-93720276D01*
X152450632Y-93676606D01*
X152470194Y-93666675D01*
X152470204Y-93666669D01*
X152470221Y-93666661D01*
X152471058Y-93666213D01*
X152471074Y-93666203D01*
X152471087Y-93666197D01*
X152490129Y-93655468D01*
X152543421Y-93623904D01*
X152597888Y-93606903D01*
X152624683Y-93605014D01*
X152624691Y-93605013D01*
X152624693Y-93605013D01*
X152660400Y-93601201D01*
X152673564Y-93600500D01*
X156663331Y-93600500D01*
X156663347Y-93600501D01*
X156670943Y-93600501D01*
X156829054Y-93600501D01*
X156829057Y-93600501D01*
X156981785Y-93559577D01*
X156981787Y-93559575D01*
X156981789Y-93559575D01*
X156981790Y-93559574D01*
X157035678Y-93528462D01*
X157035679Y-93528461D01*
X157118716Y-93480520D01*
X157230520Y-93368716D01*
X157230520Y-93368714D01*
X157240724Y-93358511D01*
X157240728Y-93358506D01*
X168672248Y-81926986D01*
X168672251Y-81926985D01*
X168784055Y-81815181D01*
X168834174Y-81728369D01*
X168863112Y-81678250D01*
X168904036Y-81525522D01*
X168904036Y-81367408D01*
X168904036Y-81359813D01*
X168904035Y-81359795D01*
X168904035Y-80920574D01*
X168906775Y-80894652D01*
X168907927Y-80889263D01*
X168907933Y-80889232D01*
X168930875Y-80781893D01*
X168942206Y-80728877D01*
X168942922Y-80725736D01*
X168984437Y-80554462D01*
X168985536Y-80550257D01*
X169024692Y-80410369D01*
X169026376Y-80404848D01*
X169039208Y-80366104D01*
X169039208Y-80366102D01*
X169053150Y-80323997D01*
X169065179Y-80299375D01*
X169065009Y-80299284D01*
X169067512Y-80294599D01*
X169067767Y-80294079D01*
X169067885Y-80293903D01*
X169145189Y-80107273D01*
X169153018Y-80067918D01*
X169164148Y-80011961D01*
X169196533Y-79950050D01*
X169257248Y-79915476D01*
X169261575Y-79914534D01*
X169356106Y-79895731D01*
X169542642Y-79818465D01*
X169584167Y-79790718D01*
X169584168Y-79790717D01*
X168979959Y-79186510D01*
X168964535Y-79167715D01*
X168955660Y-79154432D01*
X168955657Y-79154428D01*
X168927251Y-79126022D01*
X168947395Y-79126022D01*
X169042770Y-79100466D01*
X169128280Y-79051097D01*
X169198100Y-78981277D01*
X169247469Y-78895767D01*
X169273025Y-78800392D01*
X169273025Y-78772468D01*
X169937720Y-79437165D01*
X169937721Y-79437164D01*
X169965468Y-79395639D01*
X170042734Y-79209103D01*
X170042736Y-79209095D01*
X170082124Y-79011079D01*
X170082125Y-79011076D01*
X170082125Y-78809166D01*
X170082124Y-78809162D01*
X170042736Y-78611146D01*
X170042734Y-78611138D01*
X169965469Y-78424605D01*
X169965464Y-78424595D01*
X169853294Y-78256722D01*
X169853291Y-78256718D01*
X169799587Y-78203014D01*
X169799586Y-78203014D01*
X169273025Y-78729573D01*
X169273025Y-78701652D01*
X169247469Y-78606277D01*
X169198100Y-78520767D01*
X169128280Y-78450947D01*
X169042770Y-78401578D01*
X168947395Y-78376022D01*
X168919472Y-78376022D01*
X169227384Y-78068109D01*
X195226849Y-78068109D01*
X195247001Y-78426955D01*
X195247003Y-78426967D01*
X195307205Y-78781294D01*
X195307207Y-78781303D01*
X195406703Y-79126661D01*
X195544244Y-79458718D01*
X195544246Y-79458722D01*
X195718106Y-79773298D01*
X195718109Y-79773303D01*
X195926084Y-80066415D01*
X195998734Y-80147710D01*
X197316619Y-78829825D01*
X197402169Y-78947575D01*
X197552425Y-79097831D01*
X197670172Y-79183379D01*
X196352288Y-80501264D01*
X196433584Y-80573915D01*
X196726696Y-80781890D01*
X196726701Y-80781893D01*
X197041277Y-80955753D01*
X197041281Y-80955755D01*
X197373338Y-81093296D01*
X197718696Y-81192792D01*
X197718705Y-81192794D01*
X198073032Y-81252996D01*
X198073044Y-81252998D01*
X198431891Y-81273150D01*
X198790737Y-81252998D01*
X198790749Y-81252996D01*
X199145076Y-81192794D01*
X199145085Y-81192792D01*
X199490443Y-81093296D01*
X199822500Y-80955755D01*
X199822504Y-80955753D01*
X200137080Y-80781893D01*
X200137085Y-80781890D01*
X200430197Y-80573915D01*
X200511492Y-80501264D01*
X199193608Y-79183379D01*
X199311357Y-79097831D01*
X199461613Y-78947575D01*
X199547161Y-78829826D01*
X200865046Y-80147710D01*
X200937697Y-80066415D01*
X201145672Y-79773303D01*
X201145675Y-79773298D01*
X201319535Y-79458722D01*
X201319537Y-79458718D01*
X201457078Y-79126661D01*
X201556574Y-78781303D01*
X201556576Y-78781294D01*
X201616778Y-78426967D01*
X201616780Y-78426955D01*
X201636932Y-78068109D01*
X201616780Y-77709262D01*
X201616778Y-77709250D01*
X201556576Y-77354923D01*
X201556574Y-77354914D01*
X201457078Y-77009556D01*
X201319537Y-76677499D01*
X201319535Y-76677495D01*
X201145675Y-76362919D01*
X201145672Y-76362914D01*
X200937697Y-76069802D01*
X200865046Y-75988506D01*
X199547161Y-77306390D01*
X199461613Y-77188643D01*
X199311357Y-77038387D01*
X199193608Y-76952837D01*
X200511493Y-75634952D01*
X200430197Y-75562302D01*
X200137085Y-75354327D01*
X200137080Y-75354324D01*
X199822504Y-75180464D01*
X199822500Y-75180462D01*
X199490443Y-75042921D01*
X199145085Y-74943425D01*
X199145076Y-74943423D01*
X198790749Y-74883221D01*
X198790737Y-74883219D01*
X198431891Y-74863067D01*
X198073044Y-74883219D01*
X198073032Y-74883221D01*
X197718705Y-74943423D01*
X197718696Y-74943425D01*
X197373338Y-75042921D01*
X197041281Y-75180462D01*
X197041277Y-75180464D01*
X196726701Y-75354324D01*
X196726696Y-75354327D01*
X196433584Y-75562303D01*
X196433576Y-75562308D01*
X196352288Y-75634951D01*
X196352288Y-75634952D01*
X197670173Y-76952837D01*
X197552425Y-77038387D01*
X197402169Y-77188643D01*
X197316619Y-77306391D01*
X195998734Y-75988506D01*
X195998733Y-75988506D01*
X195926090Y-76069794D01*
X195926085Y-76069802D01*
X195718109Y-76362914D01*
X195718106Y-76362919D01*
X195544246Y-76677495D01*
X195544244Y-76677499D01*
X195406703Y-77009556D01*
X195307207Y-77354914D01*
X195307205Y-77354923D01*
X195247003Y-77709250D01*
X195247001Y-77709262D01*
X195226849Y-78068109D01*
X169227384Y-78068109D01*
X169446032Y-77849460D01*
X169446032Y-77849459D01*
X169392328Y-77795755D01*
X169392324Y-77795752D01*
X169224451Y-77683582D01*
X169224441Y-77683577D01*
X169037908Y-77606312D01*
X169037900Y-77606310D01*
X168839884Y-77566922D01*
X168637967Y-77566922D01*
X168439951Y-77606310D01*
X168439943Y-77606312D01*
X168253406Y-77683579D01*
X168211881Y-77711324D01*
X168211880Y-77711325D01*
X168876579Y-78376022D01*
X168848655Y-78376022D01*
X168753280Y-78401578D01*
X168667770Y-78450947D01*
X168597950Y-78520767D01*
X168548581Y-78606277D01*
X168523025Y-78701652D01*
X168523025Y-78721795D01*
X168494622Y-78693392D01*
X168494617Y-78693388D01*
X168481328Y-78684509D01*
X168462536Y-78669087D01*
X167858328Y-78064877D01*
X167858327Y-78064878D01*
X167830582Y-78106403D01*
X167753315Y-78292940D01*
X167753313Y-78292947D01*
X167734510Y-78387473D01*
X167702124Y-78449384D01*
X167641408Y-78483958D01*
X167637086Y-78484898D01*
X167541778Y-78503857D01*
X167541769Y-78503859D01*
X167355150Y-78581158D01*
X167355137Y-78581165D01*
X167187183Y-78693389D01*
X167187179Y-78693392D01*
X167044345Y-78836226D01*
X167044342Y-78836230D01*
X166932118Y-79004184D01*
X166932113Y-79004194D01*
X166898698Y-79084865D01*
X166854856Y-79139269D01*
X166808798Y-79157390D01*
X166808932Y-79157847D01*
X166803832Y-79159344D01*
X166801788Y-79160149D01*
X166800426Y-79160344D01*
X166800416Y-79160347D01*
X166669504Y-79220133D01*
X166622809Y-79257762D01*
X165812663Y-80067910D01*
X165812657Y-80067917D01*
X165775035Y-80114602D01*
X165775034Y-80114604D01*
X165715247Y-80245517D01*
X165694766Y-80387974D01*
X165715247Y-80530430D01*
X165775034Y-80661344D01*
X165775035Y-80661345D01*
X165775036Y-80661347D01*
X165812655Y-80708030D01*
X165812658Y-80708033D01*
X165812663Y-80708039D01*
X166915013Y-81810388D01*
X166948498Y-81871711D01*
X166943514Y-81941403D01*
X166915013Y-81985750D01*
X156537584Y-92363181D01*
X156476261Y-92396666D01*
X156449903Y-92399500D01*
X152658813Y-92399500D01*
X152632571Y-92396691D01*
X152624695Y-92394985D01*
X152624690Y-92394984D01*
X152597887Y-92393094D01*
X152543425Y-92376093D01*
X152490122Y-92344524D01*
X152471122Y-92333819D01*
X152470212Y-92333332D01*
X152450650Y-92323400D01*
X152359774Y-92279720D01*
X152351679Y-92275250D01*
X152349524Y-92274212D01*
X152349522Y-92274211D01*
X152349519Y-92274209D01*
X152348516Y-92273727D01*
X152339540Y-92270079D01*
X152333182Y-92267122D01*
X152332680Y-92266896D01*
X152332651Y-92266884D01*
X152269232Y-92243332D01*
X152267248Y-92243041D01*
X152244329Y-92237401D01*
X152179254Y-92214631D01*
X152000004Y-92194435D01*
X151999996Y-92194435D01*
X151963108Y-92198591D01*
X151894286Y-92186536D01*
X151842907Y-92139187D01*
X151825283Y-92071576D01*
X151847010Y-92005171D01*
X151861539Y-91987695D01*
X154480520Y-89368716D01*
X154559577Y-89231784D01*
X154600501Y-89079057D01*
X154600501Y-88920942D01*
X154600501Y-88913347D01*
X154600500Y-88913329D01*
X154600500Y-80374907D01*
X154602700Y-80351653D01*
X154603245Y-80348794D01*
X154603248Y-80348784D01*
X154636046Y-80070243D01*
X154647211Y-80031499D01*
X154689881Y-79941781D01*
X154706745Y-79915488D01*
X154706756Y-79915476D01*
X154827032Y-79771682D01*
X154828487Y-79769934D01*
X154828579Y-79769823D01*
X154831078Y-79766783D01*
X155026718Y-79526963D01*
X155055129Y-79488567D01*
X155056355Y-79486735D01*
X155080934Y-79445979D01*
X155203467Y-79219304D01*
X155208712Y-79210498D01*
X155235924Y-79168849D01*
X155256182Y-79122663D01*
X155260632Y-79113554D01*
X155270016Y-79096198D01*
X155281624Y-79073358D01*
X155282137Y-79072282D01*
X155307610Y-79005765D01*
X155309824Y-79000371D01*
X155329157Y-78956300D01*
X155386134Y-78731305D01*
X155388591Y-78701652D01*
X155405300Y-78500006D01*
X155405300Y-78499993D01*
X155386135Y-78268702D01*
X155386133Y-78268691D01*
X155329157Y-78043699D01*
X155235924Y-77831151D01*
X155108983Y-77636852D01*
X155108980Y-77636849D01*
X155108979Y-77636847D01*
X154951784Y-77466087D01*
X154951779Y-77466083D01*
X154951777Y-77466081D01*
X154768634Y-77323535D01*
X154768628Y-77323531D01*
X154564504Y-77213064D01*
X154564495Y-77213061D01*
X154344984Y-77137702D01*
X154173282Y-77109050D01*
X154116049Y-77099500D01*
X153883951Y-77099500D01*
X153838164Y-77107140D01*
X153655015Y-77137702D01*
X153435504Y-77213061D01*
X153435495Y-77213064D01*
X153231371Y-77323531D01*
X153231365Y-77323535D01*
X153048222Y-77466081D01*
X153048219Y-77466084D01*
X152891016Y-77636852D01*
X152764075Y-77831151D01*
X152670842Y-78043699D01*
X152613866Y-78268691D01*
X152613864Y-78268703D01*
X152597176Y-78470103D01*
X152572023Y-78535288D01*
X152515621Y-78576526D01*
X152445877Y-78580724D01*
X152422088Y-78572657D01*
X152346404Y-78538093D01*
X152346406Y-78538093D01*
X152203949Y-78517612D01*
X152061492Y-78538093D01*
X151930578Y-78597880D01*
X151883883Y-78635509D01*
X150543407Y-79975987D01*
X150543401Y-79975994D01*
X150505779Y-80022679D01*
X150505778Y-80022681D01*
X150445991Y-80153594D01*
X150425510Y-80296051D01*
X150445991Y-80438507D01*
X150505778Y-80569421D01*
X150505779Y-80569422D01*
X150505780Y-80569424D01*
X150543399Y-80616107D01*
X150543402Y-80616110D01*
X150543407Y-80616116D01*
X151605543Y-81678250D01*
X151883893Y-81956600D01*
X151930576Y-81994220D01*
X152061492Y-82054008D01*
X152061491Y-82054008D01*
X152079398Y-82056582D01*
X152203949Y-82074490D01*
X152346406Y-82054008D01*
X152477322Y-81994220D01*
X152524005Y-81956601D01*
X153187819Y-81292785D01*
X153249142Y-81259301D01*
X153318833Y-81264285D01*
X153374767Y-81306156D01*
X153399184Y-81371621D01*
X153399500Y-81380467D01*
X153399500Y-88699902D01*
X153379815Y-88766941D01*
X153363181Y-88787583D01*
X148541233Y-93609530D01*
X148520706Y-93626091D01*
X148513903Y-93630473D01*
X148493624Y-93648080D01*
X148443093Y-93674570D01*
X148383079Y-93689938D01*
X148362452Y-93695689D01*
X148361470Y-93695985D01*
X148340212Y-93702917D01*
X148229463Y-93741765D01*
X148216164Y-93746640D01*
X148215624Y-93746847D01*
X148215604Y-93746856D01*
X148179386Y-93763510D01*
X148168540Y-93767890D01*
X148150480Y-93774210D01*
X148150475Y-93774212D01*
X147997737Y-93870184D01*
X147870184Y-93997737D01*
X147774211Y-94150476D01*
X147714631Y-94320745D01*
X147714630Y-94320750D01*
X147694435Y-94499996D01*
X146027449Y-94499996D01*
X146000047Y-94460861D01*
X146000045Y-94460858D01*
X145839141Y-94299954D01*
X145652734Y-94169432D01*
X145652728Y-94169429D01*
X145594725Y-94142382D01*
X145542285Y-94096210D01*
X145523133Y-94029017D01*
X145543348Y-93962135D01*
X145594725Y-93917618D01*
X145652734Y-93890568D01*
X145839139Y-93760047D01*
X146000047Y-93599139D01*
X146130568Y-93412734D01*
X146226739Y-93206496D01*
X146285635Y-92986692D01*
X146304474Y-92771361D01*
X146305468Y-92760001D01*
X146305468Y-92759998D01*
X146285635Y-92533313D01*
X146285635Y-92533308D01*
X146226739Y-92313504D01*
X146130568Y-92107266D01*
X146000047Y-91920861D01*
X146000045Y-91920858D01*
X145839141Y-91759954D01*
X145652734Y-91629432D01*
X145652728Y-91629429D01*
X145594725Y-91602382D01*
X145542285Y-91556210D01*
X145523133Y-91489017D01*
X145543348Y-91422135D01*
X145594725Y-91377618D01*
X145652734Y-91350568D01*
X145839139Y-91220047D01*
X146000047Y-91059139D01*
X146130568Y-90872734D01*
X146226739Y-90666496D01*
X146285635Y-90446692D01*
X146305468Y-90220000D01*
X146285635Y-89993308D01*
X146226739Y-89773504D01*
X146130568Y-89567266D01*
X146000047Y-89380861D01*
X146000045Y-89380858D01*
X145839141Y-89219954D01*
X145652734Y-89089432D01*
X145652728Y-89089429D01*
X145594725Y-89062382D01*
X145542285Y-89016210D01*
X145523133Y-88949017D01*
X145543348Y-88882135D01*
X145594725Y-88837618D01*
X145652734Y-88810568D01*
X145839139Y-88680047D01*
X146000047Y-88519139D01*
X146130568Y-88332734D01*
X146226739Y-88126496D01*
X146285635Y-87906692D01*
X146305468Y-87680000D01*
X146285635Y-87453308D01*
X146226739Y-87233504D01*
X146130568Y-87027266D01*
X146000047Y-86840861D01*
X146000045Y-86840858D01*
X145839141Y-86679954D01*
X145652734Y-86549432D01*
X145652728Y-86549429D01*
X145594725Y-86522382D01*
X145542285Y-86476210D01*
X145523133Y-86409017D01*
X145543348Y-86342135D01*
X145594725Y-86297618D01*
X145652734Y-86270568D01*
X145839139Y-86140047D01*
X146000047Y-85979139D01*
X146130568Y-85792734D01*
X146226739Y-85586496D01*
X146285635Y-85366692D01*
X146304582Y-85150125D01*
X146305468Y-85140001D01*
X146305468Y-85139998D01*
X146292549Y-84992335D01*
X146285635Y-84913308D01*
X146226739Y-84693504D01*
X146130568Y-84487266D01*
X146000047Y-84300861D01*
X146000045Y-84300858D01*
X145839141Y-84139954D01*
X145652734Y-84009432D01*
X145652732Y-84009431D01*
X145446497Y-83913261D01*
X145446488Y-83913258D01*
X145226697Y-83854366D01*
X145226693Y-83854365D01*
X145226692Y-83854365D01*
X145226691Y-83854364D01*
X145226686Y-83854364D01*
X145000002Y-83834532D01*
X144999998Y-83834532D01*
X144773313Y-83854364D01*
X144773302Y-83854366D01*
X144553511Y-83913258D01*
X144553502Y-83913261D01*
X144347267Y-84009431D01*
X144347265Y-84009432D01*
X144160858Y-84139954D01*
X143999954Y-84300858D01*
X143869432Y-84487265D01*
X143869431Y-84487267D01*
X143773261Y-84693502D01*
X143773258Y-84693511D01*
X143714366Y-84913302D01*
X143714364Y-84913313D01*
X143694532Y-85139998D01*
X143694532Y-85140001D01*
X143714364Y-85366686D01*
X143714366Y-85366697D01*
X143773258Y-85586488D01*
X143773261Y-85586497D01*
X143869431Y-85792732D01*
X143869432Y-85792734D01*
X143999954Y-85979141D01*
X144160858Y-86140045D01*
X144160861Y-86140047D01*
X144347266Y-86270568D01*
X144405275Y-86297618D01*
X144457714Y-86343791D01*
X144476866Y-86410984D01*
X144456650Y-86477865D01*
X144405275Y-86522382D01*
X144347267Y-86549431D01*
X144347265Y-86549432D01*
X144160858Y-86679954D01*
X143999954Y-86840858D01*
X143869432Y-87027265D01*
X143869431Y-87027267D01*
X143773261Y-87233502D01*
X143773258Y-87233511D01*
X143714366Y-87453302D01*
X143714364Y-87453313D01*
X143694532Y-87679998D01*
X143694532Y-87680001D01*
X143714364Y-87906686D01*
X143714366Y-87906697D01*
X143773258Y-88126488D01*
X143773261Y-88126497D01*
X143869431Y-88332732D01*
X143869432Y-88332734D01*
X143999954Y-88519141D01*
X144160858Y-88680045D01*
X144160861Y-88680047D01*
X144347266Y-88810568D01*
X144405275Y-88837618D01*
X144457714Y-88883791D01*
X144476866Y-88950984D01*
X144456650Y-89017865D01*
X144405275Y-89062382D01*
X144347267Y-89089431D01*
X144347265Y-89089432D01*
X144160858Y-89219954D01*
X143999954Y-89380858D01*
X143869432Y-89567265D01*
X143869431Y-89567267D01*
X143773261Y-89773502D01*
X143773258Y-89773511D01*
X143714366Y-89993302D01*
X143714364Y-89993313D01*
X143694532Y-90219998D01*
X143694532Y-90220001D01*
X143714364Y-90446686D01*
X143714366Y-90446697D01*
X143773258Y-90666488D01*
X143773261Y-90666497D01*
X143869431Y-90872732D01*
X143869432Y-90872734D01*
X143999954Y-91059141D01*
X144160858Y-91220045D01*
X144160861Y-91220047D01*
X144347266Y-91350568D01*
X144405275Y-91377618D01*
X144457714Y-91423791D01*
X144476866Y-91490984D01*
X144456650Y-91557865D01*
X144405275Y-91602382D01*
X144347267Y-91629431D01*
X144347265Y-91629432D01*
X144160858Y-91759954D01*
X143999954Y-91920858D01*
X143869432Y-92107265D01*
X143869431Y-92107267D01*
X143773261Y-92313502D01*
X143773258Y-92313511D01*
X143714366Y-92533302D01*
X143714364Y-92533313D01*
X143694532Y-92759998D01*
X143694532Y-92760001D01*
X143714364Y-92986686D01*
X143714366Y-92986697D01*
X143773258Y-93206488D01*
X143773261Y-93206497D01*
X143869431Y-93412732D01*
X143869432Y-93412734D01*
X143999954Y-93599141D01*
X144160858Y-93760045D01*
X144160861Y-93760047D01*
X144347266Y-93890568D01*
X144405275Y-93917618D01*
X144457714Y-93963791D01*
X144476866Y-94030984D01*
X144456650Y-94097865D01*
X144405275Y-94142382D01*
X144347267Y-94169431D01*
X144347265Y-94169432D01*
X144160858Y-94299954D01*
X143999954Y-94460858D01*
X143869432Y-94647265D01*
X143869431Y-94647267D01*
X143773261Y-94853502D01*
X143773259Y-94853509D01*
X143761114Y-94898836D01*
X143724749Y-94958496D01*
X143661901Y-94989025D01*
X143592526Y-94980730D01*
X143553658Y-94954423D01*
X139386819Y-90787584D01*
X139353334Y-90726261D01*
X139350500Y-90699903D01*
X139350500Y-86599060D01*
X139350501Y-86599047D01*
X139350501Y-86430944D01*
X139344889Y-86410000D01*
X139309577Y-86278216D01*
X139305163Y-86270570D01*
X139260341Y-86192936D01*
X139258054Y-86188794D01*
X139145494Y-85975430D01*
X139142061Y-85968394D01*
X139029277Y-85717384D01*
X139026933Y-85711803D01*
X138909801Y-85412464D01*
X138908129Y-85407930D01*
X138822423Y-85160621D01*
X138804030Y-85107546D01*
X138788207Y-85061887D01*
X138786965Y-85058107D01*
X138766508Y-84992328D01*
X138712532Y-84818766D01*
X138686093Y-84733750D01*
X138680499Y-84696927D01*
X138680499Y-84292129D01*
X138680498Y-84292123D01*
X138680497Y-84292116D01*
X138674091Y-84232517D01*
X138639567Y-84139954D01*
X138623797Y-84097671D01*
X138623793Y-84097664D01*
X138537547Y-83982455D01*
X138537544Y-83982452D01*
X138422335Y-83896206D01*
X138422328Y-83896202D01*
X138287482Y-83845908D01*
X138287483Y-83845908D01*
X138227883Y-83839501D01*
X138227881Y-83839500D01*
X138227873Y-83839500D01*
X138227864Y-83839500D01*
X136532129Y-83839500D01*
X136532123Y-83839501D01*
X136472516Y-83845908D01*
X136337671Y-83896202D01*
X136337664Y-83896206D01*
X136222455Y-83982452D01*
X136222452Y-83982455D01*
X136136206Y-84097664D01*
X136136202Y-84097671D01*
X136085908Y-84232517D01*
X136080297Y-84284715D01*
X136079501Y-84292123D01*
X136079500Y-84292135D01*
X136079500Y-85987870D01*
X136079501Y-85987876D01*
X136085908Y-86047483D01*
X136136202Y-86182328D01*
X136136206Y-86182335D01*
X136222452Y-86297544D01*
X136222455Y-86297547D01*
X136337664Y-86383793D01*
X136337671Y-86383797D01*
X136382618Y-86400561D01*
X136472517Y-86434091D01*
X136507596Y-86437862D01*
X136572144Y-86464599D01*
X136611993Y-86521991D01*
X136614488Y-86591816D01*
X136578836Y-86651905D01*
X136565464Y-86662725D01*
X136540858Y-86679954D01*
X136379954Y-86840858D01*
X136249432Y-87027265D01*
X136249431Y-87027267D01*
X136153261Y-87233502D01*
X136153258Y-87233511D01*
X136094366Y-87453302D01*
X136094364Y-87453313D01*
X136074532Y-87679998D01*
X136074532Y-87680001D01*
X136094364Y-87906686D01*
X136094366Y-87906697D01*
X136153258Y-88126488D01*
X136153261Y-88126497D01*
X136249431Y-88332732D01*
X136249432Y-88332734D01*
X136379954Y-88519141D01*
X136540858Y-88680045D01*
X136540861Y-88680047D01*
X136727266Y-88810568D01*
X136785275Y-88837618D01*
X136837714Y-88883791D01*
X136856866Y-88950984D01*
X136836650Y-89017865D01*
X136785275Y-89062382D01*
X136727267Y-89089431D01*
X136727265Y-89089432D01*
X136540858Y-89219954D01*
X136379954Y-89380858D01*
X136249430Y-89567268D01*
X136249428Y-89567272D01*
X136240879Y-89585604D01*
X136194704Y-89638040D01*
X136127510Y-89657189D01*
X136060630Y-89636970D01*
X136040819Y-89620874D01*
X131936819Y-85516873D01*
X131903334Y-85455550D01*
X131900500Y-85429192D01*
X131900500Y-84855425D01*
X131903068Y-84830321D01*
X131905229Y-84819869D01*
X131911211Y-84722033D01*
X131923043Y-84676258D01*
X131934050Y-84653164D01*
X131937398Y-84646644D01*
X131988887Y-84553372D01*
X131996747Y-84538556D01*
X131997096Y-84537871D01*
X132004328Y-84523088D01*
X132072003Y-84378833D01*
X132072965Y-84376721D01*
X132076315Y-84370222D01*
X132077173Y-84368294D01*
X132077179Y-84368284D01*
X132079405Y-84361427D01*
X132080935Y-84357011D01*
X132099256Y-84307223D01*
X132099564Y-84305108D01*
X132104328Y-84284725D01*
X132135674Y-84188256D01*
X132155460Y-84000000D01*
X132135674Y-83811744D01*
X132077179Y-83631716D01*
X131982533Y-83467784D01*
X131855871Y-83327112D01*
X131855870Y-83327111D01*
X131702734Y-83215851D01*
X131702729Y-83215848D01*
X131529807Y-83138857D01*
X131529802Y-83138855D01*
X131384001Y-83107865D01*
X131344646Y-83099500D01*
X131155354Y-83099500D01*
X131122897Y-83106398D01*
X130970197Y-83138855D01*
X130970192Y-83138857D01*
X130797270Y-83215848D01*
X130797265Y-83215851D01*
X130644129Y-83327111D01*
X130517466Y-83467785D01*
X130422821Y-83631715D01*
X130422818Y-83631722D01*
X130364327Y-83811740D01*
X130364326Y-83811744D01*
X130344540Y-84000000D01*
X130364326Y-84188256D01*
X130419146Y-84356975D01*
X130422821Y-84368283D01*
X130423620Y-84370078D01*
X130426269Y-84375153D01*
X130495658Y-84523063D01*
X130502904Y-84537876D01*
X130503252Y-84538559D01*
X130511106Y-84553362D01*
X130562569Y-84646590D01*
X130565946Y-84653164D01*
X130576952Y-84676255D01*
X130588786Y-84722036D01*
X130594703Y-84818766D01*
X130579148Y-84886882D01*
X130529236Y-84935776D01*
X130460814Y-84949923D01*
X130395605Y-84924833D01*
X130383253Y-84914018D01*
X129007590Y-83538355D01*
X129007588Y-83538352D01*
X128888717Y-83419481D01*
X128888716Y-83419480D01*
X128801904Y-83369360D01*
X128801904Y-83369359D01*
X128801900Y-83369358D01*
X128751785Y-83340423D01*
X128599057Y-83299499D01*
X128440943Y-83299499D01*
X128433347Y-83299499D01*
X128433331Y-83299500D01*
X126604234Y-83299500D01*
X126550374Y-83287192D01*
X126542010Y-83283158D01*
X126525990Y-83273899D01*
X126427248Y-83206525D01*
X126415097Y-83197078D01*
X126298534Y-83094230D01*
X126289495Y-83085395D01*
X126159155Y-82944315D01*
X126152449Y-82936419D01*
X126006770Y-82749595D01*
X125986775Y-82725527D01*
X125985846Y-82724476D01*
X125985822Y-82724451D01*
X125978057Y-82717029D01*
X125964472Y-82701706D01*
X125957546Y-82692454D01*
X125957544Y-82692452D01*
X125957543Y-82692451D01*
X125939514Y-82678954D01*
X125928153Y-82669333D01*
X125924616Y-82665953D01*
X125924615Y-82665952D01*
X125918315Y-82662209D01*
X125907342Y-82654872D01*
X125842331Y-82606204D01*
X125842328Y-82606202D01*
X125707482Y-82555908D01*
X125707483Y-82555908D01*
X125647883Y-82549501D01*
X125647881Y-82549500D01*
X125647873Y-82549500D01*
X125647864Y-82549500D01*
X123852129Y-82549500D01*
X123852123Y-82549501D01*
X123792516Y-82555908D01*
X123657671Y-82606202D01*
X123657664Y-82606206D01*
X123542455Y-82692452D01*
X123542452Y-82692455D01*
X123456206Y-82807664D01*
X123456202Y-82807671D01*
X123405908Y-82942517D01*
X123399501Y-83002116D01*
X123399500Y-83002135D01*
X123399500Y-84797870D01*
X123399501Y-84797876D01*
X123405908Y-84857483D01*
X123456202Y-84992328D01*
X123456206Y-84992335D01*
X123542452Y-85107544D01*
X123542455Y-85107547D01*
X123657664Y-85193793D01*
X123657671Y-85193797D01*
X123792517Y-85244091D01*
X123792516Y-85244091D01*
X123799444Y-85244835D01*
X123852127Y-85250500D01*
X125647872Y-85250499D01*
X125707483Y-85244091D01*
X125842331Y-85193796D01*
X125883024Y-85163331D01*
X125890471Y-85158173D01*
X125903040Y-85150128D01*
X125903039Y-85150128D01*
X125903045Y-85150125D01*
X125905901Y-85147378D01*
X125917519Y-85137509D01*
X125957546Y-85107546D01*
X125977720Y-85080595D01*
X125991047Y-85065519D01*
X125998757Y-85058107D01*
X126006766Y-85050408D01*
X126152465Y-84863556D01*
X126159131Y-84855708D01*
X126289508Y-84714588D01*
X126298527Y-84705773D01*
X126415107Y-84602910D01*
X126427231Y-84593483D01*
X126526001Y-84526091D01*
X126542021Y-84516833D01*
X126546955Y-84514454D01*
X126550376Y-84512805D01*
X126604230Y-84500500D01*
X128219903Y-84500500D01*
X128286942Y-84520185D01*
X128307584Y-84536819D01*
X135771499Y-92000734D01*
X135786188Y-92018440D01*
X135788476Y-92021788D01*
X135788482Y-92021797D01*
X135928823Y-92198591D01*
X135936460Y-92208211D01*
X135955768Y-92242638D01*
X135979885Y-92308445D01*
X135986826Y-92338620D01*
X136002643Y-92494815D01*
X136002875Y-92497057D01*
X136002886Y-92497161D01*
X136003129Y-92499411D01*
X136026010Y-92706861D01*
X136033124Y-92771356D01*
X136033125Y-92771361D01*
X136040240Y-92816784D01*
X136040664Y-92818867D01*
X136040666Y-92818877D01*
X136040668Y-92818884D01*
X136051995Y-92863853D01*
X136075053Y-92940379D01*
X136136850Y-93145479D01*
X136137897Y-93149158D01*
X136153260Y-93206493D01*
X136153263Y-93206502D01*
X136158203Y-93217097D01*
X136160922Y-93223376D01*
X136161323Y-93224377D01*
X136193620Y-93296635D01*
X136197093Y-93302549D01*
X136196672Y-93302796D01*
X136203463Y-93314159D01*
X136249428Y-93412727D01*
X136249432Y-93412735D01*
X136379954Y-93599141D01*
X136540858Y-93760045D01*
X136540861Y-93760047D01*
X136727266Y-93890568D01*
X136785275Y-93917618D01*
X136837714Y-93963791D01*
X136856866Y-94030984D01*
X136836650Y-94097865D01*
X136785275Y-94142382D01*
X136727267Y-94169431D01*
X136727265Y-94169432D01*
X136540858Y-94299954D01*
X136379954Y-94460858D01*
X136249432Y-94647265D01*
X136249431Y-94647267D01*
X136153261Y-94853502D01*
X136153258Y-94853511D01*
X136094366Y-95073302D01*
X136094364Y-95073313D01*
X136074532Y-95299998D01*
X136074532Y-95300001D01*
X136094364Y-95526686D01*
X136094366Y-95526697D01*
X136153258Y-95746488D01*
X136153261Y-95746497D01*
X136249431Y-95952732D01*
X136249432Y-95952734D01*
X136379954Y-96139141D01*
X136540858Y-96300045D01*
X136540861Y-96300047D01*
X136727266Y-96430568D01*
X136785275Y-96457618D01*
X136837714Y-96503791D01*
X136856866Y-96570984D01*
X136836650Y-96637865D01*
X136785275Y-96682382D01*
X136727267Y-96709431D01*
X136727265Y-96709432D01*
X136540858Y-96839954D01*
X136379954Y-97000858D01*
X136249432Y-97187265D01*
X136249431Y-97187267D01*
X136153261Y-97393502D01*
X136153258Y-97393511D01*
X136094366Y-97613302D01*
X136094364Y-97613313D01*
X136074532Y-97839998D01*
X136074532Y-97840001D01*
X136094364Y-98066686D01*
X136094366Y-98066697D01*
X136153258Y-98286488D01*
X136153261Y-98286497D01*
X136249431Y-98492732D01*
X136249432Y-98492734D01*
X136379954Y-98679141D01*
X136540858Y-98840045D01*
X136540861Y-98840047D01*
X136727266Y-98970568D01*
X136785273Y-98997617D01*
X136837713Y-99043789D01*
X136856865Y-99110982D01*
X136836650Y-99177864D01*
X136785276Y-99222380D01*
X136727269Y-99249430D01*
X136727268Y-99249430D01*
X136540858Y-99379954D01*
X136379954Y-99540858D01*
X136249432Y-99727265D01*
X136249431Y-99727267D01*
X136153261Y-99933502D01*
X136153258Y-99933511D01*
X136094366Y-100153302D01*
X136094364Y-100153313D01*
X136074532Y-100379998D01*
X136074532Y-100380001D01*
X136094364Y-100606686D01*
X136094366Y-100606697D01*
X136153258Y-100826488D01*
X136153261Y-100826497D01*
X136249431Y-101032732D01*
X136249432Y-101032734D01*
X136379954Y-101219141D01*
X136540858Y-101380045D01*
X136540861Y-101380047D01*
X136727266Y-101510568D01*
X136785865Y-101537893D01*
X136838305Y-101584065D01*
X136857457Y-101651258D01*
X136837242Y-101718139D01*
X136785867Y-101762657D01*
X136727515Y-101789867D01*
X136541179Y-101920342D01*
X136380342Y-102081179D01*
X136249865Y-102267517D01*
X136153734Y-102473673D01*
X136153730Y-102473682D01*
X136101127Y-102669999D01*
X136101128Y-102670000D01*
X137064314Y-102670000D01*
X137059920Y-102674394D01*
X137007259Y-102765606D01*
X136980000Y-102867339D01*
X136980000Y-102972661D01*
X137007259Y-103074394D01*
X137059920Y-103165606D01*
X137064314Y-103170000D01*
X136101128Y-103170000D01*
X136153730Y-103366317D01*
X136153734Y-103366326D01*
X136249865Y-103572482D01*
X136380342Y-103758820D01*
X136541179Y-103919657D01*
X136727518Y-104050134D01*
X136727520Y-104050135D01*
X136785865Y-104077342D01*
X136838305Y-104123514D01*
X136857457Y-104190707D01*
X136837242Y-104257589D01*
X136785867Y-104302105D01*
X136727268Y-104329431D01*
X136727264Y-104329433D01*
X136540858Y-104459954D01*
X136379954Y-104620858D01*
X136249432Y-104807265D01*
X136249431Y-104807267D01*
X136153261Y-105013502D01*
X136153258Y-105013511D01*
X136094366Y-105233302D01*
X136094364Y-105233313D01*
X136074532Y-105459998D01*
X136074532Y-105460001D01*
X136094364Y-105686686D01*
X136094366Y-105686697D01*
X136153258Y-105906488D01*
X136153261Y-105906497D01*
X136249431Y-106112732D01*
X136249432Y-106112734D01*
X136379954Y-106299141D01*
X136540858Y-106460045D01*
X136540861Y-106460047D01*
X136727266Y-106590568D01*
X136785275Y-106617618D01*
X136837714Y-106663791D01*
X136856866Y-106730984D01*
X136836650Y-106797865D01*
X136785275Y-106842382D01*
X136727267Y-106869431D01*
X136727265Y-106869432D01*
X136540858Y-106999954D01*
X136379954Y-107160858D01*
X136249432Y-107347265D01*
X136249431Y-107347267D01*
X136153261Y-107553502D01*
X136153258Y-107553511D01*
X136094366Y-107773302D01*
X136094364Y-107773313D01*
X136074532Y-107999998D01*
X136074532Y-108000001D01*
X136094364Y-108226686D01*
X136094366Y-108226697D01*
X136153258Y-108446488D01*
X136153261Y-108446497D01*
X136249431Y-108652732D01*
X136249432Y-108652734D01*
X136379954Y-108839141D01*
X136540858Y-109000045D01*
X136540861Y-109000047D01*
X136727266Y-109130568D01*
X136785275Y-109157618D01*
X136837714Y-109203791D01*
X136856866Y-109270984D01*
X136836650Y-109337865D01*
X136785275Y-109382382D01*
X136727267Y-109409431D01*
X136727265Y-109409432D01*
X136540858Y-109539954D01*
X136379954Y-109700858D01*
X136249432Y-109887265D01*
X136249431Y-109887267D01*
X136153261Y-110093502D01*
X136153258Y-110093511D01*
X136094366Y-110313302D01*
X136094364Y-110313313D01*
X136074532Y-110539998D01*
X136074532Y-110540001D01*
X136094364Y-110766686D01*
X136094366Y-110766697D01*
X136153258Y-110986488D01*
X136153261Y-110986497D01*
X136249431Y-111192732D01*
X136249432Y-111192734D01*
X136379954Y-111379141D01*
X136540858Y-111540045D01*
X136540861Y-111540047D01*
X136727266Y-111670568D01*
X136785275Y-111697618D01*
X136837714Y-111743791D01*
X136856866Y-111810984D01*
X136836650Y-111877865D01*
X136785275Y-111922382D01*
X136727267Y-111949431D01*
X136727265Y-111949432D01*
X136540858Y-112079954D01*
X136379954Y-112240858D01*
X136249432Y-112427265D01*
X136249431Y-112427267D01*
X136153261Y-112633502D01*
X136153258Y-112633511D01*
X136094366Y-112853302D01*
X136094364Y-112853313D01*
X136074532Y-113079998D01*
X136074532Y-113080001D01*
X136094364Y-113306686D01*
X136094366Y-113306697D01*
X136153258Y-113526488D01*
X136153261Y-113526497D01*
X136249431Y-113732732D01*
X136249432Y-113732734D01*
X136379954Y-113919141D01*
X136540858Y-114080045D01*
X136540861Y-114080047D01*
X136727266Y-114210568D01*
X136785275Y-114237618D01*
X136837714Y-114283791D01*
X136856866Y-114350984D01*
X136836650Y-114417865D01*
X136785275Y-114462382D01*
X136727267Y-114489431D01*
X136727265Y-114489432D01*
X136540858Y-114619954D01*
X136379954Y-114780858D01*
X136249432Y-114967265D01*
X136249431Y-114967267D01*
X136153261Y-115173502D01*
X136153258Y-115173511D01*
X136094366Y-115393302D01*
X136094364Y-115393313D01*
X136074532Y-115619998D01*
X136074532Y-115620001D01*
X136094364Y-115846686D01*
X136094366Y-115846697D01*
X136153258Y-116066488D01*
X136153261Y-116066497D01*
X136249431Y-116272732D01*
X136249432Y-116272734D01*
X136379954Y-116459141D01*
X136540858Y-116620045D01*
X136540861Y-116620047D01*
X136727266Y-116750568D01*
X136785275Y-116777618D01*
X136837714Y-116823791D01*
X136856866Y-116890984D01*
X136836650Y-116957865D01*
X136785275Y-117002382D01*
X136727267Y-117029431D01*
X136727265Y-117029432D01*
X136540858Y-117159954D01*
X136379954Y-117320858D01*
X136249432Y-117507265D01*
X136249431Y-117507267D01*
X136153261Y-117713502D01*
X136153258Y-117713511D01*
X136094366Y-117933302D01*
X136094364Y-117933313D01*
X136074532Y-118159998D01*
X136074532Y-118160001D01*
X136094364Y-118386686D01*
X136094366Y-118386697D01*
X136153258Y-118606488D01*
X136153261Y-118606497D01*
X136249431Y-118812732D01*
X136249432Y-118812734D01*
X136379954Y-118999141D01*
X136540858Y-119160045D01*
X136540861Y-119160047D01*
X136727266Y-119290568D01*
X136933504Y-119386739D01*
X137153308Y-119445635D01*
X137315230Y-119459801D01*
X137379998Y-119465468D01*
X137380000Y-119465468D01*
X137380002Y-119465468D01*
X137436673Y-119460509D01*
X137606692Y-119445635D01*
X137826496Y-119386739D01*
X138032734Y-119290568D01*
X138219139Y-119160047D01*
X138380047Y-118999139D01*
X138510568Y-118812734D01*
X138606739Y-118606496D01*
X138665635Y-118386692D01*
X138685468Y-118160000D01*
X138665635Y-117933308D01*
X138606739Y-117713504D01*
X138510568Y-117507266D01*
X138380047Y-117320861D01*
X138380045Y-117320858D01*
X138219141Y-117159954D01*
X138032734Y-117029432D01*
X138032728Y-117029429D01*
X137974725Y-117002382D01*
X137922285Y-116956210D01*
X137903133Y-116889017D01*
X137923348Y-116822135D01*
X137974725Y-116777618D01*
X138032734Y-116750568D01*
X138219139Y-116620047D01*
X138380047Y-116459139D01*
X138510568Y-116272734D01*
X138606739Y-116066496D01*
X138665635Y-115846692D01*
X138685468Y-115620000D01*
X138665635Y-115393308D01*
X138606739Y-115173504D01*
X138510568Y-114967266D01*
X138380047Y-114780861D01*
X138380045Y-114780858D01*
X138219141Y-114619954D01*
X138032734Y-114489432D01*
X138032728Y-114489429D01*
X137974725Y-114462382D01*
X137922285Y-114416210D01*
X137903133Y-114349017D01*
X137923348Y-114282135D01*
X137974725Y-114237618D01*
X138032734Y-114210568D01*
X138219139Y-114080047D01*
X138380047Y-113919139D01*
X138510568Y-113732734D01*
X138606739Y-113526496D01*
X138665635Y-113306692D01*
X138685468Y-113080000D01*
X138665635Y-112853308D01*
X138606739Y-112633504D01*
X138510568Y-112427266D01*
X138380047Y-112240861D01*
X138380045Y-112240858D01*
X138219141Y-112079954D01*
X138032734Y-111949432D01*
X138032728Y-111949429D01*
X137974725Y-111922382D01*
X137922285Y-111876210D01*
X137903133Y-111809017D01*
X137923348Y-111742135D01*
X137974725Y-111697618D01*
X138032734Y-111670568D01*
X138219139Y-111540047D01*
X138380047Y-111379139D01*
X138510568Y-111192734D01*
X138606739Y-110986496D01*
X138665635Y-110766692D01*
X138685468Y-110540000D01*
X138684476Y-110528666D01*
X138665635Y-110313313D01*
X138665635Y-110313308D01*
X138606739Y-110093504D01*
X138510568Y-109887266D01*
X138380047Y-109700861D01*
X138380045Y-109700858D01*
X138219141Y-109539954D01*
X138032734Y-109409432D01*
X138032728Y-109409429D01*
X137974725Y-109382382D01*
X137922285Y-109336210D01*
X137903133Y-109269017D01*
X137923348Y-109202135D01*
X137974725Y-109157618D01*
X138032734Y-109130568D01*
X138219139Y-109000047D01*
X138380047Y-108839139D01*
X138510568Y-108652734D01*
X138606739Y-108446496D01*
X138665635Y-108226692D01*
X138685468Y-108000000D01*
X138665635Y-107773308D01*
X138606739Y-107553504D01*
X138510568Y-107347266D01*
X138380047Y-107160861D01*
X138380045Y-107160858D01*
X138219141Y-106999954D01*
X138032734Y-106869432D01*
X138032728Y-106869429D01*
X137974725Y-106842382D01*
X137922285Y-106796210D01*
X137903133Y-106729017D01*
X137923348Y-106662135D01*
X137974725Y-106617618D01*
X138032734Y-106590568D01*
X138219139Y-106460047D01*
X138380047Y-106299139D01*
X138510568Y-106112734D01*
X138606739Y-105906496D01*
X138665635Y-105686692D01*
X138685468Y-105460000D01*
X138665635Y-105233308D01*
X138606739Y-105013504D01*
X138510568Y-104807266D01*
X138380047Y-104620861D01*
X138380045Y-104620858D01*
X138219141Y-104459954D01*
X138032734Y-104329432D01*
X138032732Y-104329431D01*
X137974725Y-104302382D01*
X137974132Y-104302105D01*
X137921694Y-104255934D01*
X137902542Y-104188740D01*
X137922758Y-104121859D01*
X137974134Y-104077341D01*
X138032484Y-104050132D01*
X138218820Y-103919657D01*
X138379657Y-103758820D01*
X138510134Y-103572482D01*
X138606265Y-103366326D01*
X138606269Y-103366317D01*
X138658872Y-103170000D01*
X137695686Y-103170000D01*
X137700080Y-103165606D01*
X137752741Y-103074394D01*
X137780000Y-102972661D01*
X137780000Y-102867339D01*
X137752741Y-102765606D01*
X137700080Y-102674394D01*
X137695686Y-102670000D01*
X138658872Y-102670000D01*
X138658872Y-102669999D01*
X138606269Y-102473682D01*
X138606265Y-102473673D01*
X138510134Y-102267517D01*
X138379657Y-102081179D01*
X138218820Y-101920342D01*
X138032482Y-101789865D01*
X137974133Y-101762657D01*
X137921694Y-101716484D01*
X137902542Y-101649291D01*
X137922758Y-101582410D01*
X137974129Y-101537895D01*
X138032734Y-101510568D01*
X138219139Y-101380047D01*
X138380047Y-101219139D01*
X138510568Y-101032734D01*
X138606739Y-100826496D01*
X138608715Y-100819119D01*
X138616478Y-100790148D01*
X138617999Y-100784928D01*
X138619554Y-100780000D01*
X138708935Y-100496714D01*
X138719307Y-100458748D01*
X138719717Y-100456979D01*
X138727078Y-100418487D01*
X138766793Y-100156061D01*
X138766839Y-100155766D01*
X138790682Y-100005129D01*
X138798761Y-99976667D01*
X138829887Y-99902268D01*
X138848142Y-99871812D01*
X139002643Y-99682198D01*
X139014032Y-99667387D01*
X139024648Y-99655297D01*
X139035277Y-99644669D01*
X139106466Y-99538126D01*
X139135189Y-99468779D01*
X139155501Y-99419744D01*
X139163416Y-99379953D01*
X139180500Y-99294071D01*
X139180500Y-92579097D01*
X139200185Y-92512058D01*
X139252989Y-92466303D01*
X139322147Y-92456359D01*
X139385703Y-92485384D01*
X139392181Y-92491416D01*
X143665139Y-96764374D01*
X143665149Y-96764385D01*
X143669479Y-96768715D01*
X143669480Y-96768716D01*
X143781284Y-96880520D01*
X143868095Y-96930639D01*
X143868094Y-96930639D01*
X143879812Y-96937404D01*
X143928030Y-96987969D01*
X143941255Y-97056576D01*
X143919392Y-97115915D01*
X143869431Y-97187267D01*
X143773261Y-97393502D01*
X143773258Y-97393511D01*
X143714366Y-97613302D01*
X143714364Y-97613313D01*
X143694532Y-97839998D01*
X143694532Y-97840001D01*
X143714364Y-98066686D01*
X143714366Y-98066697D01*
X143773258Y-98286488D01*
X143773261Y-98286497D01*
X143869431Y-98492732D01*
X143869432Y-98492734D01*
X143999954Y-98679141D01*
X144160858Y-98840045D01*
X144160861Y-98840047D01*
X144347266Y-98970568D01*
X144405865Y-98997893D01*
X144458305Y-99044065D01*
X144477457Y-99111258D01*
X144457242Y-99178139D01*
X144405867Y-99222657D01*
X144347515Y-99249867D01*
X144161179Y-99380342D01*
X144000342Y-99541179D01*
X143869865Y-99727517D01*
X143773734Y-99933673D01*
X143773730Y-99933682D01*
X143721127Y-100129999D01*
X143721128Y-100130000D01*
X144684314Y-100130000D01*
X144679920Y-100134394D01*
X144627259Y-100225606D01*
X144600000Y-100327339D01*
X144600000Y-100432661D01*
X144627259Y-100534394D01*
X144679920Y-100625606D01*
X144684314Y-100630000D01*
X143721128Y-100630000D01*
X143773730Y-100826317D01*
X143773734Y-100826326D01*
X143869865Y-101032482D01*
X144000342Y-101218820D01*
X144161179Y-101379657D01*
X144347518Y-101510134D01*
X144347520Y-101510135D01*
X144405865Y-101537342D01*
X144458305Y-101583514D01*
X144477457Y-101650707D01*
X144457242Y-101717589D01*
X144405867Y-101762105D01*
X144347268Y-101789431D01*
X144347264Y-101789433D01*
X144160858Y-101919954D01*
X143999954Y-102080858D01*
X143869432Y-102267265D01*
X143869431Y-102267267D01*
X143773261Y-102473502D01*
X143773258Y-102473511D01*
X143714366Y-102693302D01*
X143714364Y-102693313D01*
X143694532Y-102919998D01*
X143694532Y-102920001D01*
X143714364Y-103146686D01*
X143714366Y-103146697D01*
X143773258Y-103366488D01*
X143773261Y-103366497D01*
X143869431Y-103572732D01*
X143869432Y-103572734D01*
X143999954Y-103759141D01*
X144160858Y-103920045D01*
X144160861Y-103920047D01*
X144347266Y-104050568D01*
X144404681Y-104077341D01*
X144405275Y-104077618D01*
X144457714Y-104123791D01*
X144476866Y-104190984D01*
X144456650Y-104257865D01*
X144405275Y-104302382D01*
X144347267Y-104329431D01*
X144347265Y-104329432D01*
X144160858Y-104459954D01*
X143999954Y-104620858D01*
X143869432Y-104807265D01*
X143869431Y-104807267D01*
X143773261Y-105013502D01*
X143773258Y-105013511D01*
X143714366Y-105233302D01*
X143714364Y-105233313D01*
X143694532Y-105459998D01*
X143694532Y-105460001D01*
X143714364Y-105686686D01*
X143714366Y-105686697D01*
X143773258Y-105906488D01*
X143773261Y-105906497D01*
X143869431Y-106112732D01*
X143869432Y-106112734D01*
X143999954Y-106299141D01*
X144160858Y-106460045D01*
X144160861Y-106460047D01*
X144347266Y-106590568D01*
X144405275Y-106617618D01*
X144457714Y-106663791D01*
X144476866Y-106730984D01*
X144456650Y-106797865D01*
X144405275Y-106842382D01*
X144347267Y-106869431D01*
X144347265Y-106869432D01*
X144160858Y-106999954D01*
X143999954Y-107160858D01*
X143869432Y-107347265D01*
X143869431Y-107347267D01*
X143773261Y-107553502D01*
X143773258Y-107553511D01*
X143714366Y-107773302D01*
X143714364Y-107773313D01*
X143694532Y-107999998D01*
X143694532Y-108000001D01*
X143714364Y-108226686D01*
X143714366Y-108226697D01*
X143773258Y-108446488D01*
X143773261Y-108446497D01*
X143869431Y-108652732D01*
X143869432Y-108652734D01*
X143999954Y-108839141D01*
X144160858Y-109000045D01*
X144160861Y-109000047D01*
X144347266Y-109130568D01*
X144405275Y-109157618D01*
X144457714Y-109203791D01*
X144476866Y-109270984D01*
X144456650Y-109337865D01*
X144405275Y-109382382D01*
X144347267Y-109409431D01*
X144347265Y-109409432D01*
X144160858Y-109539954D01*
X143999954Y-109700858D01*
X143869432Y-109887265D01*
X143869431Y-109887267D01*
X143773261Y-110093502D01*
X143773258Y-110093511D01*
X143714366Y-110313302D01*
X143714364Y-110313313D01*
X143694532Y-110539998D01*
X143694532Y-110540001D01*
X143714364Y-110766686D01*
X143714366Y-110766697D01*
X143773258Y-110986488D01*
X143773261Y-110986497D01*
X143869431Y-111192732D01*
X143869432Y-111192734D01*
X143999954Y-111379141D01*
X144160858Y-111540045D01*
X144160861Y-111540047D01*
X144347266Y-111670568D01*
X144405275Y-111697618D01*
X144457714Y-111743791D01*
X144476866Y-111810984D01*
X144456650Y-111877865D01*
X144405275Y-111922382D01*
X144347267Y-111949431D01*
X144347265Y-111949432D01*
X144160858Y-112079954D01*
X143999954Y-112240858D01*
X143869432Y-112427265D01*
X143869431Y-112427267D01*
X143773261Y-112633502D01*
X143773258Y-112633511D01*
X143714366Y-112853302D01*
X143714364Y-112853313D01*
X143694532Y-113079998D01*
X143694532Y-113080001D01*
X143714364Y-113306686D01*
X143714366Y-113306697D01*
X143773258Y-113526488D01*
X143773261Y-113526497D01*
X143869431Y-113732732D01*
X143869432Y-113732734D01*
X143999954Y-113919141D01*
X144160858Y-114080045D01*
X144160861Y-114080047D01*
X144347266Y-114210568D01*
X144405275Y-114237618D01*
X144457714Y-114283791D01*
X144476866Y-114350984D01*
X144456650Y-114417865D01*
X144405275Y-114462382D01*
X144347267Y-114489431D01*
X144347265Y-114489432D01*
X144160858Y-114619954D01*
X143999954Y-114780858D01*
X143869432Y-114967265D01*
X143869431Y-114967267D01*
X143773261Y-115173502D01*
X143773258Y-115173511D01*
X143714366Y-115393302D01*
X143714364Y-115393313D01*
X143694532Y-115619998D01*
X143694532Y-115620001D01*
X143714364Y-115846686D01*
X143714366Y-115846697D01*
X143773258Y-116066488D01*
X143773261Y-116066497D01*
X143869431Y-116272732D01*
X143869432Y-116272734D01*
X143999954Y-116459141D01*
X144160858Y-116620045D01*
X144160861Y-116620047D01*
X144347266Y-116750568D01*
X144405275Y-116777618D01*
X144457714Y-116823791D01*
X144476866Y-116890984D01*
X144456650Y-116957865D01*
X144405275Y-117002382D01*
X144347267Y-117029431D01*
X144347265Y-117029432D01*
X144160858Y-117159954D01*
X143999954Y-117320858D01*
X143869432Y-117507265D01*
X143869431Y-117507267D01*
X143773261Y-117713502D01*
X143773258Y-117713511D01*
X143714366Y-117933302D01*
X143714364Y-117933313D01*
X143694532Y-118159998D01*
X143694532Y-118160001D01*
X143714364Y-118386686D01*
X143714366Y-118386697D01*
X143773258Y-118606488D01*
X143773261Y-118606497D01*
X143869431Y-118812732D01*
X143869432Y-118812734D01*
X143999954Y-118999141D01*
X144160858Y-119160045D01*
X144160861Y-119160047D01*
X144347266Y-119290568D01*
X144553504Y-119386739D01*
X144773308Y-119445635D01*
X144935230Y-119459801D01*
X144999998Y-119465468D01*
X145000000Y-119465468D01*
X145000002Y-119465468D01*
X145056673Y-119460509D01*
X145226692Y-119445635D01*
X145446496Y-119386739D01*
X145652734Y-119290568D01*
X145839139Y-119160047D01*
X146000047Y-118999139D01*
X146130568Y-118812734D01*
X146226739Y-118606496D01*
X146285635Y-118386692D01*
X146305468Y-118160000D01*
X146285635Y-117933308D01*
X146226739Y-117713504D01*
X146130568Y-117507266D01*
X146000047Y-117320861D01*
X146000045Y-117320858D01*
X145839141Y-117159954D01*
X145652734Y-117029432D01*
X145652728Y-117029429D01*
X145594725Y-117002382D01*
X145542285Y-116956210D01*
X145523133Y-116889017D01*
X145543348Y-116822135D01*
X145594725Y-116777618D01*
X145652734Y-116750568D01*
X145839139Y-116620047D01*
X146000047Y-116459139D01*
X146130568Y-116272734D01*
X146226739Y-116066496D01*
X146285635Y-115846692D01*
X146305468Y-115620000D01*
X146285635Y-115393308D01*
X146226739Y-115173504D01*
X146130568Y-114967266D01*
X146000047Y-114780861D01*
X146000045Y-114780858D01*
X145839141Y-114619954D01*
X145652734Y-114489432D01*
X145652728Y-114489429D01*
X145594725Y-114462382D01*
X145542285Y-114416210D01*
X145523133Y-114349017D01*
X145543348Y-114282135D01*
X145594725Y-114237618D01*
X145652734Y-114210568D01*
X145839139Y-114080047D01*
X146000047Y-113919139D01*
X146130568Y-113732734D01*
X146226739Y-113526496D01*
X146285635Y-113306692D01*
X146305468Y-113080000D01*
X146298219Y-112997149D01*
X146311985Y-112928652D01*
X146360600Y-112878469D01*
X146428628Y-112862535D01*
X146494472Y-112885910D01*
X146509428Y-112898663D01*
X153133181Y-119522416D01*
X153166666Y-119583739D01*
X153169500Y-119610097D01*
X153169500Y-123419343D01*
X153169265Y-123426971D01*
X153168762Y-123435117D01*
X153168986Y-123441208D01*
X153168978Y-123441208D01*
X153169500Y-123448924D01*
X153169500Y-123763330D01*
X153169499Y-123763348D01*
X153169499Y-123929054D01*
X153169498Y-123929054D01*
X153178194Y-123961506D01*
X153210423Y-124081785D01*
X153228658Y-124113368D01*
X153237452Y-124128599D01*
X153289479Y-124218715D01*
X153345183Y-124274419D01*
X153378668Y-124335742D01*
X153378712Y-124335945D01*
X153414387Y-124501276D01*
X153414943Y-124504000D01*
X153492519Y-124907155D01*
X153492925Y-124909374D01*
X153544176Y-125204557D01*
X153567672Y-125339879D01*
X153569500Y-125361091D01*
X153569500Y-125897870D01*
X153569501Y-125897876D01*
X153575908Y-125957483D01*
X153626202Y-126092328D01*
X153626206Y-126092335D01*
X153712452Y-126207544D01*
X153712455Y-126207547D01*
X153804208Y-126276234D01*
X153846079Y-126332168D01*
X153851063Y-126401859D01*
X153817577Y-126463182D01*
X153756254Y-126496666D01*
X153729897Y-126499500D01*
X101504428Y-126499500D01*
X101495582Y-126499184D01*
X101473622Y-126497613D01*
X101295442Y-126484869D01*
X101277931Y-126482351D01*
X101086212Y-126440646D01*
X101069236Y-126435662D01*
X100885390Y-126367090D01*
X100869298Y-126359740D01*
X100697095Y-126265711D01*
X100682210Y-126256146D01*
X100617288Y-126207546D01*
X100525132Y-126138558D01*
X100511762Y-126126972D01*
X100373027Y-125988237D01*
X100361441Y-125974867D01*
X100350998Y-125960917D01*
X100243849Y-125817784D01*
X100234288Y-125802904D01*
X100140259Y-125630701D01*
X100132909Y-125614609D01*
X100117336Y-125572856D01*
X100064334Y-125430755D01*
X100059355Y-125413797D01*
X100017647Y-125222063D01*
X100015130Y-125204556D01*
X100000816Y-125004418D01*
X100000500Y-124995572D01*
X100000500Y-122500000D01*
X101269958Y-122500000D01*
X101290110Y-122858846D01*
X101290112Y-122858858D01*
X101350314Y-123213185D01*
X101350316Y-123213194D01*
X101449812Y-123558552D01*
X101587353Y-123890609D01*
X101587355Y-123890613D01*
X101761215Y-124205189D01*
X101761218Y-124205194D01*
X101969193Y-124498306D01*
X102041843Y-124579601D01*
X103359727Y-123261716D01*
X103445278Y-123379466D01*
X103595534Y-123529722D01*
X103713281Y-123615270D01*
X102395397Y-124933155D01*
X102476693Y-125005806D01*
X102769805Y-125213781D01*
X102769810Y-125213784D01*
X103084386Y-125387644D01*
X103084390Y-125387646D01*
X103416447Y-125525187D01*
X103761805Y-125624683D01*
X103761814Y-125624685D01*
X104116141Y-125684887D01*
X104116153Y-125684889D01*
X104475000Y-125705041D01*
X104833846Y-125684889D01*
X104833858Y-125684887D01*
X105188185Y-125624685D01*
X105188194Y-125624683D01*
X105533552Y-125525187D01*
X105865609Y-125387646D01*
X105865613Y-125387644D01*
X106180189Y-125213784D01*
X106180194Y-125213781D01*
X106473306Y-125005806D01*
X106554601Y-124933155D01*
X105236717Y-123615270D01*
X105354466Y-123529722D01*
X105504722Y-123379466D01*
X105590270Y-123261717D01*
X106908155Y-124579601D01*
X106980806Y-124498306D01*
X107188781Y-124205194D01*
X107188784Y-124205189D01*
X107362644Y-123890613D01*
X107362646Y-123890609D01*
X107500187Y-123558552D01*
X107599683Y-123213194D01*
X107599685Y-123213185D01*
X107659887Y-122858858D01*
X107659889Y-122858846D01*
X107680041Y-122500000D01*
X107659889Y-122141153D01*
X107659887Y-122141141D01*
X107599685Y-121786814D01*
X107599683Y-121786805D01*
X107500187Y-121441447D01*
X107362646Y-121109390D01*
X107362644Y-121109386D01*
X107188784Y-120794810D01*
X107188781Y-120794805D01*
X106980806Y-120501693D01*
X106908155Y-120420397D01*
X105590270Y-121738281D01*
X105504722Y-121620534D01*
X105354466Y-121470278D01*
X105236717Y-121384728D01*
X106554602Y-120066843D01*
X106473306Y-119994193D01*
X106180194Y-119786218D01*
X106180189Y-119786215D01*
X105865613Y-119612355D01*
X105865609Y-119612353D01*
X105533552Y-119474812D01*
X105188194Y-119375316D01*
X105188185Y-119375314D01*
X104833858Y-119315112D01*
X104833846Y-119315110D01*
X104475000Y-119294958D01*
X104116153Y-119315110D01*
X104116141Y-119315112D01*
X103761814Y-119375314D01*
X103761805Y-119375316D01*
X103416447Y-119474812D01*
X103084390Y-119612353D01*
X103084386Y-119612355D01*
X102769810Y-119786215D01*
X102769805Y-119786218D01*
X102476693Y-119994194D01*
X102476685Y-119994199D01*
X102395397Y-120066842D01*
X102395397Y-120066843D01*
X103713282Y-121384728D01*
X103595534Y-121470278D01*
X103445278Y-121620534D01*
X103359728Y-121738282D01*
X102041843Y-120420397D01*
X102041842Y-120420397D01*
X101969199Y-120501685D01*
X101969194Y-120501693D01*
X101761218Y-120794805D01*
X101761215Y-120794810D01*
X101587355Y-121109386D01*
X101587353Y-121109390D01*
X101449812Y-121441447D01*
X101350316Y-121786805D01*
X101350314Y-121786814D01*
X101290112Y-122141141D01*
X101290110Y-122141153D01*
X101269958Y-122500000D01*
X100000500Y-122500000D01*
X100000500Y-98302155D01*
X107060000Y-98302155D01*
X107060000Y-99000000D01*
X108084722Y-99000000D01*
X108040667Y-99076306D01*
X108010000Y-99190756D01*
X108010000Y-99309244D01*
X108040667Y-99423694D01*
X108084722Y-99500000D01*
X107060000Y-99500000D01*
X107060000Y-100197844D01*
X107066401Y-100257372D01*
X107066403Y-100257379D01*
X107116645Y-100392086D01*
X107116649Y-100392093D01*
X107202809Y-100507187D01*
X107202812Y-100507190D01*
X107317906Y-100593350D01*
X107317913Y-100593354D01*
X107452620Y-100643596D01*
X107452627Y-100643598D01*
X107512155Y-100649999D01*
X107512172Y-100650000D01*
X108210000Y-100650000D01*
X108210000Y-99625277D01*
X108286306Y-99669333D01*
X108400756Y-99700000D01*
X108519244Y-99700000D01*
X108633694Y-99669333D01*
X108710000Y-99625277D01*
X108710000Y-100650000D01*
X109407828Y-100650000D01*
X109407844Y-100649999D01*
X109467372Y-100643598D01*
X109467379Y-100643596D01*
X109602086Y-100593354D01*
X109602093Y-100593350D01*
X109717187Y-100507190D01*
X109717190Y-100507187D01*
X109803350Y-100392093D01*
X109803355Y-100392084D01*
X109832075Y-100315081D01*
X109873945Y-100259147D01*
X109939409Y-100234729D01*
X110007682Y-100249580D01*
X110039484Y-100274428D01*
X110048216Y-100283913D01*
X110048219Y-100283915D01*
X110048222Y-100283918D01*
X110231365Y-100426464D01*
X110231371Y-100426468D01*
X110231374Y-100426470D01*
X110435497Y-100536936D01*
X110549487Y-100576068D01*
X110655015Y-100612297D01*
X110655017Y-100612297D01*
X110655019Y-100612298D01*
X110883951Y-100650500D01*
X110883952Y-100650500D01*
X111116048Y-100650500D01*
X111116049Y-100650500D01*
X111344981Y-100612298D01*
X111564503Y-100536936D01*
X111768626Y-100426470D01*
X111951784Y-100283913D01*
X112108979Y-100113153D01*
X112235924Y-99918849D01*
X112329157Y-99706300D01*
X112386134Y-99481305D01*
X112387172Y-99468779D01*
X112405300Y-99250006D01*
X112405300Y-99249993D01*
X112386135Y-99018702D01*
X112386133Y-99018691D01*
X112329157Y-98793699D01*
X112235924Y-98581151D01*
X112108983Y-98386852D01*
X112108980Y-98386849D01*
X112108979Y-98386847D01*
X112031015Y-98302155D01*
X119350000Y-98302155D01*
X119350000Y-99000000D01*
X120374722Y-99000000D01*
X120330667Y-99076306D01*
X120300000Y-99190756D01*
X120300000Y-99309244D01*
X120330667Y-99423694D01*
X120374722Y-99500000D01*
X119350000Y-99500000D01*
X119350000Y-100197844D01*
X119356401Y-100257372D01*
X119356403Y-100257379D01*
X119406645Y-100392086D01*
X119406649Y-100392093D01*
X119492809Y-100507187D01*
X119492812Y-100507190D01*
X119607906Y-100593350D01*
X119607913Y-100593354D01*
X119742620Y-100643596D01*
X119742627Y-100643598D01*
X119802155Y-100649999D01*
X119802172Y-100650000D01*
X120500000Y-100650000D01*
X120500000Y-99625277D01*
X120576306Y-99669333D01*
X120690756Y-99700000D01*
X120809244Y-99700000D01*
X120923694Y-99669333D01*
X121000000Y-99625277D01*
X121000000Y-100650000D01*
X121697828Y-100650000D01*
X121697844Y-100649999D01*
X121757372Y-100643598D01*
X121757379Y-100643596D01*
X121892086Y-100593354D01*
X121892093Y-100593350D01*
X122007187Y-100507190D01*
X122007190Y-100507187D01*
X122093350Y-100392093D01*
X122093355Y-100392084D01*
X122122075Y-100315081D01*
X122163945Y-100259147D01*
X122229409Y-100234729D01*
X122297682Y-100249580D01*
X122329484Y-100274428D01*
X122338216Y-100283913D01*
X122338219Y-100283915D01*
X122338222Y-100283918D01*
X122521365Y-100426464D01*
X122521371Y-100426468D01*
X122521374Y-100426470D01*
X122725497Y-100536936D01*
X122839487Y-100576068D01*
X122945015Y-100612297D01*
X122945017Y-100612297D01*
X122945019Y-100612298D01*
X123173951Y-100650500D01*
X123173952Y-100650500D01*
X123406048Y-100650500D01*
X123406049Y-100650500D01*
X123634981Y-100612298D01*
X123854503Y-100536936D01*
X124058626Y-100426470D01*
X124241784Y-100283913D01*
X124398979Y-100113153D01*
X124525924Y-99918849D01*
X124619157Y-99706300D01*
X124676134Y-99481305D01*
X124677172Y-99468779D01*
X124695300Y-99250006D01*
X124695300Y-99249993D01*
X124676135Y-99018702D01*
X124676133Y-99018691D01*
X124619157Y-98793699D01*
X124525924Y-98581151D01*
X124398983Y-98386852D01*
X124398980Y-98386849D01*
X124398979Y-98386847D01*
X124241784Y-98216087D01*
X124241779Y-98216083D01*
X124241777Y-98216081D01*
X124058634Y-98073535D01*
X124058628Y-98073531D01*
X123854504Y-97963064D01*
X123854495Y-97963061D01*
X123634984Y-97887702D01*
X123447404Y-97856401D01*
X123406049Y-97849500D01*
X123173951Y-97849500D01*
X123132596Y-97856401D01*
X122945015Y-97887702D01*
X122725504Y-97963061D01*
X122725495Y-97963064D01*
X122521371Y-98073531D01*
X122521365Y-98073535D01*
X122338222Y-98216081D01*
X122338215Y-98216087D01*
X122329484Y-98225572D01*
X122269595Y-98261561D01*
X122199757Y-98259458D01*
X122142143Y-98219932D01*
X122122075Y-98184918D01*
X122093355Y-98107915D01*
X122093350Y-98107906D01*
X122007190Y-97992812D01*
X122007187Y-97992809D01*
X121892093Y-97906649D01*
X121892086Y-97906645D01*
X121757379Y-97856403D01*
X121757372Y-97856401D01*
X121697844Y-97850000D01*
X121000000Y-97850000D01*
X121000000Y-98874722D01*
X120923694Y-98830667D01*
X120809244Y-98800000D01*
X120690756Y-98800000D01*
X120576306Y-98830667D01*
X120500000Y-98874722D01*
X120500000Y-97850000D01*
X119802155Y-97850000D01*
X119742627Y-97856401D01*
X119742620Y-97856403D01*
X119607913Y-97906645D01*
X119607906Y-97906649D01*
X119492812Y-97992809D01*
X119492809Y-97992812D01*
X119406649Y-98107906D01*
X119406645Y-98107913D01*
X119356403Y-98242620D01*
X119356401Y-98242627D01*
X119350000Y-98302155D01*
X112031015Y-98302155D01*
X111951784Y-98216087D01*
X111951779Y-98216083D01*
X111951777Y-98216081D01*
X111768634Y-98073535D01*
X111768628Y-98073531D01*
X111564504Y-97963064D01*
X111564495Y-97963061D01*
X111344984Y-97887702D01*
X111157404Y-97856401D01*
X111116049Y-97849500D01*
X110883951Y-97849500D01*
X110842596Y-97856401D01*
X110655015Y-97887702D01*
X110435504Y-97963061D01*
X110435495Y-97963064D01*
X110231371Y-98073531D01*
X110231365Y-98073535D01*
X110048222Y-98216081D01*
X110048215Y-98216087D01*
X110039484Y-98225572D01*
X109979595Y-98261561D01*
X109909757Y-98259458D01*
X109852143Y-98219932D01*
X109832075Y-98184918D01*
X109803355Y-98107915D01*
X109803350Y-98107906D01*
X109717190Y-97992812D01*
X109717187Y-97992809D01*
X109602093Y-97906649D01*
X109602086Y-97906645D01*
X109467379Y-97856403D01*
X109467372Y-97856401D01*
X109407844Y-97850000D01*
X108710000Y-97850000D01*
X108710000Y-98874722D01*
X108633694Y-98830667D01*
X108519244Y-98800000D01*
X108400756Y-98800000D01*
X108286306Y-98830667D01*
X108210000Y-98874722D01*
X108210000Y-97850000D01*
X107512155Y-97850000D01*
X107452627Y-97856401D01*
X107452620Y-97856403D01*
X107317913Y-97906645D01*
X107317906Y-97906649D01*
X107202812Y-97992809D01*
X107202809Y-97992812D01*
X107116649Y-98107906D01*
X107116645Y-98107913D01*
X107066403Y-98242620D01*
X107066401Y-98242627D01*
X107060000Y-98302155D01*
X100000500Y-98302155D01*
X100000500Y-78068109D01*
X101363067Y-78068109D01*
X101383219Y-78426955D01*
X101383221Y-78426967D01*
X101443423Y-78781294D01*
X101443425Y-78781303D01*
X101542921Y-79126661D01*
X101680462Y-79458718D01*
X101680464Y-79458722D01*
X101854324Y-79773298D01*
X101854327Y-79773303D01*
X102062302Y-80066415D01*
X102134952Y-80147710D01*
X103452837Y-78829825D01*
X103538387Y-78947575D01*
X103688643Y-79097831D01*
X103806390Y-79183379D01*
X102488506Y-80501264D01*
X102569802Y-80573915D01*
X102862914Y-80781890D01*
X102862919Y-80781893D01*
X103177495Y-80955753D01*
X103177499Y-80955755D01*
X103509556Y-81093296D01*
X103854914Y-81192792D01*
X103854923Y-81192794D01*
X104209250Y-81252996D01*
X104209262Y-81252998D01*
X104568109Y-81273150D01*
X104926955Y-81252998D01*
X104926967Y-81252996D01*
X105281294Y-81192794D01*
X105281303Y-81192792D01*
X105626661Y-81093296D01*
X105958718Y-80955755D01*
X105958722Y-80955753D01*
X106273298Y-80781893D01*
X106273303Y-80781890D01*
X106566415Y-80573915D01*
X106647710Y-80501264D01*
X105329826Y-79183379D01*
X105447575Y-79097831D01*
X105597831Y-78947575D01*
X105683379Y-78829826D01*
X107001264Y-80147710D01*
X107073915Y-80066415D01*
X107281890Y-79773303D01*
X107281893Y-79773298D01*
X107455753Y-79458722D01*
X107455755Y-79458718D01*
X107593296Y-79126661D01*
X107692792Y-78781303D01*
X107692794Y-78781294D01*
X107752996Y-78426967D01*
X107752998Y-78426955D01*
X107773150Y-78068109D01*
X107752998Y-77709262D01*
X107752996Y-77709250D01*
X107692794Y-77354923D01*
X107692792Y-77354914D01*
X107593296Y-77009556D01*
X107455755Y-76677499D01*
X107455753Y-76677495D01*
X107281893Y-76362919D01*
X107281890Y-76362914D01*
X107073915Y-76069802D01*
X107001264Y-75988506D01*
X105683379Y-77306390D01*
X105597831Y-77188643D01*
X105447575Y-77038387D01*
X105329826Y-76952837D01*
X106647711Y-75634952D01*
X106566415Y-75562302D01*
X106273303Y-75354327D01*
X106273298Y-75354324D01*
X105958722Y-75180464D01*
X105958718Y-75180462D01*
X105626661Y-75042921D01*
X105281303Y-74943425D01*
X105281294Y-74943423D01*
X104926967Y-74883221D01*
X104926955Y-74883219D01*
X104568109Y-74863067D01*
X104209262Y-74883219D01*
X104209250Y-74883221D01*
X103854923Y-74943423D01*
X103854914Y-74943425D01*
X103509556Y-75042921D01*
X103177499Y-75180462D01*
X103177495Y-75180464D01*
X102862919Y-75354324D01*
X102862914Y-75354327D01*
X102569802Y-75562303D01*
X102569794Y-75562308D01*
X102488506Y-75634951D01*
X102488506Y-75634952D01*
X103806391Y-76952837D01*
X103688643Y-77038387D01*
X103538387Y-77188643D01*
X103452838Y-77306391D01*
X102134952Y-75988505D01*
X102134951Y-75988506D01*
X102062308Y-76069794D01*
X102062303Y-76069802D01*
X101854327Y-76362914D01*
X101854324Y-76362919D01*
X101680464Y-76677495D01*
X101680462Y-76677499D01*
X101542921Y-77009556D01*
X101443425Y-77354914D01*
X101443423Y-77354923D01*
X101383221Y-77709250D01*
X101383219Y-77709262D01*
X101363067Y-78068109D01*
X100000500Y-78068109D01*
X100000500Y-75004427D01*
X100000816Y-74995581D01*
X100004546Y-74943425D01*
X100015130Y-74795436D01*
X100017646Y-74777938D01*
X100059356Y-74586199D01*
X100064333Y-74569248D01*
X100132911Y-74385385D01*
X100140259Y-74369298D01*
X100202815Y-74254734D01*
X100234291Y-74197089D01*
X100243845Y-74182221D01*
X100361448Y-74025123D01*
X100373020Y-74011769D01*
X100511769Y-73873020D01*
X100525123Y-73861448D01*
X100682221Y-73743845D01*
X100697089Y-73734291D01*
X100869298Y-73640258D01*
X100885385Y-73632911D01*
X101069248Y-73564333D01*
X101086199Y-73559356D01*
X101277938Y-73517646D01*
X101295436Y-73515130D01*
X101495582Y-73500816D01*
X101504428Y-73500500D01*
X101565892Y-73500500D01*
X201434108Y-73500500D01*
X201495572Y-73500500D01*
X201504418Y-73500816D01*
G37*
%TD.AperFunction*%
%TA.AperFunction,Conductor*%
G36*
X146395982Y-98202145D02*
G01*
X146434853Y-98228453D01*
X158213181Y-110006781D01*
X158246666Y-110068104D01*
X158249500Y-110094462D01*
X158249500Y-121143396D01*
X158229815Y-121210435D01*
X158177011Y-121256190D01*
X158107853Y-121266134D01*
X158073096Y-121255778D01*
X157923669Y-121186099D01*
X157923655Y-121186094D01*
X157695413Y-121124938D01*
X157695403Y-121124936D01*
X157460001Y-121104341D01*
X157459999Y-121104341D01*
X157224596Y-121124936D01*
X157224586Y-121124938D01*
X156996344Y-121186094D01*
X156996335Y-121186097D01*
X156846905Y-121255779D01*
X156777828Y-121266271D01*
X156714044Y-121237751D01*
X156675804Y-121179275D01*
X156670500Y-121143397D01*
X156670500Y-118990945D01*
X156670500Y-118990943D01*
X156629577Y-118838215D01*
X156578890Y-118750423D01*
X156550520Y-118701284D01*
X156438716Y-118589480D01*
X156438715Y-118589479D01*
X156434385Y-118585149D01*
X156434374Y-118585139D01*
X146608500Y-108759265D01*
X146593807Y-108741552D01*
X146591519Y-108738206D01*
X146591516Y-108738200D01*
X146443535Y-108551782D01*
X146424228Y-108517356D01*
X146400111Y-108451550D01*
X146393170Y-108421377D01*
X146377355Y-108265186D01*
X146377123Y-108262942D01*
X146377112Y-108262838D01*
X146376869Y-108260587D01*
X146346874Y-107988650D01*
X146339755Y-107943205D01*
X146339329Y-107941113D01*
X146339326Y-107941100D01*
X146328010Y-107896172D01*
X146328005Y-107896157D01*
X146328003Y-107896147D01*
X146243144Y-107614509D01*
X146242106Y-107610857D01*
X146226739Y-107553504D01*
X146221787Y-107542885D01*
X146219076Y-107536624D01*
X146218680Y-107535638D01*
X146218671Y-107535612D01*
X146186377Y-107463362D01*
X146182907Y-107457453D01*
X146183329Y-107457204D01*
X146176531Y-107445834D01*
X146130568Y-107347267D01*
X146130567Y-107347265D01*
X146000045Y-107160858D01*
X145839141Y-106999954D01*
X145652734Y-106869432D01*
X145652728Y-106869429D01*
X145594725Y-106842382D01*
X145542285Y-106796210D01*
X145523133Y-106729017D01*
X145543348Y-106662135D01*
X145594725Y-106617618D01*
X145652734Y-106590568D01*
X145839139Y-106460047D01*
X146000047Y-106299139D01*
X146130568Y-106112734D01*
X146226739Y-105906496D01*
X146285635Y-105686692D01*
X146305468Y-105460000D01*
X146285635Y-105233308D01*
X146226739Y-105013504D01*
X146130568Y-104807266D01*
X146000047Y-104620861D01*
X146000045Y-104620858D01*
X145839141Y-104459954D01*
X145652734Y-104329432D01*
X145652728Y-104329429D01*
X145594725Y-104302382D01*
X145542285Y-104256210D01*
X145523133Y-104189017D01*
X145543348Y-104122135D01*
X145594725Y-104077618D01*
X145595319Y-104077341D01*
X145652734Y-104050568D01*
X145839139Y-103920047D01*
X146000047Y-103759139D01*
X146130568Y-103572734D01*
X146226739Y-103366496D01*
X146285635Y-103146692D01*
X146305468Y-102920000D01*
X146285635Y-102693308D01*
X146226739Y-102473504D01*
X146130568Y-102267266D01*
X146000047Y-102080861D01*
X146000045Y-102080858D01*
X145839141Y-101919954D01*
X145652734Y-101789432D01*
X145652732Y-101789431D01*
X145641275Y-101784088D01*
X145594132Y-101762105D01*
X145541694Y-101715934D01*
X145522542Y-101648740D01*
X145542758Y-101581859D01*
X145594134Y-101537341D01*
X145652484Y-101510132D01*
X145838820Y-101379657D01*
X145999657Y-101218820D01*
X146130134Y-101032482D01*
X146226265Y-100826326D01*
X146226269Y-100826317D01*
X146278872Y-100630000D01*
X145315686Y-100630000D01*
X145320080Y-100625606D01*
X145372741Y-100534394D01*
X145400000Y-100432661D01*
X145400000Y-100327339D01*
X145372741Y-100225606D01*
X145320080Y-100134394D01*
X145315686Y-100130000D01*
X146278872Y-100130000D01*
X146278872Y-100129999D01*
X146226269Y-99933682D01*
X146226265Y-99933673D01*
X146130134Y-99727517D01*
X145999657Y-99541179D01*
X145838820Y-99380342D01*
X145652482Y-99249865D01*
X145594133Y-99222657D01*
X145541694Y-99176484D01*
X145522542Y-99109291D01*
X145542758Y-99042410D01*
X145594129Y-98997895D01*
X145652734Y-98970568D01*
X145839139Y-98840047D01*
X146000047Y-98679139D01*
X146130568Y-98492734D01*
X146226739Y-98286496D01*
X146227396Y-98284042D01*
X146227980Y-98283083D01*
X146228593Y-98281402D01*
X146228930Y-98281524D01*
X146263760Y-98224382D01*
X146326606Y-98193851D01*
X146395982Y-98202145D01*
G37*
%TD.AperFunction*%
%TD*%
%TA.AperFunction,Conductor*%
%TO.N,Net-(J1-Pin_3)*%
G36*
X145736118Y-107698793D02*
G01*
X145742443Y-107705132D01*
X145742831Y-107706222D01*
X145843995Y-108041979D01*
X145844421Y-108044071D01*
X145874416Y-108316008D01*
X145874427Y-108316112D01*
X145898223Y-108551112D01*
X145898224Y-108551115D01*
X145898224Y-108551117D01*
X145898225Y-108551119D01*
X145984518Y-108786586D01*
X146195595Y-109052488D01*
X146198054Y-109061098D01*
X146194704Y-109068035D01*
X146068035Y-109194704D01*
X146059762Y-109198131D01*
X146052488Y-109195595D01*
X146051366Y-109194704D01*
X145786586Y-108984518D01*
X145551119Y-108898225D01*
X145551117Y-108898224D01*
X145551115Y-108898224D01*
X145551112Y-108898223D01*
X145316060Y-108874421D01*
X145315956Y-108874410D01*
X145044071Y-108844421D01*
X145041979Y-108843995D01*
X144767345Y-108761247D01*
X144706221Y-108742830D01*
X144699289Y-108737163D01*
X144698394Y-108728253D01*
X144698775Y-108727180D01*
X144997438Y-108003785D01*
X145003762Y-107997448D01*
X145003764Y-107997446D01*
X145727165Y-107698782D01*
X145736118Y-107698793D01*
G37*
%TD.AperFunction*%
%TD*%
%TA.AperFunction,Conductor*%
%TO.N,/DOOR*%
G36*
X125607185Y-83059359D02*
G01*
X125608134Y-83060432D01*
X125769999Y-83268014D01*
X125770005Y-83268020D01*
X125940005Y-83452027D01*
X126110000Y-83602021D01*
X126280000Y-83718014D01*
X126443384Y-83796809D01*
X126449346Y-83803488D01*
X126450000Y-83807346D01*
X126450000Y-83992653D01*
X126446573Y-84000926D01*
X126443383Y-84003190D01*
X126375053Y-84036144D01*
X126280001Y-84081984D01*
X126110001Y-84197976D01*
X125940005Y-84347971D01*
X125939999Y-84347978D01*
X125769999Y-84531985D01*
X125608133Y-84739568D01*
X125600345Y-84743984D01*
X125591713Y-84741600D01*
X125590640Y-84740651D01*
X125589556Y-84739568D01*
X124757286Y-83908276D01*
X124753855Y-83900007D01*
X124757276Y-83891733D01*
X125590640Y-83059348D01*
X125598914Y-83055927D01*
X125607185Y-83059359D01*
G37*
%TD.AperFunction*%
%TD*%
%TA.AperFunction,Conductor*%
%TO.N,/PHOTO_D*%
G36*
X154819526Y-78839444D02*
G01*
X154825852Y-78845783D01*
X154825843Y-78854737D01*
X154825330Y-78855813D01*
X154636248Y-79205594D01*
X154635022Y-79207426D01*
X154439382Y-79447246D01*
X154439290Y-79447357D01*
X154267714Y-79652482D01*
X154267712Y-79652486D01*
X154146150Y-79908084D01*
X154101217Y-80289668D01*
X154096846Y-80297484D01*
X154089597Y-80300000D01*
X153910403Y-80300000D01*
X153902130Y-80296573D01*
X153898783Y-80289668D01*
X153853848Y-79908084D01*
X153732285Y-79652486D01*
X153732283Y-79652482D01*
X153649856Y-79553938D01*
X153560649Y-79447287D01*
X153364973Y-79207423D01*
X153363749Y-79205594D01*
X153174669Y-78855813D01*
X153173749Y-78846905D01*
X153179397Y-78839957D01*
X153180464Y-78839448D01*
X153995512Y-78500863D01*
X154004465Y-78500855D01*
X154819526Y-78839444D01*
G37*
%TD.AperFunction*%
%TD*%
%TA.AperFunction,Conductor*%
%TO.N,/PHOTO_D*%
G36*
X148861263Y-94012736D02*
G01*
X148987263Y-94138736D01*
X148990690Y-94147009D01*
X148987825Y-94154680D01*
X148911678Y-94242380D01*
X148867877Y-94321478D01*
X148867877Y-94321479D01*
X148843930Y-94399472D01*
X148843928Y-94399478D01*
X148820363Y-94491503D01*
X148820070Y-94492473D01*
X148781244Y-94603171D01*
X148775272Y-94609844D01*
X148766331Y-94610340D01*
X148765759Y-94610122D01*
X148503815Y-94502563D01*
X148497463Y-94496251D01*
X148497436Y-94496184D01*
X148457719Y-94399459D01*
X148389877Y-94234238D01*
X148389904Y-94225285D01*
X148396256Y-94218973D01*
X148396797Y-94218766D01*
X148507537Y-94179922D01*
X148508488Y-94179635D01*
X148600539Y-94156064D01*
X148678517Y-94132122D01*
X148704885Y-94117519D01*
X148757617Y-94088319D01*
X148757619Y-94088317D01*
X148757623Y-94088315D01*
X148845320Y-94012173D01*
X148853813Y-94009338D01*
X148861263Y-94012736D01*
G37*
%TD.AperFunction*%
%TD*%
%TA.AperFunction,Conductor*%
%TO.N,5V*%
G36*
X131608272Y-84148370D02*
G01*
X131614589Y-84154716D01*
X131614568Y-84163670D01*
X131614361Y-84164137D01*
X131546686Y-84308392D01*
X131546337Y-84309077D01*
X131485800Y-84418742D01*
X131439634Y-84515606D01*
X131410283Y-84631850D01*
X131400672Y-84789014D01*
X131396747Y-84797063D01*
X131388994Y-84800000D01*
X131111006Y-84800000D01*
X131102733Y-84796573D01*
X131099328Y-84789014D01*
X131089715Y-84631850D01*
X131089715Y-84631847D01*
X131060364Y-84515605D01*
X131014200Y-84418746D01*
X130953661Y-84309077D01*
X130953312Y-84308392D01*
X130885638Y-84164137D01*
X130885226Y-84155192D01*
X130891261Y-84148576D01*
X130891683Y-84148388D01*
X131245500Y-84000875D01*
X131254449Y-84000855D01*
X131608272Y-84148370D01*
G37*
%TD.AperFunction*%
%TD*%
%TA.AperFunction,Conductor*%
%TO.N,/TMP1*%
G36*
X152125359Y-92727926D02*
G01*
X152125915Y-92728176D01*
X152231654Y-92779000D01*
X152232517Y-92779462D01*
X152314290Y-92827893D01*
X152386359Y-92866102D01*
X152386364Y-92866103D01*
X152386368Y-92866105D01*
X152473268Y-92891061D01*
X152473272Y-92891062D01*
X152589124Y-92899232D01*
X152597135Y-92903232D01*
X152600000Y-92910903D01*
X152600000Y-93089095D01*
X152596573Y-93097368D01*
X152589123Y-93100766D01*
X152473270Y-93108936D01*
X152473267Y-93108936D01*
X152386359Y-93133897D01*
X152386354Y-93133899D01*
X152314311Y-93172093D01*
X152314274Y-93172114D01*
X152232531Y-93220527D01*
X152231638Y-93221005D01*
X152125917Y-93271822D01*
X152116976Y-93272318D01*
X152110303Y-93266346D01*
X152110052Y-93265788D01*
X152054945Y-93133897D01*
X152000883Y-93004509D01*
X152000857Y-92995556D01*
X152000862Y-92995542D01*
X152110052Y-92734210D01*
X152116404Y-92727899D01*
X152125359Y-92727926D01*
G37*
%TD.AperFunction*%
%TD*%
%TA.AperFunction,Conductor*%
%TO.N,/RESET*%
G36*
X138177119Y-84813526D02*
G01*
X138183444Y-84819865D01*
X138183802Y-84820857D01*
X138307276Y-85217889D01*
X138434555Y-85585160D01*
X138561839Y-85910441D01*
X138689111Y-86193694D01*
X138689122Y-86193717D01*
X138812370Y-86427342D01*
X138813200Y-86436258D01*
X138810295Y-86441074D01*
X138681674Y-86569695D01*
X138673401Y-86573122D01*
X138667028Y-86571234D01*
X138349704Y-86365115D01*
X138349699Y-86365112D01*
X138024432Y-86195835D01*
X138024433Y-86195835D01*
X137803715Y-86109468D01*
X137699167Y-86068558D01*
X137699163Y-86068557D01*
X137699158Y-86068555D01*
X137373911Y-85983281D01*
X137373900Y-85983279D01*
X137063706Y-85942006D01*
X137055957Y-85937518D01*
X137053651Y-85928865D01*
X137054435Y-85925942D01*
X137377438Y-85143783D01*
X137383759Y-85137448D01*
X138168166Y-84813517D01*
X138177119Y-84813526D01*
G37*
%TD.AperFunction*%
%TD*%
%TA.AperFunction,Conductor*%
%TO.N,/TMP1*%
G36*
X168005799Y-79651328D02*
G01*
X168625176Y-80001821D01*
X168630689Y-80008878D01*
X168630257Y-80016400D01*
X168587999Y-80120636D01*
X168559336Y-80207191D01*
X168541884Y-80259891D01*
X168495767Y-80424645D01*
X168449651Y-80614900D01*
X168413422Y-80784401D01*
X168405513Y-80821402D01*
X168400432Y-80828776D01*
X168394071Y-80830656D01*
X168210277Y-80830656D01*
X168202004Y-80827229D01*
X168200154Y-80824822D01*
X168198172Y-80821402D01*
X168187663Y-80803266D01*
X168186481Y-80794391D01*
X168188055Y-80790908D01*
X168192402Y-80784403D01*
X168207963Y-80706172D01*
X168192402Y-80627941D01*
X168159274Y-80578361D01*
X168159271Y-80578357D01*
X167826762Y-80245849D01*
X167825637Y-80244545D01*
X167797937Y-80207189D01*
X167662741Y-80050372D01*
X167662740Y-80050371D01*
X167662739Y-80050370D01*
X167538675Y-79929865D01*
X167535129Y-79921643D01*
X167538435Y-79913321D01*
X167541005Y-79911325D01*
X167994219Y-79651362D01*
X168003098Y-79650219D01*
X168005799Y-79651328D01*
G37*
%TD.AperFunction*%
%TD*%
%TA.AperFunction,Conductor*%
%TO.N,Net-(J1-Pin_3)*%
G36*
X156336797Y-123733672D02*
G01*
X156620545Y-123958235D01*
X156746084Y-124003501D01*
X156871621Y-124048768D01*
X156871624Y-124048769D01*
X157122412Y-124072540D01*
X157407096Y-124102604D01*
X157412361Y-124103160D01*
X157414491Y-124103587D01*
X157772888Y-124210988D01*
X157779828Y-124216645D01*
X157780736Y-124225554D01*
X157780342Y-124226661D01*
X157462562Y-124996214D01*
X157456237Y-125002553D01*
X157456214Y-125002562D01*
X156686661Y-125320342D01*
X156677706Y-125320333D01*
X156671381Y-125313994D01*
X156670992Y-125312902D01*
X156563587Y-124954491D01*
X156563160Y-124952361D01*
X156532551Y-124662518D01*
X156532538Y-124662393D01*
X156508769Y-124411624D01*
X156442075Y-124226661D01*
X156418235Y-124160545D01*
X156322413Y-124039469D01*
X156193671Y-123876796D01*
X156191225Y-123868183D01*
X156194572Y-123861264D01*
X156321264Y-123734572D01*
X156329536Y-123731146D01*
X156336797Y-123733672D01*
G37*
%TD.AperFunction*%
%TD*%
%TA.AperFunction,Conductor*%
%TO.N,/RESET*%
G36*
X158949285Y-123779772D02*
G01*
X158952316Y-123785027D01*
X159029017Y-124072562D01*
X159242063Y-124162888D01*
X159242063Y-124162887D01*
X159242064Y-124162888D01*
X159553129Y-124148942D01*
X159924751Y-124132404D01*
X159927621Y-124132632D01*
X160311427Y-124211842D01*
X160318836Y-124216871D01*
X160320520Y-124225666D01*
X160319872Y-124227774D01*
X160001856Y-124996512D01*
X159995527Y-125002846D01*
X159995511Y-125002853D01*
X159225171Y-125320957D01*
X159216216Y-125320948D01*
X159210042Y-125314957D01*
X159047553Y-124954957D01*
X158917651Y-124690612D01*
X158917281Y-124689775D01*
X158824849Y-124456711D01*
X158824252Y-124454690D01*
X158768794Y-124177065D01*
X158768583Y-124175339D01*
X158750570Y-123788588D01*
X158753608Y-123780166D01*
X158761713Y-123776358D01*
X158762257Y-123776345D01*
X158941012Y-123776345D01*
X158949285Y-123779772D01*
G37*
%TD.AperFunction*%
%TD*%
%TA.AperFunction,Conductor*%
%TO.N,Net-(J1-Pin_1)*%
G36*
X145736118Y-110238793D02*
G01*
X145742443Y-110245132D01*
X145742831Y-110246222D01*
X145843995Y-110581979D01*
X145844421Y-110584071D01*
X145874416Y-110856008D01*
X145874427Y-110856112D01*
X145898223Y-111091112D01*
X145898224Y-111091115D01*
X145898224Y-111091117D01*
X145898225Y-111091119D01*
X145984518Y-111326586D01*
X146195595Y-111592488D01*
X146198054Y-111601098D01*
X146194704Y-111608035D01*
X146068035Y-111734704D01*
X146059762Y-111738131D01*
X146052488Y-111735595D01*
X146051366Y-111734704D01*
X145786586Y-111524518D01*
X145551119Y-111438225D01*
X145551117Y-111438224D01*
X145551115Y-111438224D01*
X145551112Y-111438223D01*
X145316060Y-111414421D01*
X145315956Y-111414410D01*
X145044071Y-111384421D01*
X145041979Y-111383995D01*
X144767345Y-111301247D01*
X144706221Y-111282830D01*
X144699289Y-111277163D01*
X144698394Y-111268253D01*
X144698775Y-111267180D01*
X144997438Y-110543785D01*
X145003762Y-110537448D01*
X145003764Y-110537446D01*
X145727165Y-110238782D01*
X145736118Y-110238793D01*
G37*
%TD.AperFunction*%
%TD*%
%TA.AperFunction,Conductor*%
%TO.N,5V*%
G36*
X138412775Y-99150035D02*
G01*
X138609964Y-99347224D01*
X138613391Y-99355497D01*
X138610761Y-99362888D01*
X138398714Y-99623128D01*
X138303228Y-99851369D01*
X138303227Y-99851374D01*
X138267266Y-100078570D01*
X138227270Y-100342845D01*
X138226860Y-100344614D01*
X138122940Y-100673985D01*
X138117182Y-100680844D01*
X138108262Y-100681623D01*
X138107317Y-100681280D01*
X137383787Y-100382562D01*
X137377448Y-100376237D01*
X137377437Y-100376212D01*
X137364391Y-100344614D01*
X137078719Y-99652682D01*
X137078730Y-99643727D01*
X137085069Y-99637402D01*
X137086014Y-99637059D01*
X137130167Y-99623128D01*
X137415389Y-99533136D01*
X137417145Y-99532729D01*
X137681468Y-99492726D01*
X137908631Y-99456770D01*
X138136868Y-99361285D01*
X138397114Y-99149237D01*
X138405690Y-99146668D01*
X138412775Y-99150035D01*
G37*
%TD.AperFunction*%
%TD*%
%TA.AperFunction,Conductor*%
%TO.N,/DOOR*%
G36*
X136327510Y-91564403D02*
G01*
X136593413Y-91775480D01*
X136828880Y-91861773D01*
X136828884Y-91861773D01*
X136828886Y-91861774D01*
X136918848Y-91870883D01*
X137063991Y-91885582D01*
X137327812Y-91914681D01*
X137335926Y-91915576D01*
X137338018Y-91916002D01*
X137673778Y-92017169D01*
X137680710Y-92022836D01*
X137681605Y-92031746D01*
X137681217Y-92032836D01*
X137382562Y-92756212D01*
X137376237Y-92762551D01*
X137376212Y-92762562D01*
X136652836Y-93061217D01*
X136643881Y-93061206D01*
X136637556Y-93054867D01*
X136637173Y-93053791D01*
X136536002Y-92718018D01*
X136535576Y-92715926D01*
X136505582Y-92443991D01*
X136505571Y-92443887D01*
X136481774Y-92208886D01*
X136481773Y-92208883D01*
X136481773Y-92208880D01*
X136395480Y-91973413D01*
X136184403Y-91707510D01*
X136181945Y-91698901D01*
X136185294Y-91691965D01*
X136311965Y-91565294D01*
X136320237Y-91561868D01*
X136327510Y-91564403D01*
G37*
%TD.AperFunction*%
%TD*%
%TA.AperFunction,Conductor*%
%TO.N,Net-(J1-Pin_1)*%
G36*
X153873195Y-123426800D02*
G01*
X154166265Y-123659403D01*
X154166270Y-123659406D01*
X154166276Y-123659411D01*
X154462553Y-123849558D01*
X154600931Y-123917350D01*
X154758829Y-123994705D01*
X154861870Y-124029534D01*
X155055107Y-124094852D01*
X155336026Y-124147141D01*
X155343532Y-124152023D01*
X155345387Y-124160784D01*
X155344321Y-124163933D01*
X154922194Y-124996670D01*
X154915397Y-125002500D01*
X154915384Y-125002504D01*
X154082843Y-125273858D01*
X154073915Y-125273164D01*
X154068093Y-125266360D01*
X154067689Y-125264736D01*
X153990000Y-124817288D01*
X153910000Y-124401532D01*
X153829999Y-124030776D01*
X153749999Y-123705020D01*
X153674247Y-123439169D01*
X153675275Y-123430275D01*
X153682293Y-123424712D01*
X153685499Y-123424264D01*
X153865921Y-123424264D01*
X153873195Y-123426800D01*
G37*
%TD.AperFunction*%
%TD*%
M02*
