%TF.GenerationSoftware,KiCad,Pcbnew,8.0.8*%
%TF.CreationDate,2025-02-21T18:26:29+02:00*%
%TF.ProjectId,iis22183,69697332-3231-4383-932e-6b696361645f,0*%
%TF.SameCoordinates,Original*%
%TF.FileFunction,Soldermask,Bot*%
%TF.FilePolarity,Negative*%
%FSLAX46Y46*%
G04 Gerber Fmt 4.6, Leading zero omitted, Abs format (unit mm)*
G04 Created by KiCad (PCBNEW 8.0.8) date 2025-02-21 18:26:29*
%MOMM*%
%LPD*%
G01*
G04 APERTURE LIST*
G04 Aperture macros list*
%AMRoundRect*
0 Rectangle with rounded corners*
0 $1 Rounding radius*
0 $2 $3 $4 $5 $6 $7 $8 $9 X,Y pos of 4 corners*
0 Add a 4 corners polygon primitive as box body*
4,1,4,$2,$3,$4,$5,$6,$7,$8,$9,$2,$3,0*
0 Add four circle primitives for the rounded corners*
1,1,$1+$1,$2,$3*
1,1,$1+$1,$4,$5*
1,1,$1+$1,$6,$7*
1,1,$1+$1,$8,$9*
0 Add four rect primitives between the rounded corners*
20,1,$1+$1,$2,$3,$4,$5,0*
20,1,$1+$1,$4,$5,$6,$7,0*
20,1,$1+$1,$6,$7,$8,$9,0*
20,1,$1+$1,$8,$9,$2,$3,0*%
%AMHorizOval*
0 Thick line with rounded ends*
0 $1 width*
0 $2 $3 position (X,Y) of the first rounded end (center of the circle)*
0 $4 $5 position (X,Y) of the second rounded end (center of the circle)*
0 Add line between two ends*
20,1,$1,$2,$3,$4,$5,0*
0 Add two circle primitives to create the rounded ends*
1,1,$1,$2,$3*
1,1,$1,$4,$5*%
%AMRotRect*
0 Rectangle, with rotation*
0 The origin of the aperture is its center*
0 $1 length*
0 $2 width*
0 $3 Rotation angle, in degrees counterclockwise*
0 Add horizontal line*
21,1,$1,$2,0,0,$3*%
G04 Aperture macros list end*
%ADD10C,0.800000*%
%ADD11C,5.400000*%
%ADD12R,1.700000X1.700000*%
%ADD13R,3.500000X3.500000*%
%ADD14RoundRect,0.750000X0.750000X1.000000X-0.750000X1.000000X-0.750000X-1.000000X0.750000X-1.000000X0*%
%ADD15RoundRect,0.875000X0.875000X0.875000X-0.875000X0.875000X-0.875000X-0.875000X0.875000X-0.875000X0*%
%ADD16R,1.800000X1.800000*%
%ADD17C,1.800000*%
%ADD18RotRect,1.050000X1.500000X45.000000*%
%ADD19HorizOval,1.050000X-0.159099X0.159099X0.159099X-0.159099X0*%
%ADD20R,1.600000X1.600000*%
%ADD21O,1.600000X1.600000*%
%ADD22RotRect,1.800000X1.800000X45.000000*%
%ADD23O,1.700000X1.700000*%
G04 APERTURE END LIST*
D10*
%TO.C,H1*%
X102543109Y-78068109D03*
X103136218Y-76636218D03*
X103136218Y-79500000D03*
X104568109Y-76043109D03*
D11*
X104568109Y-78068109D03*
D10*
X104568109Y-80093109D03*
X106000000Y-76636218D03*
X106000000Y-79500000D03*
X106593109Y-78068109D03*
%TD*%
%TO.C,H3*%
X196406891Y-78068109D03*
X197000000Y-76636218D03*
X197000000Y-79500000D03*
X198431891Y-76043109D03*
D11*
X198431891Y-78068109D03*
D10*
X198431891Y-80093109D03*
X199863782Y-76636218D03*
X199863782Y-79500000D03*
X200456891Y-78068109D03*
%TD*%
D12*
%TO.C,J3*%
X124750000Y-83900000D03*
%TD*%
D13*
%TO.C,J2*%
X189500000Y-100457500D03*
D14*
X195500000Y-100457500D03*
D15*
X192500000Y-95757500D03*
%TD*%
D16*
%TO.C,D3*%
X120750000Y-99250000D03*
D17*
X123290000Y-99250000D03*
%TD*%
D10*
%TO.C,H4*%
X196406891Y-122500000D03*
X197000000Y-121068109D03*
X197000000Y-123931891D03*
X198431891Y-120475000D03*
D11*
X198431891Y-122500000D03*
D10*
X198431891Y-124525000D03*
X199863782Y-121068109D03*
X199863782Y-123931891D03*
X200456891Y-122500000D03*
%TD*%
D18*
%TO.C,U2*%
X167101974Y-80547073D03*
D19*
X168000000Y-79649047D03*
X168898025Y-78751022D03*
%TD*%
D20*
%TO.C,U1*%
X137380000Y-85140000D03*
D21*
X137380000Y-87680000D03*
X137380000Y-90220000D03*
X137380000Y-92760000D03*
X137380000Y-95300000D03*
X137380000Y-97840000D03*
X137380000Y-100380000D03*
X137380000Y-102920000D03*
X137380000Y-105460000D03*
X137380000Y-108000000D03*
X137380000Y-110540000D03*
X137380000Y-113080000D03*
X137380000Y-115620000D03*
X137380000Y-118160000D03*
X145000000Y-118160000D03*
X145000000Y-115620000D03*
X145000000Y-113080000D03*
X145000000Y-110540000D03*
X145000000Y-108000000D03*
X145000000Y-105460000D03*
X145000000Y-102920000D03*
X145000000Y-100380000D03*
X145000000Y-97840000D03*
X145000000Y-95300000D03*
X145000000Y-92760000D03*
X145000000Y-90220000D03*
X145000000Y-87680000D03*
X145000000Y-85140000D03*
%TD*%
D22*
%TO.C,D4*%
X152203949Y-80296051D03*
D17*
X154000000Y-78500000D03*
%TD*%
D16*
%TO.C,D2*%
X108460000Y-99250000D03*
D17*
X111000000Y-99250000D03*
%TD*%
D10*
%TO.C,H2*%
X102450000Y-122500000D03*
X103043109Y-121068109D03*
X103043109Y-123931891D03*
X104475000Y-120475000D03*
D11*
X104475000Y-122500000D03*
D10*
X104475000Y-124525000D03*
X105906891Y-121068109D03*
X105906891Y-123931891D03*
X106500000Y-122500000D03*
%TD*%
D12*
%TO.C,J1*%
X154920000Y-125000000D03*
D23*
X154920000Y-122460000D03*
X157460000Y-125000000D03*
X157460000Y-122460000D03*
X160000000Y-125000000D03*
X160000000Y-122460000D03*
%TD*%
M02*
