M48
; DRILL file {KiCad 8.0.8} date 2025-02-21T18:26:26+0200
; FORMAT={-:-/ absolute / inch / decimal}
; #@! TF.CreationDate,2025-02-21T18:26:26+02:00
; #@! TF.GenerationSoftware,Kicad,Pcbnew,8.0.8
; #@! TF.FileFunction,Plated,1,2,PTH
FMAT,2
INCH
; #@! TA.AperFunction,Plated,PTH,ViaDrill
T1C0.0118
; #@! TA.AperFunction,Plated,PTH,ComponentDrill
T2C0.0197
; #@! TA.AperFunction,Plated,PTH,ViaDrill
T3C0.0236
; #@! TA.AperFunction,Plated,PTH,ComponentDrill
T4C0.0295
; #@! TA.AperFunction,Plated,PTH,ComponentDrill
T5C0.0315
; #@! TA.AperFunction,Plated,PTH,ComponentDrill
T6C0.0354
; #@! TA.AperFunction,Plated,PTH,ComponentDrill
T7C0.0394
; #@! TA.AperFunction,Plated,PTH,ComponentDrill
T8C0.1063
%
G90
G05
T1
X5.8465Y-3.7205
X5.9843Y-3.6614
T2
X4.0335Y-4.8228
X4.0371Y-3.0735
X4.0568Y-4.7665
X4.0568Y-4.8792
X4.0605Y-3.0172
X4.0605Y-3.1299
X4.1132Y-4.7431
X4.1132Y-4.9026
X4.1169Y-2.9938
X4.1169Y-3.1533
X4.1696Y-4.7665
X4.1696Y-4.8792
X4.1732Y-3.0172
X4.1732Y-3.1299
X4.1929Y-4.8228
X4.1966Y-3.0735
X7.7326Y-3.0735
X7.7326Y-4.8228
X7.7559Y-3.0172
X7.7559Y-3.1299
X7.7559Y-4.7665
X7.7559Y-4.8792
X7.8123Y-2.9938
X7.8123Y-3.1533
X7.8123Y-4.7431
X7.8123Y-4.9026
X7.8687Y-3.0172
X7.8687Y-3.1299
X7.8687Y-4.7665
X7.8687Y-4.8792
X7.892Y-3.0735
X7.892Y-4.8228
T3
X5.1673Y-3.3071
T4
X6.5788Y-3.1711
X6.6142Y-3.1358
X6.6495Y-3.1004
T5
X5.4087Y-3.352
X5.4087Y-3.452
X5.4087Y-3.552
X5.4087Y-3.652
X5.4087Y-3.752
X5.4087Y-3.852
X5.4087Y-3.952
X5.4087Y-4.052
X5.4087Y-4.152
X5.4087Y-4.252
X5.4087Y-4.352
X5.4087Y-4.452
X5.4087Y-4.552
X5.4087Y-4.652
X5.7087Y-3.352
X5.7087Y-3.452
X5.7087Y-3.552
X5.7087Y-3.652
X5.7087Y-3.752
X5.7087Y-3.852
X5.7087Y-3.952
X5.7087Y-4.052
X5.7087Y-4.152
X5.7087Y-4.252
X5.7087Y-4.352
X5.7087Y-4.452
X5.7087Y-4.552
X5.7087Y-4.652
T6
X4.2701Y-3.9075
X4.3701Y-3.9075
X4.7539Y-3.9075
X4.8539Y-3.9075
X5.9923Y-3.1613
X6.063Y-3.0906
T7
X4.9114Y-3.3031
X6.0992Y-4.8213
X6.0992Y-4.9213
X6.1992Y-4.8213
X6.1992Y-4.9213
X6.2992Y-4.8213
X6.2992Y-4.9213
T8
X4.1132Y-4.8228
X4.1169Y-3.0735
X7.8123Y-3.0735
X7.8123Y-4.8228
T7
G00X7.4606Y-3.9944
M15
G01X7.4606Y-3.9156
M16
G05
G00X7.6181Y-3.77
M15
G01X7.5394Y-3.77
M16
G05
G00X7.6969Y-3.9944
M15
G01X7.6969Y-3.9156
M16
G05
M30
